<svg width="126" height="283" viewBox="0 0 126 283" fill="none" xmlns="http://www.w3.org/2000/svg">
<path d="M35.3797 207.102C36.8222 207.291 38.2104 207.776 39.4611 208.529C40.7118 209.281 41.7995 210.285 42.659 211.481C44.3688 213.886 45.5112 216.666 45.9975 219.606C47.1009 225.231 45.8096 231.739 43.9636 237.155C38.2323 234.676 35.0588 228.037 33.5867 224.601C31.3565 219.186 30.5158 207.815 35.4032 207.033" fill="#FF725E"/>
<path d="M51.928 244.462C51.1374 243.019 50.7356 241.385 50.7633 239.725C50.791 238.065 51.2472 236.439 52.0856 235.012C52.9424 233.597 54.0633 232.368 55.3834 231.396C56.7035 230.424 58.1966 229.729 59.7762 229.35C60.487 229.101 61.241 229.014 61.9856 229.094C62.7301 229.175 63.4471 229.422 64.0863 229.817C64.6115 230.288 65.0017 230.897 65.2159 231.579C65.43 232.26 65.4602 232.99 65.3033 233.691C64.9879 235.08 64.3233 236.363 63.3757 237.411C60.292 241.183 56.6378 244.288 51.8386 244.369" fill="#FF725E"/>
<path d="M51.4793 263.049C51.3868 262.665 51.3245 262.274 51.293 261.88C51.1844 261.054 51.0559 259.973 50.8935 258.688C50.3342 255.166 50.34 251.57 50.9106 248.041C51.556 244.484 53.1124 241.158 55.4201 238.407C56.1231 237.605 56.9063 236.882 57.7567 236.249C58.0488 236.027 58.3219 235.889 58.4816 235.774C58.5701 235.723 58.6672 235.69 58.7677 235.677C57.6287 236.567 56.575 237.567 55.6211 238.662C53.4395 241.411 51.9709 244.677 51.3529 248.154C50.7934 251.643 50.7453 255.194 51.2103 258.689C51.3357 260.048 51.4369 261.138 51.4964 261.904C51.5266 262.285 51.5209 262.668 51.4793 263.049Z" fill="#263238"/>
<path d="M36.7434 215.637C36.809 215.795 36.8608 215.958 36.8983 216.126L37.4236 217.496C37.8087 218.712 38.4905 220.431 39.25 222.589C40.7688 226.903 42.791 232.904 44.8699 239.566C46.9489 246.228 48.7088 252.317 49.9101 256.737C50.5039 258.95 50.9787 260.738 51.2947 261.977C51.4761 262.55 51.6221 263.011 51.6406 263.407C51.7062 263.565 51.758 263.729 51.7955 263.896C51.7231 263.741 51.671 263.576 51.6406 263.407C51.5255 263.044 51.3795 262.582 51.198 262.009C50.7997 260.752 50.3112 258.967 49.6893 256.811C48.4052 252.418 46.622 246.353 44.5431 239.691C42.4641 233.029 40.5291 227.014 39.0379 222.69C38.3608 220.552 37.8032 218.791 37.3314 217.542C37.15 216.969 37.0039 216.508 36.8889 216.144C36.8182 215.983 36.7692 215.812 36.7434 215.637Z" fill="#263238"/>
<path d="M45.3428 250.249C43.7764 247.155 41.5087 244.496 38.7282 242.491C35.9477 240.487 32.7349 239.195 29.3571 238.724C27.6472 238.501 25.5353 238.675 24.6907 240.297C23.8461 241.919 24.7338 243.788 25.8437 245.166C28.1768 247.999 31.2831 250.053 34.7697 251.067C38.2563 252.082 41.9665 252.011 45.4309 250.865" fill="#FF725E"/>
<path d="M31.6514 243.644C32.0159 243.636 32.3798 243.668 32.737 243.74C33.1582 243.782 33.5751 243.858 33.9842 243.967C34.5388 244.071 35.0862 244.211 35.6232 244.385C36.2776 244.576 36.9219 244.801 37.5537 245.059C38.2527 245.317 38.9507 245.667 39.6984 246.031C41.2978 246.893 42.7947 247.939 44.1603 249.149C45.5103 250.369 46.7168 251.745 47.7557 253.252C48.2061 253.909 48.6175 254.593 48.9874 255.301C49.3187 255.912 49.6127 256.543 49.8678 257.192C50.1421 257.777 50.2353 258.362 50.4658 258.808C50.6186 259.213 50.7486 259.627 50.8552 260.048C50.9581 260.406 51.0328 260.772 51.0786 261.143C50.9832 261.175 50.6018 259.625 49.6447 257.298C49.3756 256.668 49.0677 256.057 48.723 255.467C48.3522 254.774 47.9407 254.105 47.4908 253.464C46.4575 251.995 45.2664 250.65 43.9396 249.454C42.5982 248.274 41.1337 247.249 39.5721 246.397C38.8925 246.024 38.1933 245.688 37.4776 245.393C36.8584 245.119 36.2247 244.88 35.5793 244.677C33.2335 243.881 31.6732 243.713 31.6514 243.644Z" fill="#263238"/>
<path d="M69.8437 116.523H62.8916V249.282H69.8437V116.523Z" fill="#E0E0E0"/>
<path d="M69.8439 249.297C69.8439 249.297 69.8439 249.047 69.8439 248.591C69.8439 248.136 69.8439 247.43 69.8439 246.563C69.8439 244.77 69.8439 242.154 69.8439 238.862C69.8439 232.145 69.8439 222.489 69.7435 210.526C69.7435 186.599 69.6432 153.457 69.5859 116.464L69.9586 116.846H63.0064C63.7375 116.082 63.2071 116.655 63.3791 116.508V128.06C63.3791 131.901 63.3791 135.683 63.3791 139.406C63.3791 146.873 63.3791 154.104 63.3791 161.158C63.3791 175.179 63.3791 188.201 63.3791 199.812C63.2931 222.96 63.2214 240.479 63.1928 249.223L63.0781 249.121H68.2958H69.5859H70.0302H69.6288H68.3532H63.0781H62.9635V249.003C62.9635 240.258 62.8631 222.739 62.7771 199.591C62.7771 187.98 62.7771 174.959 62.7771 160.938C62.7771 153.927 62.7771 146.652 62.7771 139.186V116.552C62.9491 116.361 62.3901 116.89 63.1498 116.126H70.4746V116.552C70.4746 153.604 70.3599 186.834 70.3169 210.835C70.3169 222.754 70.2309 232.395 70.2022 239.082C70.2022 242.36 70.2022 244.961 70.2022 246.696C70.2022 247.548 70.2022 248.165 70.2022 248.665C70.2022 249.165 69.8439 249.297 69.8439 249.297Z" fill="#263238"/>
<path d="M71.665 282.321H61.0576V249.179C61.0576 248.474 61.331 247.797 61.8175 247.298C62.3041 246.799 62.964 246.519 63.6521 246.519H69.0705C69.7586 246.519 70.4185 246.799 70.9051 247.298C71.3916 247.797 71.665 248.474 71.665 249.179V282.321Z" fill="#E0E0E0"/>
<path d="M71.6644 282.321C71.6644 282.321 71.6644 281.968 71.6644 281.336C71.6644 280.704 71.6644 279.749 71.6644 278.647C71.6644 276.237 71.5928 272.915 71.5498 268.859C71.5067 264.802 71.5497 259.864 71.4351 254.47C71.4351 253.118 71.4351 251.736 71.4351 250.325V249.267C71.4423 248.951 71.3887 248.636 71.2774 248.341C71.1618 248.046 70.9874 247.778 70.7652 247.555C70.5431 247.333 70.2781 247.16 69.9873 247.048C69.3206 246.889 68.6336 246.84 67.9518 246.901H65.73C65.0133 246.901 64.1962 246.901 63.5225 246.901C63.1975 246.941 62.8852 247.053 62.6076 247.231C62.3301 247.409 62.0943 247.648 61.9171 247.93C61.7244 248.245 61.6066 248.603 61.5731 248.973C61.5731 249.341 61.5731 249.826 61.5731 250.237V257.792C61.5731 261.054 61.5731 264.17 61.5731 267.124C61.5731 273.003 61.5731 278.147 61.4727 282.292L61.2291 282.042L68.9696 282.174L71.0767 282.248H71.8365C71.6122 282.266 71.3869 282.266 71.1627 282.248H69.1129L61.2291 282.38H60.9998V282.13C60.9998 277.985 60.9998 272.827 60.8994 266.963C60.8994 264.023 60.8994 260.893 60.8994 257.63V252.633C60.8994 251.795 60.8994 250.943 60.8994 250.076C60.8994 249.635 60.8994 249.238 60.8994 248.753C60.9266 248.231 61.0846 247.725 61.3581 247.283C61.599 246.91 61.9159 246.594 62.2871 246.358C62.6582 246.122 63.0749 245.971 63.5083 245.916C64.354 245.916 65.042 245.916 65.8017 245.916H69.1273C69.5336 245.898 69.9392 245.968 70.317 246.122C70.7012 246.269 71.0513 246.497 71.345 246.79C71.6387 247.084 71.8695 247.437 72.0228 247.827C72.16 248.213 72.2279 248.621 72.2234 249.032V250.296C72.2234 251.766 72.2234 253.147 72.2234 254.514C72.2234 259.967 72.2235 264.89 72.1088 269.064C71.9941 273.238 72.0228 276.413 71.9941 278.794C71.9941 279.867 71.9941 280.734 71.9941 281.41C71.9164 281.725 71.8059 282.03 71.6644 282.321Z" fill="#263238"/>
<path d="M121.968 59.5714L64.5937 3.9615C62.6953 2.12142 59.7014 2.2077 57.9067 4.15421L3.66905 62.9806C1.87437 64.9271 1.95849 67.9967 3.85696 69.8368L61.2317 125.447C63.1302 127.287 66.1241 127.2 67.9188 125.254L122.156 66.4276C123.951 64.4811 123.867 61.4115 121.968 59.5714Z" fill="#FF725E"/>
<path d="M64.211 119.653C62.509 119.659 60.8705 118.991 59.6384 117.787L9.76945 69.5213C9.34665 69.1113 9.00685 68.6199 8.76936 68.0751C8.53188 67.5304 8.40143 66.943 8.38546 66.3465C8.36948 65.7501 8.4683 65.1562 8.67627 64.5989C8.88424 64.0416 9.19723 63.5318 9.59745 63.0987L56.7428 11.9673C57.3433 11.3168 58.0628 10.7939 58.8603 10.4286C59.6579 10.0632 60.5178 9.86258 61.391 9.83802C62.2642 9.81345 63.1336 9.96546 63.9495 10.2854C64.7654 10.6054 65.5117 11.087 66.1461 11.7027L114.395 58.4691C115.03 59.0847 115.54 59.8224 115.896 60.6402C116.252 61.4579 116.448 62.3396 116.472 63.2349C116.496 64.1302 116.348 65.0216 116.036 65.8581C115.724 66.6947 115.254 67.46 114.653 68.1104L69.0416 117.581C68.4151 118.244 67.6639 118.769 66.8336 119.125C66.0032 119.481 65.111 119.661 64.211 119.653ZM60.1257 117.258C60.7006 117.811 61.3765 118.242 62.1144 118.527C62.8523 118.812 63.6378 118.945 64.426 118.918C65.2066 118.899 65.9758 118.722 66.6892 118.396C67.4026 118.071 68.0462 117.604 68.5829 117.022L114.195 67.5519C115.274 66.3758 115.855 64.8086 115.81 63.194C115.764 61.5794 115.095 60.0492 113.951 58.9393L65.6444 12.2024C64.5017 11.0942 62.9765 10.4964 61.4042 10.5405C59.8318 10.5846 58.3408 11.2669 57.2588 12.4376L10.1135 63.569C9.44075 64.3038 9.0783 65.2813 9.10515 66.2888C9.13199 67.2963 9.54593 68.2521 10.2569 68.9481L60.1257 117.258Z" fill="white"/>
<g opacity="0.3">
<path d="M57.1292 4.98616L4.40778 62.1728C3.34526 63.3275 2.77274 64.8672 2.81573 66.4542C2.85873 68.0411 3.51377 69.5458 4.63717 70.6383L60.3974 124.694C60.8916 125.217 61.4846 125.632 62.1401 125.912C62.7957 126.193 63.5 126.333 64.2103 126.326C66.2314 126.032 61.6015 3.13431 61.6015 3.13431C60.7662 3.05736 59.9251 3.18518 59.1475 3.50716C58.3699 3.82914 57.6781 4.33608 57.1292 4.98616Z" fill="black"/>
</g>
<path d="M46.6409 60.036V73.9996H44.5273V62.1496H44.4455L41.1045 64.3315V62.3133L44.5886 60.036H46.6409ZM55.0614 59.8451C55.6841 59.8496 56.2977 59.9633 56.9023 60.186C57.5068 60.4087 58.0523 60.7724 58.5386 61.2769C59.0295 61.7815 59.4205 62.4633 59.7114 63.3224C60.0068 64.1769 60.1568 65.2405 60.1614 66.5133C60.1614 67.736 60.0386 68.8246 59.7932 69.7792C59.5477 70.7292 59.1955 71.5315 58.7364 72.186C58.2818 72.8405 57.7295 73.3383 57.0795 73.6792C56.4295 74.0201 55.6977 74.1905 54.8841 74.1905C54.0523 74.1905 53.3136 74.0269 52.6682 73.6996C52.0227 73.3724 51.4977 72.9201 51.0932 72.3428C50.6886 71.761 50.4364 71.0928 50.3364 70.3383H52.4159C52.5523 70.9383 52.8295 71.4246 53.2477 71.7974C53.6705 72.1655 54.2159 72.3496 54.8841 72.3496C55.9068 72.3496 56.7045 71.9042 57.2773 71.0133C57.85 70.1178 58.1386 68.8678 58.1432 67.2633H58.0341C57.7977 67.6542 57.5023 67.9905 57.1477 68.2724C56.7977 68.5542 56.4045 68.7724 55.9682 68.9269C55.5318 69.0815 55.0659 69.1587 54.5705 69.1587C53.7659 69.1587 53.0341 68.961 52.375 68.5655C51.7159 68.1701 51.1909 67.6269 50.8 66.936C50.4091 66.2451 50.2136 65.4565 50.2136 64.5701C50.2136 63.6883 50.4136 62.8883 50.8136 62.1701C51.2182 61.4519 51.7818 60.8837 52.5045 60.4655C53.2318 60.0428 54.0841 59.836 55.0614 59.8451ZM55.0682 61.6178C54.5364 61.6178 54.0568 61.7496 53.6295 62.0133C53.2068 62.2724 52.8727 62.6246 52.6273 63.0701C52.3818 63.511 52.2591 64.0019 52.2591 64.5428C52.2591 65.0837 52.3773 65.5746 52.6136 66.0155C52.8545 66.4519 53.1818 66.7996 53.5955 67.0587C54.0136 67.3133 54.4909 67.4405 55.0273 67.4405C55.4273 67.4405 55.8 67.3633 56.1455 67.2087C56.4909 67.0542 56.7932 66.8405 57.0523 66.5678C57.3114 66.2905 57.5136 65.9769 57.6591 65.6269C57.8045 65.2769 57.8773 64.9087 57.8773 64.5224C57.8773 64.0087 57.7545 63.5315 57.5091 63.0905C57.2682 62.6496 56.9364 62.2951 56.5136 62.0269C56.0909 61.7542 55.6091 61.6178 55.0682 61.6178ZM62.6244 73.9996V72.4724L67.3494 67.5769C67.854 67.0451 68.2699 66.5792 68.5972 66.1792C68.929 65.7746 69.1767 65.3905 69.3403 65.0269C69.504 64.6633 69.5858 64.2769 69.5858 63.8678C69.5858 63.4042 69.4767 63.0042 69.2585 62.6678C69.0403 62.3269 68.7426 62.0655 68.3653 61.8837C67.9881 61.6974 67.5631 61.6042 67.0903 61.6042C66.5903 61.6042 66.154 61.7065 65.7813 61.911C65.4085 62.1155 65.1222 62.4042 64.9222 62.7769C64.7222 63.1496 64.6222 63.586 64.6222 64.086H62.6108C62.6108 63.236 62.8063 62.4928 63.1972 61.8565C63.5881 61.2201 64.1244 60.7269 64.8063 60.3769C65.4881 60.0224 66.2631 59.8451 67.1313 59.8451C68.0085 59.8451 68.7813 60.0201 69.4494 60.3701C70.1222 60.7155 70.6472 61.1883 71.0244 61.7883C71.4017 62.3837 71.5903 63.0565 71.5903 63.8065C71.5903 64.3246 71.4926 64.8315 71.2972 65.3269C71.1063 65.8224 70.7722 66.3746 70.2949 66.9837C69.8176 67.5883 69.154 68.3224 68.304 69.186L65.529 72.0905V72.1928H71.8153V73.9996H62.6244ZM79.6972 60.036V73.9996H77.5835V62.1496H77.5017L74.1608 64.3315V62.3133L77.6449 60.036H79.6972Z" fill="white"/>
</svg>
