<svg width="156" height="277" viewBox="0 0 156 277" fill="none" xmlns="http://www.w3.org/2000/svg">
<path d="M42.4521 161.078C47.7123 199.555 52.9822 238.026 58.2619 276.492L62.3759 276.627C59.7459 237.488 56.9542 197.445 42.4521 161.078Z" fill="#455A64"/>
<path d="M86.3546 155.67C75.3055 168.084 70.8682 185.138 68.0765 201.679C64.1094 225.15 63.7421 252.9 64.9322 276.627L70.7066 276.763C68.4207 235.748 73.7302 194.66 86.3546 155.67Z" fill="#455A64"/>
<path d="M45.3458 229.368C44.0822 223.643 42.6276 217.828 39.4686 212.962C35.1636 206.379 28.155 202.221 21.1023 198.982C14.0497 195.743 6.64436 193.152 0.267578 188.662C7.37901 200.609 23.512 203.727 31.7254 214.966C35.8101 220.525 37.5144 227.5 39.0719 234.264C42.5542 249.013 44.714 261.788 48.1963 276.536H52.8687C51.348 260.665 48.8352 244.91 45.3458 229.368Z" fill="#455A64"/>
<path d="M74.9082 276.658C74.9082 276.658 78.8753 230.83 81.8139 222.424C84.7525 214.018 112.493 190.787 112.229 191.842C111.964 192.897 91.4085 218.387 88.4846 223.584C85.5607 228.781 80.4769 276.658 80.4769 276.658H74.9082Z" fill="#455A64"/>
<path d="M101.759 98.8599H94.6328V234.942H101.759V98.8599Z" fill="#E0E0E0"/>
<path d="M101.759 234.957C101.759 234.957 101.759 234.701 101.759 234.234C101.759 233.767 101.759 233.044 101.759 232.155C101.759 230.317 101.759 227.636 101.759 224.261C101.759 217.376 101.686 207.479 101.642 195.216C101.642 170.69 101.539 136.718 101.48 98.7996L101.862 99.1913H94.7507C95.5 98.408 94.9564 98.9955 95.118 98.8448V122.316C95.118 129.969 95.118 137.381 95.118 144.612C95.118 158.984 95.118 172.332 95.118 184.233C95.0298 207.961 94.9564 225.918 94.927 234.882L94.8094 234.776H100.158H101.48H101.936H101.524H100.231H94.8094H94.6919V234.656C94.6919 225.692 94.589 207.735 94.5009 184.007C94.5009 172.106 94.5009 158.758 94.5009 144.386C94.5009 137.2 94.5009 129.743 94.5009 122.09V98.89C94.6772 98.6942 94.1189 99.2365 94.8976 98.4531H102.391V98.89C102.391 136.869 102.273 170.931 102.229 195.532C102.229 207.75 102.141 217.632 102.112 224.487C102.112 227.847 102.112 230.513 102.112 232.291C102.112 233.164 102.112 233.797 102.112 234.309C102.112 234.822 101.759 234.957 101.759 234.957Z" fill="#263238"/>
<path d="M103.625 268.809H92.7666V234.837C92.7666 234.114 93.0468 233.42 93.5455 232.909C94.0443 232.398 94.7207 232.11 95.426 232.11H100.965C101.671 232.11 102.347 232.398 102.846 232.909C103.345 233.42 103.625 234.114 103.625 234.837V268.809Z" fill="#E0E0E0"/>
<path d="M103.625 268.809C103.608 268.472 103.608 268.135 103.625 267.799C103.625 267.091 103.625 266.172 103.625 265.042C103.625 262.572 103.625 259.167 103.493 255.009C103.361 250.851 103.493 245.789 103.376 240.26C103.376 238.874 103.376 237.458 103.376 236.012V234.927C103.383 234.603 103.328 234.281 103.214 233.978C103.096 233.677 102.919 233.404 102.695 233.176C102.47 232.948 102.201 232.77 101.906 232.653C101.223 232.491 100.519 232.44 99.8199 232.502H97.5424C96.7931 232.502 95.9556 232.502 95.265 232.502C94.9325 232.545 94.613 232.661 94.3288 232.843C94.0446 233.025 93.8025 233.269 93.6194 233.556C93.4219 233.88 93.3011 234.246 93.2667 234.626C93.2667 235.003 93.2667 235.5 93.2667 235.922V238.543C93.2667 240.291 93.2667 241.993 93.2667 243.665C93.2667 247.01 93.2667 250.203 93.2667 253.231C93.2667 259.257 93.2668 264.53 93.1786 268.778L92.9288 268.522L100.848 268.658L103.008 268.733H103.787C103.557 268.752 103.326 268.752 103.096 268.733H100.995L92.9288 268.869H92.679V268.613C92.679 264.364 92.679 259.077 92.5762 253.066C92.5762 250.053 92.5762 246.864 92.5762 243.499V235.982C92.5762 235.53 92.5762 235.123 92.5762 234.626C92.6263 233.908 92.9196 233.231 93.4051 232.711C93.8907 232.191 94.5382 231.861 95.2356 231.779C96.1025 231.779 96.8078 231.779 97.6012 231.779H100.995C101.416 231.761 101.837 231.833 102.23 231.99C102.623 232.137 102.982 232.37 103.281 232.671C103.58 232.972 103.813 233.336 103.963 233.737C104.111 234.131 104.181 234.551 104.169 234.973V235.982C104.169 237.488 104.169 238.905 104.169 240.306C104.169 245.895 104.169 250.941 104.066 255.22C103.963 259.498 103.963 262.752 103.934 265.193C103.934 266.293 103.934 267.182 103.934 267.875C103.876 268.2 103.772 268.514 103.625 268.809Z" fill="#263238"/>
<path d="M69.405 4.20655L43.9125 47.4884C43.236 48.6221 42.8779 49.9255 42.8779 51.2546C42.8779 52.5838 43.236 53.8871 43.9125 55.0209L69.3903 98.3177C70.022 99.3884 70.9124 100.274 71.9753 100.889C73.0383 101.504 74.238 101.827 75.4585 101.828H122.476C123.695 101.826 124.892 101.502 125.952 100.887C127.013 100.272 127.9 99.3873 128.53 98.3177L154.11 54.8853C154.762 53.7847 155.114 52.5259 155.132 51.2388C155.151 49.9517 154.833 48.683 154.213 47.5637L130.455 4.38732C129.841 3.26667 128.947 2.33399 127.865 1.68525C126.783 1.03651 125.552 0.695189 124.298 0.696423H75.4732C74.2522 0.694178 73.0514 1.01634 71.9879 1.6315C70.9244 2.24667 70.0345 3.13383 69.405 4.20655Z" fill="#FF725E"/>
<path d="M120.126 98.4533H76.5608C75.3789 98.4402 74.2196 98.1195 73.1916 97.5214C72.1636 96.9232 71.3006 96.0672 70.6836 95.0335L47.0719 54.9154C46.4155 53.8074 46.0684 52.5359 46.0684 51.2395C46.0684 49.9431 46.4155 48.6716 47.0719 47.5636L70.6836 7.46058C71.2978 6.42315 72.1598 5.56334 73.1881 4.96236C74.2165 4.36137 75.3772 4.03903 76.5608 4.02576H121.786C123.014 4.02744 124.22 4.36295 125.281 4.99808C126.342 5.63321 127.22 6.54525 127.825 7.64135L149.864 47.639C150.47 48.7359 150.78 49.9784 150.762 51.2388C150.744 52.4991 150.398 53.7317 149.762 54.8099L126.076 95.0335C125.454 96.079 124.579 96.9426 123.537 97.5415C122.495 98.1404 121.32 98.4544 120.126 98.4533ZM76.5608 4.77901C75.4999 4.77787 74.4561 5.05392 73.5281 5.58108C72.6 6.10825 71.8183 6.86915 71.2566 7.79201L47.6449 47.9102C47.0617 48.9013 46.7535 50.0368 46.7535 51.1943C46.7535 52.3518 47.0617 53.4874 47.6449 54.4785L71.2566 94.5966C71.8183 95.5195 72.6 96.2804 73.5281 96.8076C74.4561 97.3347 75.4999 97.6108 76.5608 97.6096H120.126C121.185 97.6111 122.226 97.335 123.152 96.8077C124.078 96.2804 124.857 95.5193 125.415 94.5966L149.115 54.3731C149.677 53.4077 149.98 52.3077 149.996 51.1838C150.011 50.0599 149.738 48.9517 149.203 47.9704L127.164 7.95775C126.624 6.97844 125.841 6.16373 124.893 5.59722C123.946 5.03071 122.868 4.73273 121.771 4.73381L76.5608 4.77901Z" fill="white"/>
<path d="M77.3442 59.6078V58.0805L82.0692 53.1851C82.5737 52.6532 82.9896 52.1873 83.3169 51.7873C83.6487 51.3828 83.8964 50.9987 84.0601 50.6351C84.2237 50.2714 84.3055 49.8851 84.3055 49.476C84.3055 49.0123 84.1964 48.6123 83.9782 48.276C83.7601 47.9351 83.4623 47.6737 83.0851 47.4919C82.7078 47.3055 82.2828 47.2123 81.8101 47.2123C81.3101 47.2123 80.8737 47.3146 80.501 47.5192C80.1282 47.7237 79.8419 48.0123 79.6419 48.3851C79.4419 48.7578 79.3419 49.1942 79.3419 49.6942H77.3305C77.3305 48.8442 77.526 48.101 77.9169 47.4646C78.3078 46.8282 78.8442 46.3351 79.526 45.9851C80.2078 45.6305 80.9828 45.4532 81.851 45.4532C82.7282 45.4532 83.501 45.6282 84.1692 45.9782C84.8419 46.3237 85.3669 46.7964 85.7442 47.3964C86.1214 47.9919 86.3101 48.6646 86.3101 49.4146C86.3101 49.9328 86.2123 50.4396 86.0169 50.9351C85.826 51.4305 85.4919 51.9828 85.0146 52.5919C84.5373 53.1964 83.8737 53.9305 83.0237 54.7942L80.2487 57.6987V57.801H86.5351V59.6078H77.3442ZM93.9805 59.8396C92.9033 59.8351 91.9828 59.551 91.2192 58.9873C90.4555 58.4237 89.8714 57.6032 89.4669 56.526C89.0623 55.4487 88.8601 54.151 88.8601 52.6328C88.8601 51.1192 89.0623 49.826 89.4669 48.7532C89.876 47.6805 90.4623 46.8623 91.226 46.2987C91.9942 45.7351 92.9123 45.4532 93.9805 45.4532C95.0487 45.4532 95.9646 45.7373 96.7283 46.3055C97.4919 46.8692 98.076 47.6873 98.4805 48.7601C98.8896 49.8282 99.0942 51.1192 99.0942 52.6328C99.0942 54.1555 98.8919 55.4555 98.4873 56.5328C98.0828 57.6055 97.4987 58.426 96.7351 58.9942C95.9714 59.5578 95.0533 59.8396 93.9805 59.8396ZM93.9805 58.0192C94.926 58.0192 95.6646 57.5578 96.1964 56.6351C96.7328 55.7123 97.001 54.3782 97.001 52.6328C97.001 51.4737 96.8783 50.4942 96.6328 49.6942C96.3919 48.8896 96.0442 48.2805 95.5896 47.8669C95.1396 47.4487 94.6033 47.2396 93.9805 47.2396C93.0396 47.2396 92.301 47.7032 91.7646 48.6305C91.2283 49.5578 90.9578 50.8919 90.9532 52.6328C90.9532 53.7964 91.0737 54.7805 91.3146 55.5851C91.5601 56.3851 91.9078 56.9919 92.3578 57.4055C92.8078 57.8146 93.3487 58.0192 93.9805 58.0192ZM106.374 59.8396C105.297 59.8351 104.377 59.551 103.613 58.9873C102.849 58.4237 102.265 57.6032 101.861 56.526C101.456 55.4487 101.254 54.151 101.254 52.6328C101.254 51.1192 101.456 49.826 101.861 48.7532C102.27 47.6805 102.856 46.8623 103.62 46.2987C104.388 45.7351 105.306 45.4532 106.374 45.4532C107.442 45.4532 108.358 45.7373 109.122 46.3055C109.886 46.8692 110.47 47.6873 110.874 48.7601C111.283 49.8282 111.488 51.1192 111.488 52.6328C111.488 54.1555 111.286 55.4555 110.881 56.5328C110.477 57.6055 109.892 58.426 109.129 58.9942C108.365 59.5578 107.447 59.8396 106.374 59.8396ZM106.374 58.0192C107.32 58.0192 108.058 57.5578 108.59 56.6351C109.127 55.7123 109.395 54.3782 109.395 52.6328C109.395 51.4737 109.272 50.4942 109.027 49.6942C108.786 48.8896 108.438 48.2805 107.983 47.8669C107.533 47.4487 106.997 47.2396 106.374 47.2396C105.433 47.2396 104.695 47.7032 104.158 48.6305C103.622 49.5578 103.352 50.8919 103.347 52.6328C103.347 53.7964 103.467 54.7805 103.708 55.5851C103.954 56.3851 104.302 56.9919 104.752 57.4055C105.202 57.8146 105.742 58.0192 106.374 58.0192ZM118.768 59.8396C117.691 59.8351 116.77 59.551 116.007 58.9873C115.243 58.4237 114.659 57.6032 114.254 56.526C113.85 55.4487 113.648 54.151 113.648 52.6328C113.648 51.1192 113.85 49.826 114.254 48.7532C114.663 47.6805 115.25 46.8623 116.013 46.2987C116.782 45.7351 117.7 45.4532 118.768 45.4532C119.836 45.4532 120.752 45.7373 121.516 46.3055C122.279 46.8692 122.863 47.6873 123.268 48.7601C123.677 49.8282 123.882 51.1192 123.882 52.6328C123.882 54.1555 123.679 55.4555 123.275 56.5328C122.87 57.6055 122.286 58.426 121.523 58.9942C120.759 59.5578 119.841 59.8396 118.768 59.8396ZM118.768 58.0192C119.713 58.0192 120.452 57.5578 120.984 56.6351C121.52 55.7123 121.788 54.3782 121.788 52.6328C121.788 51.4737 121.666 50.4942 121.42 49.6942C121.179 48.8896 120.832 48.2805 120.377 47.8669C119.927 47.4487 119.391 47.2396 118.768 47.2396C117.827 47.2396 117.088 47.7032 116.552 48.6305C116.016 49.5578 115.745 50.8919 115.741 52.6328C115.741 53.7964 115.861 54.7805 116.102 55.5851C116.348 56.3851 116.695 56.9919 117.145 57.4055C117.595 57.8146 118.136 58.0192 118.768 58.0192Z" fill="white"/>
</svg>
