<svg width="155" height="277" viewBox="0 0 155 277" fill="none" xmlns="http://www.w3.org/2000/svg">
<path d="M42.1846 160.445C47.4447 198.921 52.7146 237.392 57.9943 275.858L62.1083 275.994C59.4783 236.855 56.6866 196.812 42.1846 160.445Z" fill="#455A64"/>
<path d="M86.0871 155.037C75.0379 167.451 70.6006 184.504 67.8089 201.046C63.8418 224.517 63.4745 252.267 64.6646 275.994L70.439 276.13C68.1531 235.115 73.4626 194.027 86.0871 155.037Z" fill="#455A64"/>
<path d="M45.0783 228.735C43.8146 223.01 42.36 217.195 39.201 212.329C34.896 205.746 27.8874 201.588 20.8347 198.349C13.7821 195.11 6.37678 192.518 0 188.029C7.11143 199.976 23.2444 203.094 31.4578 214.333C35.5425 219.892 37.2469 226.867 38.8043 233.631C42.2866 248.379 44.4465 261.155 47.9287 275.903H52.6011C51.0804 260.032 48.5676 244.276 45.0783 228.735Z" fill="#455A64"/>
<path d="M74.6406 276.025C74.6406 276.025 78.6077 230.197 81.5463 221.791C84.485 213.385 112.225 190.154 111.961 191.209C111.696 192.263 91.1409 217.753 88.217 222.951C85.2931 228.148 80.2093 276.025 80.2093 276.025H74.6406Z" fill="#455A64"/>
<path d="M101.491 98.2267H94.3652V234.309H101.491V98.2267Z" fill="#E0E0E0"/>
<path d="M101.492 234.324C101.492 234.324 101.492 234.068 101.492 233.601C101.492 233.134 101.492 232.411 101.492 231.522C101.492 229.684 101.492 227.002 101.492 223.628C101.492 216.743 101.418 206.845 101.374 194.583C101.374 170.057 101.271 136.085 101.212 98.1665L101.595 98.5582H94.4831C95.2324 97.7748 94.6888 98.3623 94.8504 98.2117V121.683C94.8504 129.336 94.8504 136.748 94.8504 143.979C94.8504 158.351 94.8504 171.699 94.8504 183.6C94.7623 207.328 94.6888 225.285 94.6594 234.249L94.5418 234.143H99.8901H101.212H101.668H101.257H99.9636H94.5418H94.4243V234.023C94.4243 225.059 94.3214 207.102 94.2333 183.374C94.2333 171.473 94.2333 158.125 94.2333 143.753C94.2333 136.567 94.2333 129.11 94.2333 121.457V98.2568C94.4096 98.061 93.8513 98.6033 94.63 97.8199H102.123V98.2568C102.123 136.236 102.006 170.298 101.962 194.899C101.962 207.117 101.874 216.999 101.844 223.854C101.844 227.213 101.844 229.88 101.844 231.658C101.844 232.531 101.844 233.164 101.844 233.676C101.844 234.189 101.492 234.324 101.492 234.324Z" fill="#263238"/>
<path d="M103.357 268.175H92.499V234.204C92.499 233.481 92.7792 232.787 93.278 232.276C93.7767 231.764 94.4531 231.477 95.1585 231.477H100.698C101.403 231.477 102.08 231.764 102.578 232.276C103.077 232.787 103.357 233.481 103.357 234.204V268.175Z" fill="#E0E0E0"/>
<path d="M103.358 268.175C103.34 267.839 103.34 267.502 103.358 267.166C103.358 266.458 103.358 265.539 103.358 264.409C103.358 261.939 103.358 258.534 103.226 254.376C103.093 250.218 103.226 245.156 103.108 239.627C103.108 238.241 103.108 236.825 103.108 235.379V234.294C103.115 233.97 103.06 233.648 102.946 233.345C102.829 233.044 102.652 232.771 102.427 232.543C102.202 232.315 101.934 232.137 101.639 232.019C100.955 231.858 100.251 231.807 99.5523 231.869H97.2748C96.5255 231.869 95.688 231.869 94.9974 231.869C94.6649 231.911 94.3454 232.028 94.0612 232.21C93.777 232.392 93.5349 232.636 93.3518 232.923C93.1543 233.247 93.0336 233.613 92.9992 233.993C92.9992 234.37 92.9992 234.867 92.9992 235.288V237.91C92.9992 239.657 92.9992 241.36 92.9992 243.032C92.9992 246.376 92.9992 249.57 92.9992 252.598C92.9992 258.624 92.9992 263.897 92.911 268.145L92.6612 267.889L100.581 268.025L102.741 268.1H103.519C103.29 268.119 103.059 268.119 102.829 268.1H100.728L92.6612 268.236H92.4115V267.98C92.4115 263.731 92.4114 258.443 92.3086 252.432C92.3086 249.419 92.3086 246.231 92.3086 242.866V235.349C92.3086 234.897 92.3086 234.49 92.3086 233.993C92.3588 233.275 92.652 232.597 93.1376 232.078C93.6231 231.558 94.2706 231.228 94.968 231.146C95.8349 231.146 96.5402 231.146 97.3336 231.146H100.728C101.149 231.128 101.569 231.2 101.962 231.357C102.356 231.504 102.714 231.736 103.013 232.038C103.312 232.339 103.545 232.703 103.696 233.104C103.843 233.498 103.913 233.918 103.901 234.339V235.349C103.901 236.855 103.901 238.271 103.901 239.672C103.901 245.262 103.901 250.308 103.799 254.587C103.696 258.865 103.696 262.119 103.666 264.56C103.666 265.66 103.666 266.548 103.666 267.241C103.608 267.566 103.504 267.881 103.358 268.175Z" fill="#263238"/>
<path d="M69.1374 3.57337L43.645 46.8552C42.9684 47.989 42.6104 49.2923 42.6104 50.6214C42.6104 51.9506 42.9684 53.2539 43.645 54.3877L69.1227 97.6845C69.7544 98.7553 70.6448 99.6409 71.7078 100.256C72.7708 100.871 73.9704 101.194 75.1909 101.195H122.209C123.427 101.193 124.624 100.869 125.685 100.254C126.745 99.6391 127.633 98.7541 128.262 97.6845L153.843 54.2521C154.494 53.1516 154.847 51.8927 154.865 50.6056C154.883 49.3185 154.566 48.0498 153.946 46.9305L130.187 3.75415C129.573 2.63349 128.679 1.70081 127.597 1.05207C126.515 0.403332 125.284 0.0620104 124.031 0.0632441H75.2056C73.9846 0.0609993 72.7838 0.38316 71.7203 0.998325C70.6568 1.61349 69.767 2.50065 69.1374 3.57337Z" fill="#FF725E"/>
<path d="M119.858 97.8201H76.2932C75.1113 97.807 73.952 97.4863 72.924 96.8882C71.8961 96.29 71.0331 95.434 70.416 94.4003L46.8043 54.2822C46.1479 53.1742 45.8008 51.9027 45.8008 50.6063C45.8008 49.31 46.1479 48.0385 46.8043 46.9305L70.416 6.8274C71.0303 5.78997 71.8922 4.93017 72.9206 4.32918C73.9489 3.72819 75.1097 3.40585 76.2932 3.39258H121.518C122.747 3.39426 123.953 3.72977 125.014 4.3649C126.074 5.00003 126.952 5.91207 127.557 7.00817L149.597 47.0058C150.202 48.1027 150.512 49.3453 150.494 50.6056C150.476 51.8659 150.131 53.0986 149.494 54.1767L125.809 94.4003C125.186 95.4458 124.312 96.3095 123.27 96.9084C122.228 97.5073 121.053 97.8212 119.858 97.8201ZM76.2932 4.14583C75.2323 4.14469 74.1886 4.42074 73.2605 4.94791C72.3325 5.47507 71.5507 6.23597 70.989 7.15883L47.3773 47.277C46.7941 48.2681 46.4859 49.4036 46.4859 50.5611C46.4859 51.7187 46.7941 52.8542 47.3773 53.8453L70.989 93.9635C71.5507 94.8863 72.3325 95.6472 73.2605 96.1744C74.1886 96.7015 75.2323 96.9776 76.2932 96.9765H119.858C120.917 96.9779 121.959 96.7018 122.885 96.1745C123.81 95.6472 124.589 94.8861 125.148 93.9635L148.847 53.7399C149.409 52.7745 149.713 51.6746 149.728 50.5507C149.744 49.4267 149.47 48.3185 148.936 47.3373L126.896 7.32457C126.357 6.34526 125.573 5.53056 124.626 4.96404C123.678 4.39753 122.601 4.09955 121.504 4.10064L76.2932 4.14583Z" fill="white"/>
<path d="M77.0766 58.9746V57.4473L81.8016 52.5519C82.3061 52.0201 82.722 51.5542 83.0493 51.1542C83.3811 50.7496 83.6289 50.3655 83.7925 50.0019C83.9561 49.6382 84.0379 49.2519 84.0379 48.8428C84.0379 48.3792 83.9289 47.9792 83.7107 47.6428C83.4925 47.3019 83.1948 47.0405 82.8175 46.8587C82.4402 46.6723 82.0152 46.5792 81.5425 46.5792C81.0425 46.5792 80.6061 46.6814 80.2334 46.886C79.8607 47.0905 79.5743 47.3792 79.3743 47.7519C79.1743 48.1246 79.0743 48.561 79.0743 49.061H77.0629C77.0629 48.211 77.2584 47.4678 77.6493 46.8314C78.0402 46.1951 78.5766 45.7019 79.2584 45.3519C79.9402 44.9973 80.7152 44.8201 81.5834 44.8201C82.4607 44.8201 83.2334 44.9951 83.9016 45.3451C84.5743 45.6905 85.0993 46.1632 85.4766 46.7632C85.8539 47.3587 86.0425 48.0314 86.0425 48.7814C86.0425 49.2996 85.9448 49.8064 85.7493 50.3019C85.5584 50.7973 85.2243 51.3496 84.747 51.9587C84.2698 52.5632 83.6061 53.2973 82.7561 54.161L79.9811 57.0655V57.1678H86.2675V58.9746H77.0766ZM93.7129 59.2064C92.6357 59.2019 91.7152 58.9178 90.9516 58.3542C90.1879 57.7905 89.6039 56.9701 89.1993 55.8928C88.7948 54.8155 88.5925 53.5178 88.5925 51.9996C88.5925 50.486 88.7948 49.1928 89.1993 48.1201C89.6084 47.0473 90.1948 46.2292 90.9584 45.6655C91.7266 45.1019 92.6448 44.8201 93.7129 44.8201C94.7811 44.8201 95.697 45.1042 96.4607 45.6723C97.2243 46.236 97.8084 47.0542 98.2129 48.1269C98.622 49.1951 98.8266 50.486 98.8266 51.9996C98.8266 53.5223 98.6243 54.8223 98.2198 55.8996C97.8152 56.9723 97.2311 57.7928 96.4675 58.361C95.7039 58.9246 94.7857 59.2064 93.7129 59.2064ZM93.7129 57.386C94.6584 57.386 95.397 56.9246 95.9289 56.0019C96.4652 55.0792 96.7334 53.7451 96.7334 51.9996C96.7334 50.8405 96.6107 49.861 96.3652 49.061C96.1243 48.2564 95.7766 47.6473 95.322 47.2337C94.872 46.8155 94.3357 46.6064 93.7129 46.6064C92.772 46.6064 92.0334 47.0701 91.497 47.9973C90.9607 48.9246 90.6902 50.2587 90.6857 51.9996C90.6857 53.1632 90.8061 54.1473 91.047 54.9519C91.2925 55.7519 91.6402 56.3587 92.0902 56.7723C92.5402 57.1814 93.0811 57.386 93.7129 57.386ZM106.107 59.2064C105.029 59.2019 104.109 58.9178 103.345 58.3542C102.582 57.7905 101.998 56.9701 101.593 55.8928C101.189 54.8155 100.986 53.5178 100.986 51.9996C100.986 50.486 101.189 49.1928 101.593 48.1201C102.002 47.0473 102.589 46.2292 103.352 45.6655C104.12 45.1019 105.039 44.8201 106.107 44.8201C107.175 44.8201 108.091 45.1042 108.854 45.6723C109.618 46.236 110.202 47.0542 110.607 48.1269C111.016 49.1951 111.22 50.486 111.22 51.9996C111.22 53.5223 111.018 54.8223 110.614 55.8996C110.209 56.9723 109.625 57.7928 108.861 58.361C108.098 58.9246 107.179 59.2064 106.107 59.2064ZM106.107 57.386C107.052 57.386 107.791 56.9246 108.323 56.0019C108.859 55.0792 109.127 53.7451 109.127 51.9996C109.127 50.8405 109.004 49.861 108.759 49.061C108.518 48.2564 108.17 47.6473 107.716 47.2337C107.266 46.8155 106.729 46.6064 106.107 46.6064C105.166 46.6064 104.427 47.0701 103.891 47.9973C103.354 48.9246 103.084 50.2587 103.079 51.9996C103.079 53.1632 103.2 54.1473 103.441 54.9519C103.686 55.7519 104.034 56.3587 104.484 56.7723C104.934 57.1814 105.475 57.386 106.107 57.386ZM118.5 59.1655C117.564 59.1655 116.728 59.0042 115.991 58.6814C115.26 58.3587 114.68 57.911 114.253 57.3382C113.83 56.761 113.603 56.0928 113.571 55.3337H115.712C115.739 55.7473 115.878 56.1064 116.128 56.411C116.382 56.711 116.714 56.9428 117.123 57.1064C117.532 57.2701 117.987 57.3519 118.487 57.3519C119.037 57.3519 119.523 57.2564 119.946 57.0655C120.373 56.8746 120.707 56.6087 120.948 56.2678C121.189 55.9223 121.31 55.5246 121.31 55.0746C121.31 54.6064 121.189 54.1951 120.948 53.8405C120.712 53.4814 120.364 53.1996 119.905 52.9951C119.45 52.7905 118.9 52.6882 118.255 52.6882H117.075V50.9701H118.255C118.773 50.9701 119.228 50.8769 119.619 50.6905C120.014 50.5042 120.323 50.2451 120.546 49.9132C120.769 49.5769 120.88 49.1837 120.88 48.7337C120.88 48.3019 120.782 47.9269 120.587 47.6087C120.396 47.286 120.123 47.0337 119.769 46.8519C119.419 46.6701 119.005 46.5792 118.528 46.5792C118.073 46.5792 117.648 46.6632 117.253 46.8314C116.862 46.9951 116.544 47.2314 116.298 47.5405C116.053 47.8451 115.921 48.211 115.903 48.6382H113.864C113.887 47.8837 114.11 47.2201 114.532 46.6473C114.96 46.0746 115.523 45.6269 116.223 45.3042C116.923 44.9814 117.7 44.8201 118.555 44.8201C119.45 44.8201 120.223 44.9951 120.873 45.3451C121.528 45.6905 122.032 46.1519 122.387 46.7292C122.746 47.3064 122.923 47.9382 122.919 48.6246C122.923 49.4064 122.705 50.0701 122.264 50.6155C121.828 51.161 121.246 51.5269 120.519 51.7132V51.8223C121.446 51.9632 122.164 52.3314 122.673 52.9269C123.187 53.5223 123.441 54.261 123.437 55.1428C123.441 55.911 123.228 56.5996 122.796 57.2087C122.369 57.8178 121.785 58.2973 121.044 58.6473C120.303 58.9928 119.455 59.1655 118.5 59.1655Z" fill="white"/>
</svg>
