<svg width="145" height="291" viewBox="0 0 145 291" fill="none" xmlns="http://www.w3.org/2000/svg">
<path d="M40.5624 208.513C41.9874 208.805 43.3381 209.389 44.5337 210.229C45.7294 211.07 46.7455 212.15 47.5212 213.405C49.0626 215.928 50.0129 218.784 50.2985 221.753C51.0174 227.447 49.2897 233.849 47.083 239.122C41.5385 236.236 38.825 229.383 37.5904 225.848C35.7342 220.284 35.6662 208.875 40.5905 208.445" fill="#FF725E"/>
<path d="M54.5368 246.976C53.8464 245.479 53.5565 243.819 53.6964 242.164C53.8364 240.509 54.4013 238.919 55.3337 237.554C56.2836 236.204 57.4843 235.057 58.866 234.182C60.2478 233.307 61.7834 232.72 63.3838 232.455C64.1092 232.257 64.8668 232.224 65.6036 232.358C66.3404 232.492 67.0385 232.79 67.6489 233.231C68.1405 233.739 68.4884 234.374 68.6557 235.07C68.8231 235.766 68.8038 236.497 68.5999 237.185C68.1914 238.549 67.4421 239.781 66.4264 240.76C63.0969 244.304 59.2439 247.141 54.4541 246.877" fill="#FF725E"/>
<path d="M52.826 265.489C52.7598 265.099 52.7241 264.704 52.7194 264.308C52.667 263.476 52.6122 262.388 52.5372 261.094C52.218 257.539 52.4671 253.95 53.2747 250.469C54.1587 246.964 55.935 243.757 58.4214 241.176C59.1762 240.427 60.0058 239.761 60.8963 239.19C61.2024 238.99 61.484 238.872 61.651 238.768C61.7426 238.723 61.8417 238.698 61.9427 238.692C60.7471 239.499 59.6293 240.421 58.6043 241.446C56.2439 244.033 54.5591 247.187 53.7079 250.613C52.9141 254.055 52.6259 257.596 52.8529 261.118C52.8859 262.483 52.913 263.579 52.9206 264.347C52.9248 264.729 52.8932 265.112 52.826 265.489Z" fill="#263238"/>
<path d="M41.3439 217.131C41.3986 217.293 41.4392 217.46 41.4651 217.63L41.8961 219.034C42.1974 220.275 42.7607 222.039 43.3716 224.245C44.5932 228.658 46.2022 234.789 47.8225 241.584C49.4429 248.379 50.7839 254.578 51.6811 259.074C52.1227 261.324 52.4744 263.142 52.7052 264.401C52.8472 264.986 52.9615 265.456 52.9528 265.852C53.0076 266.015 53.0481 266.182 53.074 266.351C53.0124 266.191 52.9716 266.023 52.9528 265.852C52.8628 265.481 52.7485 265.011 52.6065 264.426C52.2948 263.143 51.9289 261.328 51.4555 259.132C50.4736 254.658 49.1078 248.48 47.4875 241.685C45.8671 234.89 44.3462 228.752 43.1528 224.332C42.6229 222.15 42.1865 220.353 41.8008 219.074C41.6588 218.489 41.5445 218.019 41.4545 217.648C41.3949 217.481 41.3578 217.308 41.3439 217.131Z" fill="#263238"/>
<path d="M47.5613 252.281C46.2093 249.08 44.1287 246.263 41.4927 244.062C38.8567 241.861 35.7415 240.342 32.4062 239.629C30.7168 239.284 28.5999 239.305 27.6482 240.864C26.6966 242.422 27.455 244.351 28.4681 245.807C30.6021 248.803 33.5596 251.076 36.9664 252.338C40.3733 253.601 44.0765 253.798 47.6075 252.902" fill="#FF725E"/>
<path d="M34.3643 244.699C34.7281 244.718 35.0887 244.776 35.4398 244.873C35.8567 244.945 36.2672 245.051 36.6675 245.189C37.2133 245.333 37.7494 245.512 38.2729 245.724C38.9121 245.962 39.5391 246.233 40.1514 246.536C40.8307 246.843 41.5027 247.243 42.2233 247.66C43.7591 248.634 45.1803 249.786 46.4596 251.092C47.7226 252.406 48.8319 253.867 49.7654 255.445C50.17 256.133 50.5336 256.846 50.8544 257.579C51.1433 258.212 51.3936 258.864 51.6039 259.529C51.8377 260.133 51.891 260.723 52.0907 261.185C52.2155 261.6 52.3171 262.023 52.3949 262.45C52.4732 262.815 52.5229 263.186 52.5434 263.56C52.4461 263.585 52.1709 262.01 51.3745 259.619C51.1488 258.971 50.8833 258.339 50.5796 257.726C50.2569 257.008 49.8921 256.31 49.487 255.638C48.5566 254.098 47.4604 252.67 46.2189 251.381C44.9618 250.107 43.5714 248.978 42.0726 248.016C41.4205 247.594 40.7464 247.21 40.053 246.863C39.4544 246.545 38.8389 246.261 38.2093 246.013C35.9252 245.049 34.3813 244.77 34.3643 244.699Z" fill="#263238"/>
<path d="M81.1074 120.64L74.0811 120.13L65.1401 252.552L72.1664 253.063L81.1074 120.64Z" fill="#E0E0E0"/>
<path d="M72.1623 253.076C72.1623 253.076 72.1791 252.827 72.2098 252.373C72.2405 251.918 72.288 251.214 72.3463 250.35C72.467 248.561 72.6431 245.952 72.8647 242.668C73.3168 235.968 73.9667 226.337 74.6707 214.397C76.2812 190.531 78.4107 157.465 80.8427 120.563L81.1934 120.971L74.1716 120.461C74.9614 119.752 74.3871 120.285 74.5708 120.151L73.7932 131.674C73.5347 135.505 73.2801 139.277 73.0295 142.991C72.5269 150.438 72.0402 157.651 71.5654 164.687C70.6216 178.673 69.7451 191.661 68.9636 203.242C67.3186 226.325 66.067 243.794 65.4495 252.515L65.3405 252.404L70.6106 252.787L71.9136 252.881L72.3624 252.914L71.957 252.885L70.6685 252.791L65.3405 252.404L65.2248 252.395L65.2327 252.278C65.8213 243.555 66.8992 226.074 68.3704 202.978C69.1519 191.397 70.0284 178.409 70.9722 164.423C71.444 157.43 71.9337 150.174 72.4363 142.727L73.9598 120.151C74.1463 119.973 73.5461 120.46 74.3649 119.753L81.7631 120.291L81.7344 120.716C79.2405 157.673 76.8879 190.81 75.229 214.746C74.4267 226.636 73.6909 236.246 73.2118 242.914C72.9912 246.183 72.8161 248.778 72.6994 250.508C72.642 251.358 72.6004 251.974 72.5668 252.472C72.5332 252.971 72.1623 253.076 72.1623 253.076Z" fill="#263238"/>
<path d="M71.686 286.152L61.0614 285.372L63.2763 252.33C63.3235 251.627 63.6425 250.972 64.1632 250.511C64.6839 250.049 65.3636 249.818 66.0528 249.869L71.48 250.267C72.1692 250.317 72.8114 250.645 73.2655 251.178C73.7195 251.711 73.9481 252.406 73.9009 253.11L71.686 286.152Z" fill="#E0E0E0"/>
<path d="M71.6849 286.15C71.6849 286.15 71.7084 285.799 71.7507 285.169C71.7929 284.539 71.8567 283.586 71.9304 282.487C72.0915 280.084 72.2416 276.768 72.4696 272.72C72.6976 268.673 73.0706 263.753 73.3162 258.367C73.4066 257.019 73.4989 255.642 73.5932 254.235L73.6639 253.18C73.6922 252.865 73.6596 252.548 73.5679 252.246C73.4718 251.942 73.315 251.663 73.1075 251.424C72.8999 251.186 72.6461 250.994 72.3623 250.861C71.7052 250.654 71.0206 250.554 70.3337 250.565L68.1086 250.402C67.3909 250.349 66.5726 250.289 65.8979 250.24C65.5698 250.255 65.2494 250.345 64.9596 250.502C64.6698 250.659 64.4176 250.879 64.2213 251.148C64.0073 251.448 63.8655 251.796 63.8071 252.163C63.7825 252.529 63.7501 253.012 63.7226 253.423L63.2178 260.954C62.9998 264.207 62.7916 267.313 62.5942 270.258C62.2014 276.119 61.8576 281.248 61.4802 285.372L61.2529 285.105L68.9959 285.806L71.1012 286.034L71.862 286.09C71.6363 286.091 71.4106 286.075 71.1873 286.04L69.1345 285.89L61.2303 285.442L61.0006 285.425L61.0173 285.176C61.2943 281.044 61.639 275.901 61.9303 270.048C62.1268 267.117 62.336 263.996 62.554 260.743L62.8879 255.762C62.9439 254.926 63.0008 254.076 63.0588 253.212C63.0882 252.772 63.1148 252.377 63.1472 251.893C63.2093 251.375 63.4013 250.882 63.7048 250.462C63.971 250.107 64.3094 249.816 64.6969 249.608C65.0844 249.4 65.5117 249.28 65.9494 249.257C66.7963 249.319 67.4854 249.37 68.2462 249.426L71.5766 249.67C71.9848 249.681 72.3863 249.781 72.7544 249.962C73.1293 250.137 73.4647 250.39 73.7392 250.704C74.0137 251.018 74.2213 251.387 74.3487 251.787C74.4603 252.182 74.501 252.594 74.4691 253.004L74.3847 254.264C74.2864 255.729 74.1941 257.106 74.1028 258.469C73.7384 263.905 73.4095 268.814 73.0157 272.967C72.622 277.119 72.4385 280.286 72.2507 282.658C72.179 283.728 72.1211 284.592 72.0759 285.266C71.977 285.575 71.846 285.871 71.6849 286.15Z" fill="#263238"/>
<path d="M136.975 67.6641L83.4417 7.97102C81.6703 5.99584 78.6779 5.86166 76.7579 7.67131L18.7314 62.3619C16.8114 64.1715 16.6909 67.2397 18.4622 69.2149L71.9951 128.908C73.7665 130.883 76.759 131.017 78.679 129.208L136.705 74.5171C138.625 72.7075 138.746 69.6393 136.975 67.6641Z" fill="#FF725E"/>
<path d="M75.352 123.248C73.6514 123.13 72.0592 122.343 70.9087 121.054L24.3101 69.3352C23.9151 68.8959 23.6084 68.3816 23.4075 67.8218C23.2066 67.262 23.1154 66.6675 23.1393 66.0724C23.1631 65.4773 23.3014 64.8933 23.5463 64.3536C23.7912 63.814 24.1378 63.3294 24.5665 62.9274L75.0713 15.4758C75.7145 14.8722 76.4681 14.4044 77.2892 14.0992C78.1102 13.7939 78.9827 13.6573 79.8566 13.6969C80.7305 13.7365 81.5888 13.9517 82.3825 14.3302C83.1762 14.7087 83.8897 15.243 84.4823 15.9027L129.563 66.0101C130.155 66.6697 130.616 67.4417 130.917 68.2821C131.219 69.1225 131.355 70.0148 131.319 70.908C131.284 71.8012 131.076 72.6779 130.709 73.4879C130.341 74.298 129.821 75.0255 129.178 75.6291L80.3158 121.54C79.6457 122.153 78.8603 122.621 78.0071 122.915C77.1539 123.209 76.2506 123.322 75.352 123.248ZM71.4307 120.563C71.9682 121.156 72.6146 121.636 73.3327 121.974C74.0509 122.311 74.8267 122.501 75.6158 122.532C76.3968 122.57 77.1771 122.45 77.9115 122.179C78.6458 121.907 79.3199 121.489 79.8948 120.95L128.757 75.0393C129.914 73.9475 130.599 72.4296 130.661 70.8186C130.723 69.2076 130.157 67.6349 129.088 66.4458L83.9479 16.3634C82.8802 15.176 81.3965 14.4688 79.8229 14.3973C78.2492 14.3258 76.7143 14.8958 75.5554 15.982L25.0507 63.4336C24.3296 64.1159 23.9024 65.0626 23.862 66.0678C23.8217 67.0729 24.1715 68.055 24.8352 68.8002L71.4307 120.563Z" fill="white"/>
<g opacity="0.3">
<path d="M75.9825 8.6534L19.3921 61.6232C18.2515 62.693 17.5765 64.1829 17.5152 65.7663C17.4538 67.3496 18.0112 68.8971 19.065 70.0694L71.3807 128.09C71.8415 128.648 72.4085 129.105 73.0468 129.433C73.6852 129.762 74.3818 129.955 75.094 130.001C77.1385 129.861 80.5856 7.14627 80.5856 7.14627C79.7538 7.00677 78.9025 7.07071 78.1022 7.33276C77.3018 7.5948 76.5753 8.04746 75.9825 8.6534Z" fill="black"/>
</g>
<path d="M50.3432 75.3923L50.3432 73.8651L55.0682 68.9696C55.5727 68.4378 55.9886 67.9719 56.3159 67.5719C56.6477 67.1673 56.8955 66.7832 57.0591 66.4196C57.2227 66.056 57.3045 65.6696 57.3045 65.2605C57.3045 64.7969 57.1955 64.3969 56.9773 64.0605C56.7591 63.7196 56.4614 63.4582 56.0841 63.2764C55.7068 63.0901 55.2818 62.9969 54.8091 62.9969C54.3091 62.9969 53.8727 63.0992 53.5 63.3037C53.1273 63.5082 52.8409 63.7969 52.6409 64.1696C52.4409 64.5423 52.3409 64.9787 52.3409 65.4787L50.3295 65.4787C50.3295 64.6287 50.525 63.8855 50.9159 63.2492C51.3068 62.6128 51.8432 62.1196 52.525 61.7696C53.2068 61.4151 53.9818 61.2378 54.85 61.2378C55.7273 61.2378 56.5 61.4128 57.1682 61.7628C57.8409 62.1082 58.3659 62.581 58.7432 63.181C59.1205 63.7764 59.3091 64.4492 59.3091 65.1992C59.3091 65.7173 59.2114 66.2242 59.0159 66.7196C58.825 67.2151 58.4909 67.7673 58.0136 68.3764C57.5364 68.981 56.8727 69.7151 56.0227 70.5787L53.2477 73.4832L53.2477 73.5855L59.5341 73.5855L59.5341 75.3923L50.3432 75.3923ZM66.9795 75.6242C65.9023 75.6196 64.9818 75.3355 64.2182 74.7719C63.4545 74.2082 62.8705 73.3878 62.4659 72.3105C62.0614 71.2332 61.8591 69.9355 61.8591 68.4173C61.8591 66.9037 62.0614 65.6105 62.4659 64.5378C62.875 63.4651 63.4614 62.6469 64.225 62.0832C64.9932 61.5196 65.9114 61.2378 66.9795 61.2378C68.0477 61.2378 68.9636 61.5219 69.7273 62.0901C70.4909 62.6537 71.075 63.4719 71.4795 64.5446C71.8886 65.6128 72.0932 66.9037 72.0932 68.4173C72.0932 69.9401 71.8909 71.2401 71.4864 72.3173C71.0818 73.3901 70.4977 74.2105 69.7341 74.7787C68.9705 75.3423 68.0523 75.6242 66.9795 75.6242ZM66.9795 73.8037C67.925 73.8037 68.6636 73.3423 69.1955 72.4196C69.7318 71.4969 70 70.1628 70 68.4173C70 67.2582 69.8773 66.2787 69.6318 65.4787C69.3909 64.6742 69.0432 64.0651 68.5886 63.6514C68.1386 63.2332 67.6023 63.0242 66.9795 63.0242C66.0386 63.0242 65.3 63.4878 64.7636 64.4151C64.2273 65.3423 63.9568 66.6764 63.9523 68.4173C63.9523 69.581 64.0727 70.5651 64.3136 71.3696C64.5591 72.1696 64.9068 72.7764 65.3568 73.1901C65.8068 73.5992 66.3477 73.8037 66.9795 73.8037ZM79.3733 75.6242C78.296 75.6196 77.3756 75.3355 76.6119 74.7719C75.8483 74.2082 75.2642 73.3878 74.8597 72.3105C74.4551 71.2332 74.2528 69.9355 74.2528 68.4173C74.2528 66.9037 74.4551 65.6105 74.8597 64.5378C75.2688 63.4651 75.8551 62.6469 76.6188 62.0832C77.3869 61.5196 78.3051 61.2378 79.3733 61.2378C80.4415 61.2378 81.3574 61.5219 82.121 62.0901C82.8847 62.6537 83.4688 63.4719 83.8733 64.5446C84.2824 65.6128 84.4869 66.9037 84.4869 68.4173C84.4869 69.9401 84.2847 71.2401 83.8801 72.3173C83.4756 73.3901 82.8915 74.2105 82.1278 74.7787C81.3642 75.3423 80.446 75.6242 79.3733 75.6242ZM79.3733 73.8037C80.3188 73.8037 81.0574 73.3423 81.5892 72.4196C82.1256 71.4969 82.3938 70.1628 82.3938 68.4173C82.3938 67.2582 82.271 66.2787 82.0256 65.4787C81.7847 64.6742 81.4369 64.0651 80.9824 63.6514C80.5324 63.2332 79.996 63.0242 79.3733 63.0242C78.4324 63.0242 77.6938 63.4878 77.1574 64.4151C76.621 65.3423 76.3506 66.6764 76.346 68.4173C76.346 69.581 76.4665 70.5651 76.7074 71.3696C76.9528 72.1696 77.3006 72.7764 77.7506 73.1901C78.2006 73.5992 78.7415 73.8037 79.3733 73.8037ZM91.5489 61.2378C92.1716 61.2423 92.7852 61.356 93.3898 61.5787C93.9943 61.8014 94.5398 62.1651 95.0261 62.6696C95.517 63.1742 95.908 63.856 96.1989 64.7151C96.4943 65.5696 96.6443 66.6332 96.6489 67.906C96.6489 69.1287 96.5261 70.2173 96.2807 71.1719C96.0352 72.1219 95.683 72.9242 95.2239 73.5787C94.7693 74.2332 94.217 74.731 93.567 75.0719C92.917 75.4128 92.1852 75.5832 91.3716 75.5832C90.5398 75.5832 89.8011 75.4196 89.1557 75.0923C88.5102 74.7651 87.9852 74.3128 87.5807 73.7355C87.1761 73.1537 86.9239 72.4855 86.8239 71.731L88.9034 71.731C89.0398 72.331 89.317 72.8173 89.7352 73.1901C90.158 73.5582 90.7034 73.7423 91.3716 73.7423C92.3943 73.7423 93.192 73.2969 93.7648 72.406C94.3375 71.5105 94.6261 70.2605 94.6307 68.656L94.5216 68.656C94.2852 69.0469 93.9898 69.3832 93.6352 69.6651C93.2852 69.9469 92.892 70.1651 92.4557 70.3196C92.0193 70.4742 91.5534 70.5514 91.058 70.5514C90.2534 70.5514 89.5216 70.3537 88.8625 69.9582C88.2034 69.5628 87.6784 69.0196 87.2875 68.3287C86.8966 67.6378 86.7011 66.8492 86.7011 65.9628C86.7011 65.081 86.9011 64.281 87.3011 63.5628C87.7057 62.8446 88.2693 62.2764 88.992 61.8582C89.7193 61.4355 90.5716 61.2287 91.5489 61.2378ZM91.5557 63.0105C91.0239 63.0105 90.5443 63.1423 90.117 63.406C89.6943 63.6651 89.3602 64.0173 89.1148 64.4628C88.8693 64.9037 88.7466 65.3946 88.7466 65.9355C88.7466 66.4764 88.8648 66.9673 89.1011 67.4082C89.342 67.8446 89.6693 68.1923 90.083 68.4514C90.5011 68.706 90.9784 68.8332 91.5148 68.8332C91.9148 68.8332 92.2875 68.756 92.633 68.6014C92.9784 68.4469 93.2807 68.2332 93.5398 67.9605C93.7989 67.6832 94.0011 67.3696 94.1466 67.0196C94.292 66.6696 94.3648 66.3014 94.3648 65.9151C94.3648 65.4014 94.242 64.9242 93.9966 64.4832C93.7557 64.0423 93.4239 63.6878 93.0011 63.4196C92.5784 63.1469 92.0966 63.0105 91.5557 63.0105Z" fill="white"/>
</svg>
