<svg width="142" height="280" viewBox="0 0 142 280" fill="none" xmlns="http://www.w3.org/2000/svg">
<path d="M77.1381 104.739L69.9414 103.955L56.1778 239.272L63.3745 240.056L77.1381 104.739Z" fill="#E0E0E0"/>
<path d="M63.3707 240.069C63.3707 240.069 63.3966 239.814 63.4438 239.35C63.491 238.885 63.5641 238.166 63.6539 237.283C63.8397 235.455 64.1108 232.789 64.452 229.433C65.1479 222.587 66.0743 212.737 67.2695 200.538C69.7488 176.151 73.0792 142.36 76.853 104.648L77.199 105.08L70.0214 104.298C70.8569 103.601 70.2488 104.126 70.4272 103.994L68.0545 127.333C67.2809 134.943 66.5316 142.313 65.8006 149.503C64.3477 163.794 62.9984 177.066 61.7953 188.901C59.3077 212.485 57.4183 230.333 56.4825 239.243L56.3745 239.125L61.7725 239.713L63.1072 239.858L63.5669 239.908L63.1517 239.863L61.8467 239.721L56.3745 239.125L56.2558 239.112L56.268 238.992C57.1742 230.079 58.8857 212.211 61.1953 188.608C62.3984 176.774 63.7477 163.502 65.2005 149.211C65.927 142.065 66.6808 134.65 67.4545 127.04L69.7998 103.971C69.9975 103.795 69.3792 104.273 70.2443 103.58L77.8075 104.404L77.7634 104.838C73.9241 142.603 70.3621 176.46 67.8307 200.918C66.5956 213.066 65.5076 222.884 64.785 229.696C64.4454 233.037 64.1759 235.688 63.9962 237.456C63.9078 238.325 63.8439 238.954 63.7921 239.463C63.7403 239.973 63.3707 240.069 63.3707 240.069Z" fill="#263238"/>
<path d="M61.7285 273.937L50.8691 272.742L54.2763 238.985C54.3489 238.266 54.6986 237.608 55.2487 237.155C55.7988 236.702 56.5041 236.49 57.2095 236.568L62.7494 237.177C63.4548 237.255 64.1025 237.615 64.55 238.178C64.9975 238.741 65.2082 239.461 65.1357 240.18L61.7285 273.937Z" fill="#E0E0E0"/>
<path d="M61.727 273.935C61.743 273.599 61.7768 273.264 61.8282 272.932C61.8992 272.229 61.9913 271.315 62.1046 270.193C62.3524 267.738 62.6938 264.355 62.9785 260.209C63.2632 256.063 63.903 251.048 64.3399 245.541C64.4789 244.164 64.6209 242.757 64.7659 241.32L64.8746 240.242C64.9145 239.921 64.892 239.594 64.8082 239.281C64.7208 238.969 64.5714 238.678 64.3693 238.427C64.1672 238.175 63.9168 237.969 63.6336 237.82C62.9664 237.584 62.2676 237.456 61.5626 237.441L59.2854 237.19C58.5362 237.108 57.6988 237.016 57.0083 236.94C56.6715 236.945 56.3404 237.026 56.038 237.176C55.7356 237.325 55.4691 237.541 55.2572 237.807C55.0273 238.106 54.8698 238.457 54.7973 238.831C54.7595 239.205 54.7097 239.699 54.6674 240.118L54.4045 242.723C54.2293 244.459 54.0586 246.15 53.8909 247.812C53.5556 251.135 53.2353 254.309 52.9317 257.317C52.3274 263.305 51.7987 268.544 51.2845 272.756L51.0605 272.474L58.9654 273.48L61.1175 273.792L61.8961 273.878C61.6645 273.871 61.4336 273.846 61.2056 273.802L59.1048 273.571L51.0257 272.818L50.776 272.791L50.8017 272.536C51.2277 268.315 51.7579 263.061 52.2578 257.077C52.5599 254.083 52.8797 250.914 53.2171 247.571L53.9709 240.102C54.0162 239.653 54.057 239.249 54.1068 238.755C54.229 238.047 54.5901 237.406 55.1277 236.943C55.6654 236.479 56.3458 236.223 57.0514 236.218C57.9182 236.313 58.6234 236.391 59.4167 236.478L62.8104 236.851C63.2332 236.881 63.6461 236.998 64.0233 237.197C64.4023 237.387 64.7375 237.657 65.0063 237.989C65.2751 238.322 65.4712 238.709 65.5816 239.124C65.6896 239.532 65.7174 239.956 65.6634 240.374L65.5622 241.377C65.4111 242.874 65.2692 244.281 65.1287 245.673C64.5682 251.227 64.0622 256.241 63.5303 260.481C62.9984 264.721 62.6722 267.955 62.398 270.376C62.2878 271.469 62.1986 272.352 62.1292 273.041C62.0383 273.357 61.9028 273.659 61.727 273.935Z" fill="#263238"/>
<path d="M54.4634 7.17603L24.7388 47.2949C23.9514 48.3448 23.4644 49.5979 23.3315 50.9159C23.1987 52.2339 23.4251 53.5656 23.9859 54.7641L45.0425 100.495C45.5649 101.626 46.3634 102.602 47.3611 103.328C48.3587 104.055 49.5216 104.507 50.7376 104.642L97.5824 109.805C98.7964 109.937 100.022 109.747 101.14 109.254C102.258 108.76 103.231 107.98 103.964 106.989L133.792 66.7304C134.551 65.7106 135.028 64.501 135.175 63.2268C135.321 61.9525 135.132 60.6596 134.626 59.4816L115.27 14.0591C114.771 12.8804 113.974 11.8574 112.96 11.0953C111.947 10.3332 110.755 9.85958 109.506 9.72316L60.8602 4.36174C59.6438 4.22543 58.4153 4.41303 57.2942 4.90624C56.1732 5.39946 55.1979 6.18145 54.4634 7.17603Z" fill="#FF725E"/>
<path d="M95.5786 106.202L52.1739 101.418C50.9976 101.275 49.8746 100.83 48.9102 100.124C47.9458 99.4181 47.1716 98.4745 46.6601 97.3818L27.1449 55.0078C26.6017 53.8371 26.3829 52.5381 26.5125 51.2526C26.6421 49.9671 27.115 48.7444 27.8797 47.7178L55.4129 10.5444C56.1286 9.58312 57.0733 8.82518 58.1579 8.34216C59.2426 7.85914 60.4313 7.66697 61.6118 7.78378L106.671 12.7499C107.895 12.8865 109.063 13.3516 110.056 14.0979C111.049 14.8442 111.833 15.8449 112.326 16.9983L130.287 59.0801C130.781 60.2343 130.965 61.5004 130.821 62.7482C130.677 63.996 130.21 65.1803 129.468 66.1795L101.849 103.464C101.125 104.433 100.167 105.193 99.0689 105.673C97.9707 106.152 96.7688 106.334 95.5786 106.202ZM61.5365 8.53071C60.4796 8.41308 59.4121 8.57219 58.4348 8.99302C57.4575 9.41386 56.6026 10.0825 55.9507 10.936L28.416 48.1244C27.7359 49.0431 27.3153 50.1353 27.1996 51.283C27.0839 52.4308 27.2775 53.5907 27.7595 54.6375L47.2747 97.0115C47.742 97.9883 48.4449 98.8286 49.3168 99.4533C50.1887 100.078 51.2011 100.466 52.2582 100.582L95.663 105.365C96.7179 105.483 97.7835 105.324 98.7585 104.903C99.7335 104.481 100.586 103.812 101.234 102.959L128.867 65.6754C129.523 64.7798 129.936 63.7224 130.064 62.6096C130.191 61.4969 130.03 60.3679 129.595 59.3362L111.636 17.2394C111.196 16.2091 110.497 15.3152 109.609 14.6494C108.722 13.9836 107.678 13.5698 106.585 13.4504L61.5365 8.53071Z" fill="white"/>
<path d="M56.8319 63.0779L56.9851 61.5583L62.173 57.2048C62.7278 56.7309 63.188 56.3129 63.5534 55.9508C63.9238 55.5846 64.2086 55.2296 64.4078 54.8857C64.6069 54.5418 64.727 54.1663 64.768 53.7593C64.8146 53.298 64.7463 52.8881 64.5631 52.5295C64.3805 52.1664 64.1107 51.8738 63.754 51.6516C63.3977 51.4248 62.9846 51.2856 62.5147 51.2338C62.0177 51.1791 61.5737 51.2331 61.1827 51.3958C60.7916 51.5585 60.478 51.8143 60.2418 52.1633C60.0056 52.5122 59.8625 52.9354 59.8123 53.4329L57.813 53.2127C57.8983 52.367 58.1671 51.6489 58.6195 51.0586C59.072 50.4682 59.6546 50.0362 60.3674 49.7627C61.0807 49.4846 61.8689 49.393 62.7318 49.4881C63.6038 49.5841 64.3544 49.8429 64.9834 50.2643C65.6175 50.6816 66.0919 51.2095 66.4067 51.8478C66.722 52.4815 66.842 53.1715 66.7667 53.9177C66.7147 54.4333 66.5667 54.9269 66.3227 55.3984C66.0833 55.8705 65.6958 56.3834 65.1602 56.9372C64.6252 57.4864 63.8919 58.1441 62.9603 58.9103L59.9105 61.4964L59.9003 61.5982L66.1489 62.2865L65.9676 64.0842L56.8319 63.0779ZM73.3452 65.1301C72.2748 65.0076 71.3884 64.6242 70.6859 63.9797C69.9834 63.3353 69.4851 62.4551 69.1911 61.3389C68.8971 60.2228 68.8262 58.9094 68.9785 57.3989C69.1304 55.8929 69.4612 54.6284 69.971 53.6053C70.4852 52.5828 71.1502 51.833 71.9658 51.3558C72.7859 50.8791 73.7268 50.6992 74.7886 50.8162C75.8504 50.9331 76.7323 51.3161 77.4343 51.965C78.1368 52.6094 78.6353 53.4874 78.9298 54.5991C79.2293 55.7066 79.3031 57.0134 79.1512 58.5195C78.9984 60.0345 78.6669 61.3058 78.1567 62.3334C77.647 63.3564 76.9841 64.1088 76.168 64.5905C75.3524 65.0677 74.4115 65.2475 73.3452 65.1301ZM73.5278 63.3188C74.4676 63.4223 75.2481 63.0441 75.8693 62.1843C76.495 61.3249 76.8955 60.0269 77.0706 58.2903C77.1869 57.137 77.1632 56.149 76.9995 55.3261C76.8407 54.4993 76.5562 53.8552 76.1459 53.3938C75.7405 52.9285 75.2284 52.6617 74.6094 52.5935C73.6741 52.4905 72.8934 52.8709 72.2672 53.7348C71.641 54.5987 71.2383 55.8965 71.0592 57.6281C70.9424 58.7859 70.9634 59.7782 71.1221 60.6051C71.2858 61.4279 71.5706 62.0697 71.9764 62.5306C72.3827 62.9869 72.8998 63.2496 73.5278 63.3188ZM87.5226 52.4109L86.1216 66.3042L84.0206 66.0728L85.2096 54.2825L85.1282 54.2735L81.5885 56.0785L81.791 54.0705L85.4826 52.1862L87.5226 52.4109ZM95.9117 53.1429C96.5302 53.2157 97.1288 53.3959 97.7073 53.6837C98.2859 53.9715 98.7916 54.393 99.2244 54.9483C99.6618 55.504 99.9819 56.2252 100.185 57.1118C100.393 57.9944 100.435 59.0691 100.312 60.3359C100.189 61.5525 99.9581 62.6222 99.6184 63.5451C99.2791 64.4634 98.8484 65.2231 98.3264 65.8241C97.8089 66.4256 97.21 66.8603 96.5297 67.1283C95.8494 67.3963 95.1049 67.4858 94.2961 67.3967C93.4693 67.3056 92.7515 67.062 92.1428 66.6657C91.534 66.2694 91.0576 65.7619 90.7134 65.1432C90.3696 64.52 90.1859 63.8276 90.1622 63.0659L92.2293 63.2936C92.3046 63.9055 92.5314 64.4198 92.9097 64.8364C93.293 65.249 93.8167 65.4919 94.4808 65.5651C95.4974 65.6771 96.3351 65.3212 96.9937 64.4975C97.6529 63.6693 98.0652 62.4572 98.2307 60.8612L98.1223 60.8492C97.8481 61.2123 97.5207 61.5146 97.14 61.7562C96.7638 61.9983 96.3511 62.1723 95.9018 62.2783C95.4526 62.3843 94.9817 62.4102 94.4892 62.3559C93.6895 62.2678 92.9819 61.991 92.3665 61.5253C91.751 61.0597 91.2837 60.4618 90.9644 59.7315C90.6452 59.0013 90.53 58.1953 90.619 57.3134C90.7074 56.436 90.9865 55.6619 91.4562 54.9911C91.9303 54.3209 92.5476 53.8173 93.3079 53.4803C94.0733 53.1394 94.9412 53.0269 95.9117 53.1429ZM95.7406 54.9075C95.212 54.8493 94.7221 54.9279 94.2709 55.1434C93.8247 55.3549 93.4573 55.6689 93.1686 56.0852C92.8804 56.497 92.7091 56.972 92.6549 57.5102C92.6006 58.0484 92.6688 58.5497 92.8595 59.0143C93.0552 59.4749 93.3456 59.8567 93.7308 60.1597C94.1209 60.4588 94.5826 60.6377 95.1157 60.6964C95.5133 60.7402 95.8916 60.7041 96.2504 60.5882C96.6093 60.4722 96.9312 60.2928 97.2161 60.0498C97.5015 59.8023 97.734 59.5124 97.9137 59.1801C98.0934 58.8478 98.2026 58.4894 98.2414 58.105C98.2929 57.5939 98.2188 57.1056 98.0191 56.6401C97.8239 56.175 97.5296 55.7859 97.1363 55.4728C96.7435 55.1551 96.2783 54.9667 95.7406 54.9075Z" fill="white"/>
</svg>
