<svg width="263" height="133" viewBox="0 0 263 133" fill="none" xmlns="http://www.w3.org/2000/svg">
<path d="M116.534 113.521C124.2 114.648 132.109 103.019 134.198 87.5453C136.287 72.0718 131.764 58.6144 124.098 57.4871L106.318 54.8727L98.7548 110.906L116.534 113.521Z" fill="#263238"/>
<path d="M98.7281 110.956C106.399 112.084 114.311 100.451 116.4 84.9744C118.49 69.4975 113.965 56.0369 106.295 54.9093C98.6244 53.7817 90.7124 65.4141 88.6229 80.891C86.5334 96.3679 91.0576 109.829 98.7281 110.956Z" fill="#263238"/>
<path d="M217.897 128.127C225.563 129.254 233.466 117.624 235.554 102.151C237.643 86.6772 233.151 73.2243 225.46 72.0934L207.65 69.4745L200.087 125.508L217.897 128.127Z" fill="#263238"/>
<path d="M200.085 125.561C207.755 126.689 215.667 115.057 217.757 99.5797C219.846 84.1027 215.322 70.6421 207.651 69.5145C199.981 68.3869 192.069 80.0193 189.979 95.4962C187.89 110.973 192.414 124.434 200.085 125.561Z" fill="#263238"/>
<path d="M27.8709 86.3254L18.6951 82.5422C17.142 81.9047 15.7424 80.9289 14.5946 79.6833C13.4468 78.4377 12.5787 76.9525 12.0511 75.3322C11.5835 73.9019 10.8503 72.5752 9.89195 71.4249L7.84307 68.9633C6.67303 67.5572 5.8426 65.8915 5.41919 64.1017C4.99577 62.3118 4.99128 60.4481 5.4061 58.6617L8.53913 45.1451C9.06437 42.8789 10.2428 40.8292 11.923 39.2593C13.6032 37.6894 15.7085 36.671 17.9683 36.3349L25.0343 35.2904L49.7709 37.1122L27.8709 86.3254Z" fill="#C53F3F"/>
<path d="M46.5733 103.44C54.2393 104.567 62.1485 92.9376 64.2371 77.4642C66.3257 61.9907 61.8028 48.5333 54.1368 47.406L36.333 44.788L28.7695 100.822L46.5733 103.44Z" fill="#263238"/>
<path d="M28.7672 100.875C36.4377 102.002 44.3497 90.37 46.4392 74.8931C48.5287 59.4162 44.0044 45.9556 36.3339 44.828C28.6635 43.7004 20.7514 55.3328 18.6619 70.8097C16.5724 86.2866 21.0967 99.7472 28.7672 100.875Z" fill="#263238"/>
<path d="M29.559 95.005C34.9433 95.7963 40.6476 86.5192 42.2998 74.2842C43.952 62.0491 40.9265 51.4892 35.5422 50.6979C30.1578 49.9066 24.4536 59.1836 22.8014 71.4187C21.1492 83.6537 24.1747 94.2137 29.559 95.005Z" fill="#C53F3F"/>
<path d="M171.105 106.931L202.353 56.0873C202.353 56.0873 170.254 23.747 124.879 17.0846C51.3392 6.2868 52.5014 16.7449 24.9326 35.0317L34.6333 44.3188C53.7458 47.1251 51.1716 78.1854 53.0558 87.3061C53.1953 87.9968 53.5414 88.6279 54.0464 89.1125C54.5514 89.5971 55.1904 89.9113 55.8755 90.0118L171.105 106.931Z" fill="#C53F3F"/>
<path d="M147.936 118.046C155.602 119.173 163.505 107.543 165.594 92.0694C167.682 76.5959 163.165 63.1394 155.499 62.0121L137.689 59.3932L130.126 115.427L147.936 118.046Z" fill="#263238"/>
<path d="M130.124 115.48C137.794 116.608 145.706 104.975 147.796 89.4984C149.885 74.0214 145.361 60.5608 137.69 59.4332C130.02 58.3056 122.108 69.938 120.018 85.4149C117.929 100.892 122.453 114.352 130.124 115.48Z" fill="#263238"/>
<path d="M130.915 109.61C136.3 110.401 142.004 101.124 143.656 88.8894C145.308 76.6543 142.283 66.0944 136.899 65.3031C131.514 64.5118 125.81 73.7888 124.158 86.0239C122.506 98.259 125.531 108.819 130.915 109.61Z" fill="#C53F3F"/>
<path d="M157.316 100.197C156.49 89.6996 149.62 61.1055 137 59.2534L125.032 44.6154L202.216 55.9425C207.559 56.7267 230.841 63.5474 243.038 74.7836C252.89 83.8598 252.69 95.4152 252.008 112.24C251.873 115.675 248.564 118.156 244.879 117.622C213.954 113.083 176.511 107.709 162.879 105.752C159.868 105.342 157.54 103.007 157.316 100.197Z" fill="#C53F3F"/>
<path opacity="0.8" d="M196.773 54.9401L146.471 47.5683C145.307 47.4025 144.198 46.9495 143.243 46.2489C142.287 45.5483 141.513 44.6214 140.989 43.5493C136.531 34.3044 127.778 24.3161 121.062 19.2067C171.919 26.6598 196.773 54.9401 196.773 54.9401Z" fill="white"/>
<path opacity="0.8" d="M119.532 21.736C125.023 27.111 131.021 35.0732 133.982 42.5464C134.126 42.9032 134.176 43.2916 134.127 43.6728C134.077 44.054 133.93 44.4147 133.7 44.7189C133.47 45.0232 133.166 45.2603 132.816 45.4067C132.467 45.5531 132.085 45.6036 131.71 45.5533L49.2793 33.4804C40.5356 32.1998 46.4325 10.512 92.3326 15.5426C96.6885 15.7955 106.726 17.253 112.272 18.0904C115.003 18.5058 117.542 19.7809 119.532 21.736Z" fill="white"/>
<path d="M167.025 94.0449L193.168 99.9345C193.576 100.026 193.935 100.271 194.174 100.619C194.413 100.968 194.514 101.395 194.456 101.814L194.204 103.67C194.145 104.109 193.915 104.506 193.567 104.772C193.218 105.038 192.779 105.152 192.346 105.089L165.946 101.225C165.512 101.161 165.12 100.926 164.854 100.57C164.589 100.214 164.473 99.7671 164.531 99.3266L165.053 95.4724C165.081 95.2428 165.156 95.0218 165.272 94.8233C165.388 94.6249 165.544 94.4533 165.729 94.3193C165.914 94.1852 166.125 94.0917 166.348 94.0445C166.571 93.9973 166.801 93.9974 167.025 94.0449Z" fill="#263238"/>
<path d="M250.902 106.534L243.438 106.958C243.056 106.979 242.694 107.133 242.414 107.396C242.133 107.659 241.951 108.014 241.899 108.399L241.626 110.42C241.597 110.639 241.61 110.862 241.665 111.077C241.72 111.291 241.816 111.493 241.948 111.67C242.08 111.848 242.244 111.997 242.432 112.109C242.62 112.222 242.828 112.296 243.043 112.327L250.733 113.457C250.964 113.492 251.2 113.476 251.425 113.411C251.649 113.346 251.857 113.233 252.035 113.079C252.213 112.925 252.357 112.735 252.457 112.52C252.556 112.305 252.61 112.07 252.614 111.832L252.678 108.266C252.683 108.031 252.64 107.797 252.551 107.58C252.462 107.362 252.33 107.166 252.163 107.003C251.996 106.84 251.797 106.714 251.58 106.633C251.363 106.552 251.132 106.519 250.902 106.534Z" fill="#263238"/>
<path opacity="0.8" d="M193.094 65.7409L156.456 58.5274C156.456 58.5274 155.18 65.1005 168.657 68.5098C176.891 70.5047 185.533 69.5255 193.094 65.7409Z" fill="white"/>
<path opacity="0.3" d="M8.61253 45.1684C8.86418 44.0872 9.2673 43.0495 9.80951 42.0873L12.331 42.3814C12.331 42.3814 11.1223 52.2101 7.56722 51.058C7.46742 51.0269 7.37038 50.9871 7.27719 50.939L8.61253 45.1684Z" fill="black"/>
<path opacity="0.8" d="M239.682 71.8004C240.836 72.6636 241.947 73.5851 243.011 74.5615C244.629 76.0383 246.064 77.7117 247.283 79.5437C246.747 79.6173 246.207 79.6606 245.667 79.6735C237.28 79.9045 232.367 71.3341 232.367 71.3341L239.682 71.8004Z" fill="white"/>
<path d="M203.008 77.8931L229.126 81.7291C230.041 81.8688 230.894 82.2902 231.57 82.9366L235.693 86.8669C236.162 87.3084 236.536 87.8433 236.793 88.4379C237.05 89.0326 237.184 89.6741 237.186 90.3222L237.162 99.2924C237.172 99.8746 237.058 100.451 236.826 100.982C236.595 101.513 236.252 101.985 235.822 102.365C235.392 102.746 234.885 103.026 234.337 103.186C233.788 103.345 233.211 103.381 232.646 103.29L204.716 99.188C203.883 99.0537 203.099 98.6906 202.45 98.1378C201.802 97.585 201.312 96.8634 201.034 96.0507L197.216 84.9332C196.935 84.1725 196.875 83.3471 197.041 82.5552C197.208 81.7634 197.595 81.0386 198.156 80.4672L199.692 78.9513C200.126 78.527 200.651 78.2109 201.226 78.0274C201.801 77.8439 202.411 77.798 203.008 77.8931Z" fill="#263238"/>
<path opacity="0.1" d="M62.5911 79.6627L113.614 87.0903C113.783 87.1143 113.946 87.1737 114.092 87.2646C114.237 87.3554 114.363 87.4758 114.461 87.6182C114.558 87.7605 114.625 87.9216 114.658 88.0912C114.691 88.2608 114.689 88.4352 114.651 88.6033L113.981 91.5625C113.912 91.8654 113.733 92.1302 113.479 92.3048C113.225 92.4793 112.915 92.5508 112.61 92.5052L61.5811 85.0767C61.4118 85.0527 61.2491 84.9933 61.1033 84.9025C60.9576 84.8116 60.8319 84.6912 60.7343 84.5488C60.6368 84.4065 60.5694 84.2455 60.5367 84.0758C60.5039 83.9062 60.5063 83.7318 60.5439 83.5637L61.2145 80.5984C61.2852 80.2957 61.4659 80.0317 61.7208 79.8585C61.9757 79.6852 62.2862 79.6154 62.5911 79.6627Z" fill="black"/>
<path d="M88.1096 14.4724L91.2633 14.3182L81.1841 41.4726L78.2409 41.0405L88.1096 14.4724Z" fill="#C53F3F"/>
<path d="M95.0677 46.7497L84.61 45.2174L84.1908 46.2929C84.0758 46.5257 84.0187 46.784 84.0246 47.0453C84.0305 47.3065 84.0991 47.5627 84.2245 47.7916C84.3498 48.0205 84.5282 48.2151 84.7439 48.3584C84.9597 48.5018 85.2063 48.5896 85.4623 48.6141L91.7857 49.5407C92.3811 49.599 92.9782 49.4644 93.4913 49.1561C94.0045 48.8478 94.4074 48.3816 94.6423 47.8243L95.0677 46.7497Z" fill="#263238"/>
<path d="M59.128 41.5707L48.6764 40.0393L48.2572 41.1148C48.1422 41.3476 48.0851 41.6059 48.091 41.8672C48.0969 42.1284 48.1655 42.3846 48.2909 42.6135C48.4162 42.8424 48.5946 43.037 48.8103 43.1804C49.0261 43.3237 49.2727 43.4115 49.5287 43.436L55.8521 44.3626C56.4475 44.421 57.0446 44.2863 57.5577 43.978C58.0709 43.6697 58.4738 43.2035 58.7087 42.6462L59.128 41.5707Z" fill="#263238"/>
<path opacity="0.1" d="M75.0437 77.741C74.951 77.7276 74.8669 77.678 74.8097 77.603C74.7525 77.528 74.7266 77.4335 74.7378 77.34L78.9751 40.4255C78.9879 40.3309 79.0363 40.2452 79.1103 40.1859C79.1844 40.1267 79.2783 40.0986 79.3728 40.1074C79.4655 40.1208 79.5496 40.1704 79.6068 40.2454C79.664 40.3204 79.6899 40.4149 79.6788 40.5085L75.4281 77.4273C75.4154 77.5213 75.3668 77.6064 75.2928 77.6645C75.2188 77.7227 75.125 77.7495 75.0313 77.7392L75.0437 77.741Z" fill="black"/>
</svg>
