<svg width="341" height="143" viewBox="0 0 341 143" fill="none" xmlns="http://www.w3.org/2000/svg">
<g clip-path="url(#clip0_834_2112)">
<path d="M302.09 73.0001C303.456 65.7138 302.641 58.1865 299.747 51.3614C296.853 44.5364 292.01 38.7172 285.823 34.633C279.636 30.5488 272.382 28.3813 264.969 28.4021C257.556 28.4229 250.314 30.6312 244.15 34.7501C239.674 23.8694 231.56 14.8797 221.193 9.31589C210.826 3.75207 198.85 1.9591 187.308 4.24311C175.767 6.52711 165.376 12.7465 157.909 21.8393C150.443 30.9321 146.365 42.3346 146.37 54.1C146.37 54.73 146.37 55.34 146.37 55.96C139.069 58.0342 132.703 62.5568 128.342 68.7687C123.98 74.9807 121.888 82.5039 122.417 90.0756C122.946 97.6473 126.064 104.807 131.246 110.352C136.429 115.897 143.361 119.491 150.88 120.53V120.88H300.48C306.584 120.705 312.392 118.21 316.721 113.903C321.05 109.595 323.574 103.8 323.78 97.6964C323.985 91.5931 321.856 85.6411 317.826 81.0527C313.796 76.4642 308.169 73.5845 302.09 73.0001Z" fill="white" stroke="#263238" stroke-linecap="round" stroke-linejoin="round"/>
<path d="M74.5204 122.32C74.6968 121.384 74.7871 120.433 74.7904 119.48C74.7836 116.689 74.0213 113.951 72.5841 111.558C71.147 109.165 69.0887 107.205 66.6278 105.888C64.1669 104.57 61.3951 103.944 58.6067 104.074C55.8183 104.205 53.1173 105.088 50.7904 106.63C48.9493 102.175 45.6208 98.4963 41.3718 96.22C37.1229 93.9436 32.2162 93.2106 27.4874 94.1457C22.7587 95.0808 18.5003 97.6263 15.4376 101.349C12.3749 105.071 10.6972 109.74 10.6904 114.56C10.6904 114.82 10.6904 115.07 10.6904 115.32C7.69446 116.169 5.082 118.023 3.2919 120.571C1.50179 123.119 0.643117 126.205 0.860135 129.311C1.07715 132.418 2.35664 135.355 4.48363 137.629C6.61063 139.903 9.45552 141.376 12.5404 141.8V142H73.8704C76.4034 141.976 78.8295 140.976 80.6427 139.207C82.456 137.438 83.5163 135.037 83.6028 132.506C83.6892 129.974 82.7949 127.507 81.1065 125.618C79.4181 123.73 77.0659 122.566 74.5404 122.37L74.5204 122.32Z" fill="white" stroke="#263238" stroke-linecap="round" stroke-linejoin="round"/>
<path d="M353.67 19.89C353.794 19.2676 353.857 18.6347 353.86 18C353.858 16.1382 353.351 14.3118 352.393 12.7154C351.435 11.119 350.062 9.81241 348.42 8.93492C346.778 8.05744 344.928 7.64191 343.069 7.73263C341.209 7.82334 339.409 8.4169 337.86 9.45004C336.636 6.48627 334.421 4.03873 331.595 2.52448C328.768 1.01024 325.504 0.522981 322.358 1.14574C319.213 1.7685 316.38 3.46274 314.344 5.93977C312.307 8.4168 311.193 11.5233 311.19 14.73C311.19 14.9 311.19 15.07 311.19 15.24C309.182 15.7881 307.426 17.0154 306.221 18.7129C305.016 20.4103 304.436 22.473 304.581 24.5496C304.726 26.6262 305.587 28.5883 307.016 30.1017C308.445 31.6152 310.355 32.5864 312.42 32.85V33H353.22C354.905 32.9828 356.518 32.3161 357.723 31.1388C358.928 29.9615 359.633 28.3645 359.69 26.6806C359.746 24.9967 359.151 23.3559 358.028 22.1001C356.904 20.8444 355.34 20.0706 353.66 19.94L353.67 19.89Z" fill="white" stroke="#263238" stroke-linecap="round" stroke-linejoin="round"/>
</g>
<defs>
<clipPath id="clip0_834_2112">
<rect width="361" height="143" fill="white"/>
</clipPath>
</defs>
</svg>
