<svg width="140" height="119" viewBox="0 0 140 119" fill="none" xmlns="http://www.w3.org/2000/svg">
<path d="M103.882 95.5573C101.182 94.9591 98.7238 97.2948 97.1938 99.6067C96.4579 100.789 95.9997 102.131 95.8543 103.528C95.7089 104.925 95.8801 106.341 96.3549 107.666C96.9721 109.43 98.037 110.999 99.4404 112.212C100.844 113.425 102.535 114.24 104.341 114.571C106.153 114.851 108.001 114.609 109.677 113.874C111.352 113.139 112.788 111.939 113.822 110.41C114.803 108.849 115.311 107.024 115.281 105.163C115.252 103.301 114.687 101.484 113.657 99.9364C110.967 96.0839 107.622 94.779 102.895 95.4639" fill="#FF725E"/>
<g opacity="0.7">
<path d="M103.858 95.5723C101.154 94.9665 98.6968 97.2891 97.1698 99.591C96.4356 100.769 95.9797 102.106 95.8372 103.5C95.6948 104.893 95.8695 106.306 96.348 107.63C96.97 109.392 98.04 110.961 99.4482 112.176C100.856 113.392 102.552 114.21 104.361 114.546C106.177 114.831 108.027 114.597 109.703 113.869C111.379 113.14 112.815 111.948 113.847 110.425C114.826 108.871 115.33 107.052 115.296 105.194C115.262 103.336 114.693 101.521 113.658 99.9738C110.955 96.1209 107.602 94.8078 102.87 95.4758" fill="white"/>
</g>
<path d="M104.687 102.826C105.249 98.4842 104.926 94.0625 103.739 89.8368C103.409 88.3595 102.727 86.9847 101.754 85.8336C101.309 85.2351 100.69 84.7951 99.9861 84.5778C99.2824 84.3605 98.5311 84.3772 97.8416 84.6256C97.1521 84.874 96.5606 85.341 96.1531 85.9586C95.7456 86.5762 95.5434 87.3121 95.5761 88.0591C95.5504 89.4838 95.8284 90.9001 96.3908 92.2103C97.9798 96.5435 100.644 99.6416 104.687 102.826Z" fill="white"/>
<path d="M104.687 102.826C104.687 102.826 104.54 102.793 104.305 102.584C104.071 102.376 103.724 102.163 103.283 101.804C102.041 100.821 100.89 99.7233 99.8456 98.5242C98.2876 96.7348 97.0593 94.6747 96.2205 92.4442C95.654 91.138 95.3412 89.7343 95.2994 88.3113C95.2835 87.5119 95.4878 86.7261 95.8891 86.043C96.2904 85.3599 96.8726 84.807 97.5696 84.4469C98.3211 84.1475 99.1538 84.1251 99.9248 84.3837C100.657 84.62 101.323 85.0329 101.867 85.5872C102.811 86.6608 103.485 87.9509 103.83 89.3451C104.496 91.6223 104.905 93.9671 105.05 96.334C105.143 97.9236 105.113 99.517 104.958 101.099C104.895 101.66 104.832 102.116 104.787 102.388C104.779 102.539 104.748 102.687 104.697 102.828C104.697 102.828 104.722 102.207 104.775 101.09C104.856 99.5161 104.836 97.9375 104.715 96.3643C104.526 94.0375 104.087 91.7365 103.408 89.5022C103.078 88.1853 102.439 86.9675 101.545 85.9548C101.081 85.4407 100.483 85.0719 99.8222 84.8922C99.1615 84.7124 98.4658 84.7293 97.8178 84.9407C97.2129 85.262 96.7088 85.7488 96.3616 86.3469C96.0143 86.9451 95.8374 87.6312 95.8505 88.329C95.8861 89.6873 96.1765 91.0285 96.7061 92.2802C97.5132 94.465 98.6869 96.493 100.174 98.2732C101.183 99.4772 102.278 100.603 103.45 101.643C103.889 102.008 104.302 102.403 104.687 102.826Z" fill="#263238"/>
<path d="M107.673 103.423C111.968 103.523 116.228 102.72 120.189 101.064C121.582 100.57 122.833 99.7375 123.835 98.6376C124.36 98.1241 124.709 97.4519 124.831 96.7186C124.954 95.9853 124.843 95.2292 124.516 94.56C124.189 93.8908 123.661 93.3433 123.011 92.9972C122.36 92.651 121.621 92.5242 120.899 92.6351C119.515 92.7486 118.175 93.163 116.967 93.8504C112.954 95.9136 110.271 98.9495 107.683 103.373" fill="white"/>
<path d="M107.674 103.422C107.713 103.277 107.776 103.139 107.86 103.015C107.995 102.753 108.207 102.372 108.49 101.892C109.295 100.539 110.219 99.2632 111.25 98.0804C112.791 96.3093 114.642 94.8451 116.709 93.7608C117.908 93.0403 119.238 92.5725 120.622 92.3848C121.396 92.2831 122.185 92.4049 122.899 92.7364C123.612 93.0679 124.222 93.5958 124.66 94.2602C125.049 94.9871 125.179 95.8277 125.025 96.6363C124.887 97.4012 124.568 98.1185 124.094 98.7254C123.166 99.7884 121.996 100.603 120.685 101.1C118.552 102.039 116.318 102.727 114.028 103.151C112.492 103.416 110.937 103.556 109.377 103.57C108.825 103.563 108.357 103.543 108.103 103.528C107.956 103.519 107.81 103.486 107.672 103.432C108.237 103.361 108.807 103.323 109.377 103.32C110.919 103.228 112.453 103.035 113.968 102.741C116.207 102.288 118.39 101.597 120.484 100.68C121.717 100.2 122.815 99.4236 123.686 98.4158C124.129 97.891 124.413 97.2461 124.505 96.558C124.596 95.8699 124.492 95.1675 124.203 94.5347C123.814 93.9584 123.276 93.5019 122.65 93.2159C122.025 92.9298 121.335 92.8254 120.657 92.9143C119.345 93.0857 118.08 93.5139 116.932 94.1753C114.907 95.2222 113.08 96.6211 111.531 98.3096C110.483 99.4594 109.524 100.691 108.664 101.993C108.366 102.493 108.036 102.97 107.674 103.422Z" fill="#263238"/>
<path d="M104.777 102.053C103.796 101.835 102.845 102.668 102.258 103.582C101.978 104.03 101.803 104.54 101.748 105.071C101.692 105.602 101.758 106.139 101.94 106.642C102.171 107.307 102.572 107.899 103.101 108.355C103.63 108.812 104.268 109.117 104.948 109.24C105.631 109.348 106.329 109.258 106.961 108.981C107.592 108.704 108.133 108.251 108.522 107.673C108.893 107.083 109.084 106.393 109.073 105.69C109.062 104.986 108.849 104.299 108.46 103.714C108.035 103.042 107.417 102.52 106.691 102.221C105.965 101.922 105.168 101.86 104.41 102.044" fill="#FF725E"/>
<path d="M99.5862 111.081C99.1067 110.733 98.7035 110.287 98.4024 109.772C97.583 108.597 97.0315 107.253 96.7889 105.837C96.5084 104.409 96.6601 102.932 97.2239 101.602C97.4228 101.038 97.7848 100.549 98.2627 100.2C98.3415 100.217 97.909 100.77 97.5641 101.751C97.1409 103.034 97.0541 104.41 97.3125 105.744C97.8203 108.995 99.7548 110.961 99.5862 111.081Z" fill="white"/>
<path d="M102.373 112.785C102.345 112.924 101.934 113.03 101.467 112.813C101 112.596 100.771 112.214 100.872 112.122C100.972 112.03 101.283 112.213 101.675 112.299C102.066 112.386 102.372 112.64 102.373 112.785Z" fill="white"/>
<path d="M114.245 105.628C114.304 105.641 114.361 106.114 114.233 106.891C114.048 107.896 113.653 108.847 113.075 109.679C112.498 110.513 111.748 111.207 110.878 111.714C110.203 112.097 109.75 112.196 109.711 112.135C110.817 111.362 111.806 110.429 112.646 109.364C113.349 108.203 113.887 106.945 114.245 105.628Z" fill="white"/>
<path d="M109.569 97.9044C109.42 97.9337 109.258 97.7731 109.049 97.6436C108.84 97.514 108.648 97.3988 108.627 97.2487C108.607 97.0985 108.975 96.9512 109.342 97.2094C109.71 97.4675 109.707 97.8829 109.569 97.9044Z" fill="white"/>
<path d="M103.198 107.385C103.187 107.435 102.882 107.315 102.601 106.876C102.228 106.33 102.06 105.668 102.126 105.01C102.193 104.352 102.491 103.743 102.964 103.294C103.332 102.956 103.627 102.875 103.656 102.934C103.17 103.559 102.827 104.287 102.652 105.067C102.516 106.386 103.319 107.297 103.198 107.385Z" fill="white"/>
<path d="M104.617 108.473C104.586 108.622 104.379 108.68 104.188 108.617C103.996 108.553 103.865 108.389 103.913 108.255C103.961 108.12 104.15 108.047 104.342 108.111C104.534 108.174 104.663 108.296 104.617 108.473Z" fill="white"/>
<path d="M16.9698 58.0133C14.8415 58.0844 13.412 60.3558 12.7183 62.3416C12.3897 63.374 12.2973 64.4714 12.4481 65.5502C12.599 66.629 12.9891 67.6607 13.5887 68.5669C14.3739 69.7757 15.4572 70.754 16.7285 71.4024C17.9998 72.0508 19.4138 72.3461 20.8267 72.2583C22.236 72.1173 23.5751 71.5781 24.6936 70.7013C25.812 69.8245 26.6654 68.6449 27.1578 67.2951C27.6044 65.9303 27.6468 64.4582 27.2796 63.0614C26.9125 61.6646 26.152 60.4046 25.0924 59.4377C22.3576 57.0574 19.6149 56.7209 16.2075 58.1783" fill="#FF725E"/>
<g opacity="0.7">
<path d="M16.9507 58.0182C14.8195 58.0821 13.3931 60.344 12.7029 62.3232C12.3762 63.3523 12.2861 64.447 12.4396 65.5239C12.5931 66.6009 12.9861 67.6317 13.5887 68.5379C14.3777 69.7466 15.4648 70.7263 16.7394 71.3774C18.014 72.0285 19.4307 72.3278 20.8454 72.2449C22.2564 72.1088 23.5963 71.5751 24.7143 70.7039C25.8324 69.8327 26.6843 68.6584 27.1743 67.3131C27.6185 65.9527 27.6576 64.484 27.2868 63.089C26.9159 61.694 26.1514 60.4343 25.0882 59.4661C22.3441 57.082 19.5967 56.7373 16.1877 58.1804" fill="white"/>
</g>
<path d="M18.9231 63.3417C18.5232 59.9681 17.4437 56.7088 15.7523 53.7686C15.2348 52.7235 14.4755 51.8208 13.5406 51.1392C13.0966 50.7803 12.5536 50.5731 11.9897 50.5474C11.4258 50.5218 10.8702 50.679 10.4026 50.9964C9.9351 51.3138 9.57978 51.7751 9.3878 52.314C9.19581 52.8528 9.17704 53.4414 9.33419 53.9952C9.5819 55.0721 10.0536 56.0842 10.7173 56.9628C12.7004 59.9068 15.2644 61.7169 18.8741 63.3308" fill="white"/>
<path d="M18.9235 63.3418C18.4915 63.2337 18.073 63.0744 17.6765 62.8672C16.562 62.3863 15.4933 61.8001 14.4847 61.1162C12.9825 60.0755 11.6754 58.7675 10.6268 57.2557C9.95854 56.3774 9.46634 55.3745 9.17867 54.3049C9.01433 53.6983 9.02115 53.0583 9.19833 52.4587C9.37551 51.8591 9.71585 51.3243 10.1801 50.916C10.6961 50.5721 11.3012 50.3907 11.9205 50.3944C12.5397 50.3981 13.146 50.5867 13.6644 50.9368C14.578 51.5661 15.3278 52.4132 15.8478 53.4035C16.762 54.9907 17.4978 56.6767 18.041 58.4292C18.4023 59.6052 18.6673 60.8089 18.8333 62.0277C18.917 62.4749 18.9479 62.9302 18.9252 63.3839C18.8368 63.3643 18.6607 61.4677 17.6902 58.5393C17.1015 56.8378 16.3431 55.201 15.427 53.6546C14.9414 52.743 14.2444 51.965 13.3974 51.389C12.9676 51.0946 12.4642 50.9332 11.9485 50.9245C11.4329 50.9159 10.9273 51.0603 10.4934 51.3403C10.1097 51.6894 9.82972 52.1413 9.68486 52.6455C9.53999 53.1496 9.53591 53.6863 9.67307 54.1953C9.95121 55.2008 10.4122 56.1455 11.0321 56.9803C12.0343 58.4621 13.2791 59.7583 14.7113 60.8116C17.1755 62.5578 18.9754 63.2385 18.9235 63.3418Z" fill="#263238"/>
<path d="M21.2858 63.2022C24.5191 62.4527 27.5591 61.028 30.2145 59.0177C31.1696 58.378 31.9541 57.5082 32.4995 56.4842C32.788 55.997 32.9178 55.4282 32.8705 54.8584C32.8232 54.2887 32.6012 53.7469 32.2361 53.3099C31.8709 52.8729 31.381 52.5629 30.836 52.4239C30.291 52.2848 29.7184 52.3238 29.1996 52.5353C28.184 52.9042 27.2589 53.4897 26.4859 54.253C23.862 56.586 22.4174 59.3789 21.3054 63.2065" fill="white"/>
<path d="M21.2867 63.2015C21.3247 62.7519 21.4153 62.3091 21.5567 61.8825C21.9025 60.7021 22.3533 59.5573 22.9036 58.4622C23.7283 56.8274 24.8424 55.3641 26.1903 54.1451C26.9597 53.3668 27.8742 52.7529 28.8809 52.3388C29.4538 52.1097 30.0796 52.0489 30.6877 52.1634C31.2958 52.2778 31.8619 52.563 32.3223 52.9866C32.7205 53.4749 32.9711 54.0699 33.0432 54.6983C33.1153 55.3268 33.0057 55.9613 32.7281 56.5238C32.2298 57.5158 31.4987 58.3654 30.5991 58.9977C29.1534 60.0987 27.5855 61.0238 25.927 61.7542C24.8224 62.2473 23.6792 62.6473 22.5089 62.9501C22.0873 63.0839 21.6502 63.1625 21.2081 63.1841C21.2265 63.0941 23.0402 62.7127 25.7723 61.4065C27.3614 60.6382 28.8627 59.696 30.2499 58.5965C31.081 58.0071 31.7544 57.2162 32.2102 56.2941C32.4421 55.8271 32.5351 55.3001 32.478 54.7775C32.4208 54.2548 32.216 53.7589 31.8884 53.3501C31.4988 52.9991 31.0224 52.7641 30.512 52.6712C30.0016 52.5784 29.4773 52.6314 28.9973 52.8243C28.0514 53.2092 27.189 53.777 26.4572 54.4968C25.1339 55.6699 24.0235 57.0711 23.1759 58.6374C21.8304 61.3477 21.3907 63.2454 21.2867 63.2015Z" fill="#263238"/>
<path d="M18.8466 62.7209C18.0499 62.7531 17.5204 63.5855 17.2489 64.3602C17.1259 64.7475 17.091 65.1589 17.1469 65.5636C17.2027 65.9683 17.3477 66.3556 17.5711 66.6964C17.8681 67.1519 18.2779 67.5196 18.7585 67.7619C19.2391 68.0041 19.7732 68.1121 20.3058 68.0748C20.8362 68.0194 21.3398 67.8151 21.7607 67.4846C22.1815 67.1542 22.5032 66.7104 22.6899 66.2027C22.8561 65.6883 22.8708 65.1343 22.7323 64.6086C22.5938 64.0829 22.3082 63.6084 21.9104 63.2433C21.4663 62.8192 20.9046 62.5458 20.3038 62.4613C19.703 62.3768 19.093 62.4854 18.5591 62.772" fill="#FF725E"/>
<path d="M16.6315 70.5188C16.6192 70.5788 16.1445 70.3378 15.481 69.8145C14.6429 69.0948 13.9773 68.1891 13.5361 67.1681C13.0594 66.1596 12.8963 65.0292 13.0688 63.9294C13.2427 63.0797 13.5768 62.6521 13.6317 62.6852C13.6865 62.7183 13.5273 63.195 13.4386 63.98C13.3703 65.015 13.5608 66.0532 13.9923 66.9975C14.9616 69.2396 16.7351 70.3641 16.6315 70.5188Z" fill="white"/>
<path d="M19.0251 71.2472C19.0574 71.3891 18.7442 71.5686 18.3387 71.4997C17.9332 71.4308 17.7038 71.152 17.7791 71.0339C17.8545 70.9158 18.127 70.9346 18.4248 70.9797C18.7227 71.0249 18.9927 71.1053 19.0251 71.2472Z" fill="white"/>
<path d="M26.5917 63.5706C26.9511 64.6535 26.9257 65.827 26.52 66.8856C26.1142 67.9442 25.3539 68.8207 24.372 69.3617C25.0064 68.5347 25.5528 67.6413 26.0022 66.6963C26.3125 65.6809 26.5102 64.6326 26.5917 63.5706Z" fill="white"/>
<path d="M21.6785 58.6974C21.5248 58.7378 21.3616 58.7236 21.2157 58.6572C21.0647 58.615 20.9348 58.5156 20.8527 58.3796C20.787 58.2509 21.0574 58.0305 21.3999 58.1582C21.7423 58.2859 21.8046 58.6319 21.6785 58.6974Z" fill="white"/>
<path d="M18.6488 67.0409C18.6365 67.1009 18.3786 67.0543 18.0711 66.7979C17.6762 66.4598 17.4174 65.9855 17.3449 65.467C17.2723 64.9485 17.3913 64.4228 17.6787 63.992C17.9 63.6646 18.1177 63.5559 18.1685 63.609C18.2194 63.6621 17.7247 64.4205 17.865 65.3928C18.0054 66.3651 18.7365 66.9139 18.6488 67.0409Z" fill="white"/>
<path d="M19.9142 67.5498C19.9054 67.6219 19.8698 67.6875 19.8147 67.7333C19.7596 67.7791 19.6892 67.8015 19.6178 67.7961C19.5811 67.7983 19.5442 67.7927 19.5096 67.7794C19.4751 67.7662 19.4436 67.7456 19.4172 67.7192C19.3909 67.6927 19.3703 67.6609 19.3569 67.6259C19.3435 67.5909 19.3374 67.5535 19.3392 67.5161C19.3411 67.4787 19.3506 67.4423 19.3674 67.4091C19.3841 67.3759 19.4076 67.3468 19.4364 67.3237C19.4651 67.3006 19.4984 67.2839 19.534 67.2749C19.5697 67.2659 19.6069 67.2647 19.6432 67.2714C19.6788 67.2717 19.7141 67.2792 19.747 67.2933C19.7799 67.3075 19.8099 67.3281 19.835 67.354C19.8602 67.3798 19.8802 67.4104 19.8938 67.4441C19.9073 67.4777 19.9143 67.5136 19.9142 67.5498Z" fill="white"/>
<path d="M62.7593 18.2226C60.633 18.2837 59.2015 20.5652 58.518 22.501C58.1901 23.5311 58.0974 24.6259 58.2469 25.7024C58.3964 26.7789 58.7841 27.8089 59.3806 28.7142C60.1664 29.9249 61.2512 30.9046 62.5244 31.5535C63.7976 32.2023 65.2137 32.4971 66.6284 32.4078C68.0359 32.2688 69.3734 31.731 70.4901 30.8553C71.6067 29.9797 72.458 28.801 72.9477 27.4523C73.3953 26.0862 73.4384 24.6126 73.0716 23.2141C72.7049 21.8155 71.9444 20.5537 70.8844 19.585C68.1594 17.2068 65.4068 16.8682 62.0092 18.3278" fill="#FF725E"/>
<g opacity="0.7">
<path d="M62.7393 18.2274C60.6101 18.2813 59.1817 20.5532 58.5016 22.4826C58.1757 23.5094 58.0853 24.6015 58.2375 25.6761C58.3896 26.7508 58.7802 27.7798 59.3796 28.6851C60.1693 29.8958 61.2578 30.8769 62.5343 31.5285C63.8108 32.1801 65.2297 32.4789 66.6462 32.3944C68.0553 32.2602 69.3936 31.728 70.5099 30.8579C71.6261 29.9878 72.4759 28.8144 72.9633 27.4703C73.4085 26.1087 73.4483 24.6383 73.0778 23.2417C72.7073 21.845 71.9429 20.5834 70.8792 19.6133C68.1449 17.2314 65.3876 16.8845 61.9884 18.3298" fill="white"/>
</g>
<path d="M64.7048 23.5393C64.3222 20.1744 63.2628 16.9197 61.5928 13.9792C61.0634 12.949 60.2975 12.063 59.3611 11.3974C58.9187 11.031 58.374 10.8176 57.807 10.7883C57.24 10.7591 56.6803 10.9156 56.2101 11.2349C55.7398 11.5541 55.3836 12.0195 55.1937 12.5626C55.0037 13.1058 54.9901 13.6984 55.1546 14.2534C55.4031 15.3274 55.8756 16.3363 56.5398 17.2111C58.5229 20.1552 61.0849 21.9752 64.6966 23.5792" fill="white"/>
<path d="M64.7051 23.5392C64.2734 23.43 63.855 23.2708 63.4581 23.0646C62.3458 22.579 61.2775 21.993 60.2663 21.3136C58.7694 20.2672 57.4667 18.957 56.4202 17.4453C55.7546 16.5688 55.262 15.5698 54.97 14.5045C54.8052 13.8962 54.8119 13.2544 54.9894 12.653C55.1669 12.0517 55.5081 11.5153 55.9735 11.1057C56.4898 10.7624 57.0952 10.5823 57.7143 10.5878C58.3335 10.5932 58.939 10.784 59.4558 11.1364C60.3693 11.7657 61.1191 12.6128 61.6392 13.6031C62.5563 15.1856 63.2929 16.8685 63.8344 18.6188C64.1932 19.8001 64.4607 21.0073 64.6345 22.2295C64.7205 22.6723 64.7488 23.1242 64.7185 23.5735C64.3859 21.9426 63.973 20.329 63.4815 18.7389C62.9041 17.0324 62.1494 15.3922 61.2303 13.8465C60.7328 12.938 60.0292 12.1628 59.179 11.5865C58.746 11.2957 58.2417 11.1364 57.7254 11.1274C57.2091 11.1184 56.7024 11.26 56.2651 11.5355C55.8849 11.8895 55.6074 12.3432 55.4625 12.848C55.3176 13.3528 55.3108 13.8895 55.4428 14.4006C55.7218 15.403 56.1835 16.3445 56.8038 17.1755C57.8054 18.6601 59.0493 19.9596 60.4809 21.0168C62.957 22.7553 64.757 23.4359 64.7051 23.5392Z" fill="#263238"/>
<path d="M67.0671 23.3997C70.3024 22.6482 73.3451 21.2246 76.0057 19.2173C76.9574 18.5758 77.7385 17.7053 78.2809 16.6817C78.5805 16.1959 78.719 15.6238 78.676 15.0489C78.6329 14.474 78.4107 13.9265 78.0418 13.4864C77.6729 13.0463 77.1766 12.7368 76.6255 12.603C76.0744 12.4692 75.4975 12.5182 74.9789 12.7428C73.9598 13.0983 73.0335 13.6817 72.2673 14.4505C69.6335 16.7813 68.189 19.5742 67.077 23.4018" fill="white"/>
<path d="M67.0673 23.3987C67.1093 22.9498 67.1998 22.5075 67.3372 22.0797C67.6782 20.9019 68.1251 19.7596 68.6723 18.6672C69.5167 17.0406 70.6426 15.5847 71.9962 14.3689C72.7654 13.5938 73.6793 12.9832 74.6848 12.5726C75.2573 12.3411 75.8836 12.279 76.4922 12.3936C77.1008 12.5081 77.667 12.7947 78.1261 13.2204C78.5247 13.7067 78.7765 14.2996 78.8507 14.9265C78.9249 15.5534 78.8182 16.187 78.5438 16.7497C78.0464 17.7447 77.311 18.5945 76.405 19.2215C74.9792 20.329 73.4273 21.258 71.7821 21.9888C70.6708 22.4802 69.5186 22.8715 68.3386 23.1582C67.9139 23.2926 67.4734 23.3706 67.028 23.39C68.5962 22.8823 70.1345 22.285 71.6355 21.6012C73.2244 20.8276 74.7283 19.8866 76.1229 18.7934C76.9478 18.197 77.6197 17.4078 78.0833 16.491C78.3137 16.0219 78.4061 15.4939 78.3494 14.9701C78.2927 14.4462 78.0893 13.9487 77.7635 13.537C77.3721 13.1858 76.894 12.9506 76.3822 12.8575C75.8703 12.7643 75.3444 12.8167 74.8625 13.009C73.9201 13.4015 73.0609 13.9732 72.3303 14.6936C71.0095 15.8649 69.9 17.2624 69.051 18.8243C67.6405 21.5515 67.1811 23.4448 67.0673 23.3987Z" fill="#263238"/>
<path d="M64.6358 22.9304C63.8314 22.9505 63.2998 23.7928 63.0304 24.5576C62.9063 24.9456 62.8716 25.3583 62.9292 25.7637C62.9868 26.1692 63.135 26.5566 63.3625 26.896C63.6588 27.3495 64.0671 27.7158 64.5458 27.9576C65.0246 28.1994 65.5565 28.3079 66.0873 28.2722C66.6184 28.2242 67.124 28.0238 67.5455 27.6943C67.967 27.3648 68.2873 26.9196 68.4694 26.4101C68.6391 25.8947 68.6559 25.3384 68.5177 24.8104C68.3794 24.2824 68.0923 23.8061 67.6919 23.4407C67.2499 23.0164 66.6897 22.7429 66.0902 22.6587C65.4907 22.5746 64.8822 22.684 64.3504 22.9716" fill="#FF725E"/>
<path d="M62.404 30.7142C62.3917 30.7742 61.9052 30.541 61.2535 30.0099C60.4061 29.2927 59.7334 28.3849 59.289 27.3591C58.8091 26.3523 58.6491 25.2206 58.8315 24.1227C59.0054 23.273 59.3297 22.8432 59.3845 22.8763C59.4394 22.9093 59.2802 23.3861 59.1894 24.1811C59.1212 25.2148 59.316 26.2514 59.755 27.1907C60.7419 29.4472 62.5174 30.5617 62.404 30.7142Z" fill="white"/>
<path d="M64.8062 31.4446C64.8385 31.5865 64.5331 31.7781 64.1276 31.7092C63.722 31.6402 63.4828 31.3593 63.5602 31.2313C63.6377 31.1033 63.9081 31.132 64.2059 31.1771C64.5038 31.2222 64.7739 31.3027 64.8062 31.4446Z" fill="white"/>
<path d="M72.3807 23.7802C72.7422 24.863 72.7178 26.0372 72.3119 27.0963C71.9059 28.1555 71.1444 29.0318 70.1611 29.5713C70.7786 28.7383 71.3084 27.8414 71.7419 26.8949C72.0606 25.883 72.2747 24.8391 72.3807 23.7802Z" fill="white"/>
<path d="M67.4595 18.8948C67.3099 18.9417 67.1477 18.9281 67.0065 18.8568C66.8498 18.8221 66.6856 18.7234 66.6337 18.577C66.5818 18.4305 66.8384 18.2278 67.1808 18.3556C67.5233 18.4833 67.5933 18.8414 67.4595 18.8948Z" fill="white"/>
<path d="M64.4403 27.2405C64.4281 27.3005 64.1702 27.2539 63.8705 27.0097C63.4652 26.6692 63.197 26.1887 63.118 25.6614C63.0351 25.1449 63.1431 24.6174 63.4211 24.1809C63.6403 23.8634 63.8678 23.757 63.9109 23.7979C63.9539 23.8388 63.4769 24.6115 63.6152 25.5937C63.7536 26.576 64.5162 27.1213 64.4403 27.2405Z" fill="white"/>
<path d="M65.6957 27.7472C65.6926 27.7834 65.6824 27.8185 65.6658 27.8505C65.6491 27.8826 65.6264 27.9109 65.5988 27.9338C65.5712 27.9567 65.5394 27.9737 65.5052 27.984C65.4709 27.9942 65.435 27.9974 65.3994 27.9934C65.3634 27.9946 65.3275 27.9881 65.2939 27.9744C65.2603 27.9608 65.2299 27.9402 65.2044 27.914C65.1789 27.8879 65.159 27.8567 65.1459 27.8224C65.1328 27.7881 65.1269 27.7516 65.1284 27.715C65.1315 27.6788 65.1417 27.6437 65.1583 27.6116C65.175 27.5796 65.1977 27.5513 65.2253 27.5284C65.2529 27.5055 65.2847 27.4884 65.3189 27.4782C65.3532 27.4679 65.3891 27.4647 65.4247 27.4688C65.4959 27.4719 65.5635 27.5024 65.6138 27.5541C65.6641 27.6058 65.6934 27.6748 65.6957 27.7472Z" fill="white"/>
</svg>
