<svg width="92" height="149" viewBox="0 0 92 149" fill="none" xmlns="http://www.w3.org/2000/svg">
<path d="M14 52.9524C14 52.9524 16.8897 73.5248 22.5744 82.8544C28.2591 92.1839 37.4026 100.05 41.1782 104.065C44.9539 108.08 51.4395 115.856 54.7016 123.499C57.9637 131.141 64.5665 143.703 64.5665 143.703L65.1374 143.569C65.1374 143.569 52.4832 112.088 48.759 104.559C45.0348 97.0294 38.6579 88.4104 32.0116 79.9288C25.3654 71.4471 14 52.9524 14 52.9524Z" fill="#455A64"/>
<path d="M31.7734 5.01207C31.7734 5.01207 24.8153 23.4626 33.1899 54.9057C41.5646 86.3489 47.6133 102.768 51.4221 107.995C55.2308 113.221 65.1283 143.57 65.1283 143.57C65.1283 143.57 64.1394 132.688 58.2247 108.897C52.3099 85.1071 45.9136 61.5557 45.9136 61.5557L31.7734 5.01207Z" fill="#455A64"/>
<path d="M79.031 39.8113C79.031 39.8113 72.5688 87.6019 70.5243 103.522C68.4798 119.443 65.128 143.57 65.128 143.57C65.128 143.57 71.9569 128.312 75.7653 121.064C79.5737 113.816 82.8213 101.761 82.3491 92.3442C81.8769 82.9279 85.802 63.4012 83.8899 52.9922C81.9778 42.5832 79.031 39.8113 79.031 39.8113Z" fill="#455A64"/>
<path d="M59.9743 10.2324C54.0156 23.4842 51.4997 38.0904 52.6707 52.6333C54.8646 76.1088 56.1364 104.072 60.6283 112.716C65.1201 121.36 65.1948 143.647 65.1948 143.647C65.1948 143.647 66.8207 109.763 67.1259 100.987C67.4311 92.2109 64.0705 43.7679 64.0705 43.7679L59.9743 10.2324Z" fill="#455A64"/>
<path d="M65.1284 143.57C58.9891 130.442 44.4134 119.028 33.3803 109.839C24.156 102.148 15.5704 93.6853 7.71191 84.5376C10.8092 98.4409 18.9292 110.625 30.4368 118.635C41.1871 126.039 55.6055 134.081 64.5576 143.704" fill="#455A64"/>
</svg>
