<svg width="94" height="163" viewBox="0 0 94 163" fill="none" xmlns="http://www.w3.org/2000/svg">
<path d="M9.36621 45.2634C9.36621 45.2634 0.86184 64.1306 0.673647 75.1295C0.485455 86.1284 3.97519 97.8318 5.00901 103.307C6.04283 108.783 7.35181 118.926 6.02786 127.157C4.70389 135.389 3.56909 149.611 3.56909 149.611L4.11876 149.818C4.11876 149.818 10.2286 116.349 11.1048 107.954C11.9809 99.5602 11.2111 88.7707 10.1424 77.9459C9.07378 67.1212 9.36621 45.2634 9.36621 45.2634Z" fill="#455A64"/>
<path d="M49.737 14.982C49.737 14.982 34.1007 26.5702 24.4219 57.6173C14.7431 88.6644 11.0943 105.812 11.5123 112.323C11.9304 118.833 4.10977 149.813 4.10977 149.813C4.10977 149.813 9.06136 140.134 16.738 116.879C24.4146 93.6235 31.5605 70.2997 31.5605 70.2997L49.737 14.982Z" fill="#455A64"/>
<path d="M70.8856 70.5571C70.8856 70.5571 40.08 107.029 29.9086 119.239C19.7371 131.45 4.10977 149.813 4.10977 149.813C4.10977 149.813 17.9422 140.829 24.9862 136.878C32.0301 132.926 41.1576 124.629 45.7634 116.468C50.3692 108.307 64.0335 94.1224 67.959 84.3249C71.8846 74.5274 70.8856 70.5571 70.8856 70.5571Z" fill="#455A64"/>
<path d="M70.6154 35.1082C58.5788 42.8946 48.7101 53.7395 41.9671 66.59C31.337 87.5034 17.5498 111.666 16.7254 121.424C15.9009 131.181 4.1252 149.914 4.1252 149.914C4.1252 149.914 23.4877 122.405 28.4053 115.215C33.3229 108.025 56.237 65.5209 56.237 65.5209L70.6154 35.1082Z" fill="#455A64"/>
<path d="M4.11042 149.813C5.93496 135.375 -0.226316 117.663 -4.59814 103.795C-8.24895 92.1935 -10.954 80.3015 -12.6855 68.2412C-17.4732 81.6311 -17.1351 96.3837 -11.7393 109.528C-6.65599 121.74 1.16463 136.537 3.56076 149.606" fill="#455A64"/>
</svg>
