<svg width="56" height="50" viewBox="0 0 56 50" fill="none" xmlns="http://www.w3.org/2000/svg">
<path d="M45.4105 8.10687C45.6058 9.33835 45.557 10.5976 45.2668 11.8093C44.9767 13.021 44.4512 14.1602 43.7218 15.1589C42.2447 17.1473 40.344 18.7635 38.1648 19.8838C34.0149 22.1462 28.6466 22.6923 23.9527 22.4642C24.5252 17.1472 28.9304 12.8876 31.2923 10.8684C35.0257 7.67181 43.7052 4.22896 45.4105 8.10687Z" fill="#FF725E"/>
<path d="M20.2336 30.8206C21.176 29.8138 22.3616 29.0807 23.6699 28.6958C24.9781 28.311 26.3625 28.288 27.6822 28.6294C28.9943 28.9944 30.2224 29.6237 31.2948 30.4806C32.3672 31.3374 33.2625 32.4046 33.9284 33.62C34.2928 34.1446 34.5412 34.7444 34.6563 35.3775C34.7715 36.0107 34.7505 36.662 34.595 37.286C34.3577 37.8369 33.9805 38.3124 33.5027 38.6627C33.025 39.0131 32.4642 39.2254 31.879 39.2777C30.7022 39.3774 29.5209 39.1511 28.4587 38.6224C24.7642 37.0019 21.4746 34.7425 20.2336 30.8206Z" fill="#FF725E"/>
<path d="M5.63414 34.9247C5.90835 34.7282 6.20484 34.5665 6.51709 34.4433C7.14979 34.1565 7.95026 33.7781 8.91905 33.3313C11.5392 32.0082 14.3526 31.1334 17.2481 30.7414C20.1777 30.3838 23.1473 30.8331 25.8512 32.0432C26.6555 32.4246 27.4146 32.8991 28.1136 33.4575C28.3599 33.6484 28.5343 33.832 28.6577 33.9389C28.7252 33.9942 28.7828 34.061 28.8281 34.1363C27.8714 33.4033 26.8408 32.7778 25.7539 32.2705C23.0819 31.1447 20.1752 30.7317 17.3054 31.0702C14.4417 31.4674 11.6516 32.2996 9.02703 33.5395C8.00415 33.9694 7.16723 34.3211 6.58225 34.5472C6.28014 34.7071 5.96233 34.8336 5.63414 34.9247Z" fill="#263238"/>
<path d="M39.056 11.3158C38.9578 11.4194 38.8525 11.5156 38.7409 11.6037C38.4907 11.7982 38.1792 12.0493 37.7888 12.3666C36.9904 13.0109 35.761 13.9599 34.259 15.1039C31.2461 17.3967 27.0541 20.4949 22.3529 23.8127C17.6517 27.1304 13.3164 30.0397 10.1544 32.0887C8.57374 33.1246 7.28744 33.942 6.39734 34.4969C5.95587 34.7376 5.62617 34.9754 5.35715 35.1336C5.23993 35.2127 5.11578 35.2804 4.98631 35.3358C5.08801 35.2335 5.2015 35.1443 5.32428 35.0703C5.598 34.921 5.90948 34.67 6.32748 34.384C7.23412 33.7736 8.49282 32.9248 10.0241 31.881C13.1444 29.7735 17.4568 26.8419 22.158 23.5241C26.8591 20.2064 31.07 17.1443 34.111 14.9059C35.6006 13.8035 36.8223 12.9052 37.7101 12.2586L38.6992 11.5451C38.8107 11.4571 38.9302 11.3803 39.056 11.3158Z" fill="#263238"/>
<path d="M15.9811 13.8394C16.0762 14.1352 16.1363 14.4417 16.16 14.7522C16.2256 15.1133 16.2674 15.4784 16.2852 15.8453C16.3326 16.3262 16.3564 16.8094 16.3563 17.2929C16.3623 17.88 16.3379 18.467 16.283 19.0515C16.2342 19.7243 16.1505 20.394 16.0323 21.0578C15.7452 22.5812 15.2923 24.0667 14.6821 25.4866C14.0484 26.8934 13.2582 28.2205 12.3272 29.4412C11.9183 29.9707 11.4811 30.4765 11.0177 30.9564C10.6166 31.3793 10.1916 31.7777 9.74503 32.1496C9.38898 32.4696 9.01205 32.7643 8.61688 33.0317C8.33433 33.2526 8.03731 33.4533 7.7279 33.6324C7.47622 33.8077 7.20683 33.9545 6.92442 34.0705C6.89155 34.0071 8.03 33.3632 9.59291 31.9654C10.0188 31.5835 10.4255 31.1796 10.8114 30.7553C11.2391 30.3132 11.6468 29.789 12.0809 29.2503C12.9771 28.035 13.7444 26.7253 14.3699 25.3432C14.9719 23.949 15.4238 22.4917 15.7176 20.997C15.8515 20.3464 15.9489 19.6884 16.0095 19.0264C16.0838 18.4053 16.0874 17.8226 16.1057 17.2901C16.1431 15.1563 15.8959 13.8279 15.9811 13.8394Z" fill="#263238"/>
</svg>
