<svg width="125" height="176" viewBox="0 0 125 176" fill="none" xmlns="http://www.w3.org/2000/svg">
<path d="M90.3887 152.564C94.9545 150.199 99.0075 146.913 102.305 142.904C105.602 138.894 108.076 134.243 109.578 129.229C109.677 129.016 109.724 128.782 109.716 128.546C109.708 128.311 109.645 128.08 109.533 127.875C109.195 127.442 108.5 127.535 108.011 127.682C97.4361 130.689 91.1085 141.353 90.3914 152.595" fill="#455A64"/>
<path d="M55.4567 95.0452C47.3818 92.2628 38.6748 92.05 30.4798 94.4347C37.6955 98.5322 44.952 102.636 52.6346 105.735C60.3172 108.833 68.4758 110.921 76.735 110.778C71.2639 103.546 63.8764 98.0841 55.4567 95.0452Z" fill="#455A64"/>
<path d="M67.8737 88.9293C62.1709 81.5055 53.9402 76.336 45.0839 73.6001C36.1818 71.0189 26.8683 70.2766 17.684 71.4162C24.0419 78.3265 31.9219 83.5745 40.6643 86.7209C49.4067 89.8672 58.757 90.8203 67.9324 89.5004L67.8737 88.9293Z" fill="#455A64"/>
<path d="M13.1152 52.5791C17.9141 58.3526 24.19 62.6375 31.2359 64.9512C38.4751 67.2506 46.1871 67.4943 53.5507 65.6564L53.0778 64.9371C41.4489 56.4154 27.4003 52.071 13.1152 52.5791Z" fill="#455A64"/>
<path d="M5.54297 36.7703C9.31958 41.089 14.307 44.1038 19.8209 45.401C25.3005 46.6797 32.0498 46.7227 37.2304 44.498C27.6977 38.6338 16.6299 35.9347 5.54297 36.7703Z" fill="#455A64"/>
<path d="M24.9001 31.164C21.7566 29.4568 18.2983 28.4459 14.7493 28.1968C11.2003 27.9478 7.63991 28.4662 4.29886 29.7184C10.7801 32.8608 18.167 33.4301 25.0336 31.3167L24.9001 31.164Z" fill="#455A64"/>
<path d="M24.1722 12.6309C23.4023 19.4473 24.2152 26.3538 26.5445 32.7867C27.6289 29.4565 27.9785 25.9209 27.5683 22.4354C27.158 18.9498 25.9981 15.601 24.1722 12.6309Z" fill="#455A64"/>
<path d="M0.863281 9.81226C2.66108 13.9994 5.35503 17.7179 8.74539 20.6921C12.1357 23.6663 16.1356 25.8199 20.4483 26.9933L20.8492 26.7515C16.3692 18.8433 9.28137 12.8359 0.863281 9.81226Z" fill="#455A64"/>
<path d="M62.2983 47.5909C61.0649 39.0769 57.2628 31.1724 51.4255 24.9865C49.1452 40.7324 53.0939 57.5973 57.9273 72.7154L58.1646 72.4369C62.0396 64.8008 63.4852 56.1123 62.2983 47.5909Z" fill="#455A64"/>
<path d="M42.7417 29.3267C40.6296 22.4556 37.0334 16.1911 33.4632 9.99629C33.8024 23.7468 36.6279 37.3132 41.7959 50.0065L42.7195 51.0661C45.3418 44.3878 44.8429 36.1884 42.7417 29.3267Z" fill="#455A64"/>
<path d="M79.841 43.7735C76.5727 52.527 73.4425 61.371 71.6982 70.5744C69.9539 79.7778 69.6604 89.3966 72.0677 98.4335L72.3495 98.0891C77.1614 90.0451 80.3094 81.0728 81.5981 71.7292C82.8868 62.3856 82.2887 52.8702 79.841 43.7735Z" fill="#455A64"/>
<path d="M79.1361 121.153C80.9478 99.6981 86.9963 78.8454 96.9138 59.8625C100.62 82.0084 93.5854 104.264 79.1361 121.153Z" fill="#455A64"/>
<path d="M60.8264 115.035C51.8782 110.118 41.8001 107.771 31.6582 108.244C45.2108 122.138 63.5594 132.359 81.862 138.158C78.2719 128.435 69.6479 120.069 60.8264 115.035Z" fill="#455A64"/>
<path d="M117.601 85.8476C115.712 98.941 110.795 111.381 103.26 122.128C100.931 125.636 98.0847 128.753 94.8232 131.366C91.504 133.876 85.8164 136.63 81.963 137.233C91.409 119.352 104.886 101.418 117.597 85.8068" fill="#455A64"/>
<path d="M1.00586 10.0671C1.14183 10.1514 1.27358 10.2426 1.4006 10.3405L2.47698 11.1908C3.44502 11.948 4.91265 13.0308 6.71574 14.5158C10.3674 17.4303 15.5224 21.8465 21.5881 27.6425C28.6727 34.4494 35.348 41.6905 41.5774 49.3262C45.0786 53.6539 48.6367 58.2957 52.1313 63.2519C55.6259 68.2081 59.0288 73.5018 62.3314 79.031C68.9275 90.1005 74.2038 101.35 77.2063 112.186C78.5763 117.324 79.671 122.534 80.4855 127.794C81.3266 132.71 81.9913 137.323 82.5115 141.538C83.5519 149.966 83.9981 156.843 84.2215 161.578C84.3141 163.957 84.3506 165.796 84.3473 167.052C84.3453 167.656 84.3456 168.13 84.3481 168.473C84.3751 168.789 84.3292 168.958 84.3292 168.958C84.3067 168.799 84.2931 168.639 84.2883 168.478L84.2732 167.007C84.2375 165.765 84.1711 163.929 84.0486 161.552C83.8045 156.809 83.3102 149.957 82.22 141.533C81.6807 137.33 80.997 132.729 80.136 127.815C79.3032 122.576 78.1903 117.388 76.8022 112.274C73.7551 101.504 68.4931 90.3042 61.9395 79.2617C58.6387 73.7529 55.2275 68.4805 51.762 63.5114C48.2964 58.5423 44.74 53.921 41.2596 49.6017C35.0456 41.9586 28.3928 34.7021 21.3366 27.8708C15.3189 22.05 10.2011 17.5997 6.59583 14.6398C4.80917 13.1121 3.36059 12.0173 2.42069 11.237L1.33734 10.305L1.00586 10.0671Z" fill="#263238"/>
<path d="M38.0308 27.0628C38.1703 27.0503 39.3347 32.2258 40.6171 38.667C41.8995 45.1081 42.8447 50.3033 42.7052 50.3158C42.5658 50.3283 41.4005 45.1426 40.1081 38.7023C38.8158 32.262 37.8814 27.0762 38.0308 27.0628Z" fill="#263238"/>
<path d="M54.7694 40.9999C54.9089 40.9874 55.7567 47.9822 56.6452 56.6304C57.5337 65.2786 58.1533 72.3041 57.9848 72.3296C57.8163 72.355 57.0075 65.3464 56.1081 56.6889C55.2088 48.0313 54.63 41.0125 54.7694 40.9999Z" fill="#263238"/>
<path d="M53.0284 65.1785C52.6836 65.1672 52.3416 65.1114 52.0104 65.0125L49.3146 64.3589L40.5118 62.1329L31.7035 59.9588L29.0358 59.2821C28.7014 59.2169 28.3757 59.1114 28.0654 58.9678C28.4063 58.9493 28.7478 58.9846 29.0782 59.0725C29.7197 59.1796 30.639 59.3647 31.7826 59.5915C34.0608 60.0562 37.1928 60.7633 40.6385 61.6172C44.0842 62.4711 47.2158 63.2915 49.4434 63.9871C50.5659 64.3187 51.5029 64.5949 52.0809 64.7798C52.4113 64.8726 52.7295 65.0065 53.0284 65.1785Z" fill="#263238"/>
<path d="M78.217 63.6806C78.2029 64.1391 78.1477 64.5954 78.0523 65.0437C77.8843 66.0159 77.6792 67.2591 77.4235 68.7333C76.8781 71.8699 76.0464 76.1232 75.1752 80.8534L72.8303 92.9C72.5409 94.4492 72.3674 95.7101 72.2613 96.5842C72.2405 97.0398 72.1817 97.4926 72.0857 97.9379C72.0231 97.4818 72.014 97.0196 72.0586 96.5612C72.122 95.3469 72.2465 94.1368 72.4318 92.9357C72.9374 89.8027 73.8071 85.5254 74.6684 80.796C75.5297 76.0666 76.4301 71.7968 77.0705 68.7134L77.8621 65.0504C77.931 64.5818 78.05 64.1224 78.217 63.6806Z" fill="#263238"/>
<path d="M31.541 75.5867C32.0006 75.8051 32.4422 76.0615 32.8612 76.3534C34.0477 77.0539 35.2874 77.6552 36.5682 78.1514C38.4699 78.8802 40.4189 79.4723 42.401 79.9233C44.6354 80.4639 47.1254 80.9405 49.7272 81.551C54.1787 82.5819 58.5026 84.124 62.617 86.1482C64.1898 86.9334 65.4242 87.6358 66.2608 88.1474C66.7141 88.3859 67.1421 88.6717 67.5382 89.0003C67.066 88.8106 66.6075 88.5869 66.1661 88.3309C65.3039 87.873 64.0639 87.2226 62.4557 86.492C58.3269 84.5856 54.0242 83.103 49.6105 82.0659C47.0196 81.4646 44.498 80.9703 42.2916 80.4066C40.3062 79.9224 38.3592 79.2851 36.4674 78.5001C35.1802 77.9663 33.9471 77.3048 32.7855 76.5249C32.3808 76.2524 32.0883 76.0007 31.8742 75.845C31.7521 75.775 31.64 75.6881 31.541 75.5867Z" fill="#263238"/>
<path d="M44.9746 95.8513C45.4212 95.9555 45.8572 96.1025 46.2769 96.2903C47.097 96.6078 48.2823 97.0882 49.7398 97.6985C52.6546 98.9191 56.6587 100.67 61.0393 102.716C65.4199 104.763 69.3292 106.697 72.1437 108.153C73.55 108.871 74.6761 109.48 75.456 109.914C75.8687 110.115 76.2622 110.356 76.6315 110.632C76.1923 110.501 75.7671 110.326 75.3621 110.108L71.9823 108.497L60.8628 103.236L49.6408 98.0676L46.2345 96.4999C45.7935 96.3297 45.3712 96.1123 44.9746 95.8513Z" fill="#263238"/>
<path d="M91.8575 84.9561C91.7359 85.4431 91.5678 85.9167 91.3557 86.37C91.0114 87.2757 90.5408 88.5839 90.0184 90.226C88.9637 93.5113 87.946 98.1724 86.6262 103.293C86.0018 105.701 85.2455 108.071 84.3611 110.392C83.6252 112.28 82.7764 114.119 81.8196 115.9C81.0061 117.424 80.295 118.62 79.7934 119.447C79.5616 119.892 79.2882 120.313 78.9772 120.704C79.1497 120.232 79.3664 119.778 79.6244 119.349C80.1056 118.4 80.7352 117.191 81.4933 115.723C82.4084 113.932 83.223 112.09 83.9335 110.204C84.7849 107.888 85.515 105.528 86.1207 103.132C87.4331 98.0434 88.5196 93.3658 89.6658 90.093C90.1021 88.7944 90.6031 87.5196 91.1668 86.2737C91.3611 85.8157 91.5921 85.375 91.8575 84.9561Z" fill="#263238"/>
<path d="M106.752 106.458C106.457 106.891 106.121 107.293 105.75 107.66C105.071 108.4 104.133 109.524 103.018 110.931C100.758 113.738 97.9576 117.859 94.8643 122.428C93.3022 124.709 91.7561 126.824 90.2831 128.737C88.9742 130.409 87.5755 132.005 86.0935 133.518C85.4775 134.18 84.8601 134.709 84.3289 135.189C83.8848 135.6 83.4183 135.986 82.9317 136.343C82.5368 136.69 82.1132 137 81.6656 137.27C82.0081 136.859 82.3856 136.481 82.7938 136.14C83.177 135.807 83.6346 135.405 84.1325 134.887C84.6303 134.369 85.2278 133.842 85.833 133.17C87.0677 131.876 88.4421 130.219 89.8987 128.349C91.3552 126.479 92.8671 124.316 94.3802 122.05C97.4736 117.48 100.335 113.374 102.68 110.611C103.584 109.506 104.542 108.448 105.551 107.441C105.922 107.077 106.324 106.748 106.752 106.458Z" fill="#263238"/>
<path d="M51.7666 116.619C52.203 116.823 52.6178 117.072 53.0045 117.363L56.262 119.541C58.9966 121.354 62.765 123.99 66.9273 126.89C71.0896 129.789 74.8221 132.357 77.5181 134.307L80.7255 136.603C81.1132 136.88 81.4757 137.192 81.8088 137.535C81.3713 137.333 80.9537 137.087 80.5619 136.803L77.2961 134.646C74.5516 132.834 70.7667 130.24 66.6369 127.369C62.5071 124.497 58.7759 121.826 56.0907 119.885L52.8816 117.569C52.483 117.287 52.1098 116.97 51.7666 116.619Z" fill="#263238"/>
<path d="M15.6211 40.0654C16.6583 40.2328 17.6842 40.4674 18.6925 40.7677C20.6003 41.245 23.2428 41.8622 26.1916 42.4211C29.1403 42.98 31.8225 43.3569 33.7718 43.6143C34.8322 43.6999 35.8855 43.8599 36.9245 44.0931C35.86 44.1609 34.7916 44.1258 33.7335 43.9883C31.7123 43.8299 29.0544 43.5023 26.0957 42.9443C23.5813 42.4752 21.0913 41.8775 18.6351 41.1537C17.5987 40.891 16.5893 40.5266 15.6211 40.0654Z" fill="#263238"/>
<path d="M24.6503 30.9493C23.1716 30.8527 21.6989 30.6756 20.2384 30.4188C18.7536 30.3491 17.2733 30.2002 15.8036 29.9726C17.2831 29.667 18.8043 29.6387 20.2936 29.8889C21.7967 29.9677 23.2731 30.327 24.6503 30.9493Z" fill="#263238"/>
<path d="M24.5322 20.9662C25.1938 22.8 25.6332 24.7101 25.8406 26.6537C26.2101 28.5699 26.3366 30.5269 26.217 32.4763C25.8188 30.5791 25.5211 28.6611 25.3252 26.7309C24.9504 24.827 24.6856 22.9021 24.5322 20.9662Z" fill="#263238"/>
<path d="M56.75 134.555C57.2318 134.841 57.6868 135.172 58.1093 135.544C58.959 136.209 60.1689 137.212 61.6033 138.494C65.3807 141.85 68.8203 145.586 71.8703 149.645C73.5278 151.903 75.0255 154.28 76.3519 156.757C76.9039 157.932 77.5476 159.007 77.9016 160.097L78.5257 161.646C78.6897 162.156 78.852 162.646 79.0017 163.106C79.2891 163.944 79.5263 164.799 79.712 165.667C79.8041 166.04 79.8844 166.393 79.963 166.725C80.0415 167.058 80.0161 167.348 80.1103 167.628C80.2089 168.188 80.2574 168.755 80.2549 169.324C80.1354 169.334 79.8691 166.919 78.611 163.234C78.4414 162.776 78.2801 162.296 78.097 161.798C77.914 161.3 77.6711 160.807 77.4556 160.281C77.0336 159.217 76.4405 158.149 75.8803 156.995C74.5456 154.554 73.0509 152.209 71.4066 149.975C68.3739 145.946 64.9974 142.202 61.3171 138.787C59.9091 137.462 58.7456 136.414 57.9331 135.714C57.5107 135.359 57.1152 134.971 56.75 134.555Z" fill="#263238"/>
<path d="M99.2668 137.791C99.0504 138.185 98.7924 138.553 98.4972 138.889C97.9627 139.565 97.226 140.578 96.3716 141.859C95.3683 143.36 94.442 144.913 93.5966 146.513C91.5301 150.438 89.987 154.63 89.0087 158.977C88.6069 160.75 88.2976 162.543 88.0819 164.35C87.9029 165.9 87.7892 167.155 87.7529 168.023C87.7538 168.476 87.7116 168.928 87.6271 169.372C87.5405 168.929 87.5019 168.477 87.512 168.024C87.4999 166.785 87.5551 165.547 87.6773 164.314C87.8421 162.49 88.1166 160.678 88.4992 158.889C88.9826 156.69 89.6061 154.527 90.3658 152.412C91.1538 150.312 92.0795 148.269 93.1365 146.297C94.007 144.689 94.9743 143.137 96.0328 141.653C96.7361 140.649 97.4915 139.684 98.2958 138.763C98.5855 138.405 98.911 138.079 99.2668 137.791Z" fill="#263238"/>
<path d="M76.5198 170.379C76.4002 170.39 75.9948 168.697 74.6521 166.255C74.4856 165.951 74.2983 165.638 74.1067 165.274C73.915 164.911 73.6806 164.633 73.4517 164.304C72.9625 163.586 72.4378 162.895 71.8796 162.232C70.5735 160.732 69.1491 159.345 67.6209 158.086C66.0689 156.85 64.4465 155.71 62.7623 154.672C61.2008 153.783 59.7488 152.884 58.5483 152.343C57.3477 151.802 56.2893 151.28 55.5796 150.963C55.2102 150.829 54.8579 150.649 54.5303 150.429C54.926 150.497 55.3128 150.611 55.6835 150.768C56.4178 151.021 57.4658 151.421 58.7296 151.998C60.1937 152.678 61.6221 153.436 63.009 154.269C64.7278 155.294 66.3779 156.435 67.9482 157.686C69.5002 158.968 70.9383 160.389 72.2455 161.932C72.8057 162.617 73.3292 163.333 73.8137 164.076C74.0343 164.427 74.2632 164.756 74.4488 165.048L74.9742 166.03C75.278 166.594 75.5426 167.179 75.7661 167.781C75.9603 168.219 76.1167 168.673 76.2333 169.139C76.3715 169.541 76.4675 169.956 76.5198 170.379Z" fill="#263238"/>
<path d="M113.297 149.161C113.307 149.273 111.735 149.445 109.374 150.244C107.976 150.724 106.62 151.324 105.321 152.038C102.137 153.78 99.3498 156.195 97.1422 159.122C96.2367 160.31 95.4345 161.577 94.745 162.908C93.5749 165.195 93.1352 166.748 93.062 166.713C93.0957 166.334 93.1823 165.963 93.3191 165.609C93.4343 165.183 93.5763 164.764 93.7443 164.357C93.9493 163.806 94.1814 163.267 94.4395 162.74C95.091 161.357 95.8732 160.042 96.7747 158.815C97.8974 157.327 99.1628 155.959 100.552 154.73C101.966 153.525 103.498 152.474 105.123 151.593C106.455 150.892 107.848 150.32 109.283 149.881C109.832 149.708 110.389 149.565 110.953 149.454C111.374 149.356 111.8 149.284 112.229 149.236C112.581 149.167 112.939 149.142 113.297 149.161Z" fill="#263238"/>
</svg>
