<svg width="1728" height="300" viewBox="0 0 1728 300" fill="none" xmlns="http://www.w3.org/2000/svg">
<path d="M32.5902 184.614C37.6757 185.18 42.8203 184.688 47.7157 183.166C52.611 181.645 57.1564 179.125 61.0793 175.759C61.2751 175.635 61.4392 175.466 61.5577 175.263C61.6763 175.061 61.746 174.833 61.7609 174.598C61.7072 174.046 61.0751 173.736 60.5867 173.586C50.1207 170.203 39.1491 175.613 32.5762 184.641" fill="#455A64"/>
<path d="M33.8473 116.867C28.5531 110.024 21.3638 104.984 13.2241 102.407C17.0992 109.873 21.0049 117.367 25.8023 124.256C30.5996 131.145 36.3327 137.452 43.3359 141.944C42.5887 132.824 39.2944 124.117 33.8473 116.867Z" fill="#455A64"/>
<path d="M47.5101 118.672C46.6708 109.261 42.5139 100.33 36.5397 93.0895C30.4448 85.9535 23.0282 80.13 14.7202 75.957C16.3817 85.3029 20.2028 94.1047 25.8634 101.625C31.5241 109.146 38.8597 115.167 47.256 119.184L47.5101 118.672Z" fill="#455A64"/>
<path d="M20.8945 57.6078C21.8524 65.1297 24.8396 72.2279 29.5198 78.103C34.3698 84.074 40.7081 88.585 47.8601 91.1556L47.8455 90.2883C42.6193 76.6475 33.1449 65.1588 20.8945 57.6078Z" fill="#455A64"/>
<path d="M22.9414 40.1206C23.8147 45.8516 26.396 51.1651 30.3314 55.3322C34.2476 59.4645 39.8853 63.2696 45.4119 64.2968C40.532 54.0553 32.6835 45.6111 22.9414 40.1206Z" fill="#455A64"/>
<path d="M42.1541 46.2282C40.4245 43.041 38.0611 40.262 35.217 38.0713C32.3728 35.8806 29.1114 34.3271 25.6442 33.5116C29.4107 39.7663 35.3034 44.3688 42.1849 46.4308L42.1541 46.2282Z" fill="#455A64"/>
<path d="M51.3874 30.2786C47.1209 35.5654 44.134 41.8116 42.6705 48.5074C45.3488 46.32 47.5201 43.5501 49.0276 40.3977C50.535 37.2454 51.341 33.7892 51.3874 30.2786Z" fill="#455A64"/>
<path d="M33.3369 14.8987C32.6205 19.4142 32.9046 24.0372 34.1681 28.4249C35.4316 32.8125 37.6422 36.8523 40.6358 40.2447L41.1006 40.2658C41.5441 31.1316 38.7908 22.1354 33.3369 14.8987Z" fill="#455A64"/>
<path d="M64.7933 80.8896C68.2814 73.0603 69.2915 64.3079 67.6818 55.8602C57.4054 67.7926 51.7585 84.1416 47.7816 99.5199L48.1285 99.4187C55.4346 95.1786 61.2622 88.699 64.7933 80.8896Z" fill="#455A64"/>
<path d="M58.0927 54.6507C59.9712 47.7087 60.2829 40.4466 60.5793 33.2575C53.5597 44.9791 48.7229 57.9347 46.3147 71.4661L46.5264 72.8705C52.273 68.7341 56.2101 61.5788 58.0927 54.6507Z" fill="#455A64"/>
<path d="M81.5327 87.4841C74.1419 93.0002 66.8188 98.6695 60.4672 105.414C54.1155 112.159 48.7599 120.062 45.9786 128.985L46.3978 128.854C54.7063 124.794 62.1125 119.027 68.1565 111.911C74.2005 104.794 78.7535 96.4801 81.5327 87.4841Z" fill="#455A64"/>
<path d="M39.838 151.986C52.754 135.004 68.9035 120.893 87.3045 110.511C78.6494 131.154 60.9276 145.891 39.838 151.986Z" fill="#455A64"/>
<path d="M27.7323 136.63C22.8397 127.51 15.6339 119.914 6.87695 114.647C10.863 133.867 20.8221 152.686 33.0914 167.77C35.2453 157.611 32.4566 145.779 27.7323 136.63Z" fill="#455A64"/>
<path d="M90.8523 143.857C82.3136 153.783 71.5817 161.47 59.5535 166.276C55.7365 167.917 51.6941 168.942 47.5707 169.312C43.4534 169.564 37.2206 168.697 33.6685 167.051C51.0889 157.33 71.9179 149.815 90.8711 143.82" fill="#455A64"/>
<path d="M33.3213 15.1918C33.3906 15.3384 33.4526 15.4885 33.5071 15.6415L33.9582 16.9557C34.3679 18.1313 35.0235 19.859 35.7469 22.1113C37.2613 26.5948 39.2388 33.1772 41.2472 41.4254C43.573 51.0903 45.325 60.891 46.4934 70.7734C47.1309 76.3582 47.6493 82.238 47.9475 88.3461C48.2456 94.4542 48.2875 100.794 48.1202 107.276C47.7721 120.243 46.2215 132.624 42.9836 143.389C41.4037 148.462 39.5542 153.443 37.4432 158.309C35.5371 162.902 33.6441 167.142 31.8418 170.967C28.2371 178.617 24.9586 184.633 22.6307 188.729C21.4444 190.776 20.4981 192.339 19.8283 193.391C19.5057 193.896 19.2545 194.293 19.0744 194.582C18.9289 194.863 18.8008 194.979 18.8008 194.979C18.8664 194.833 18.9401 194.691 19.0214 194.553L19.7899 193.312C20.4198 192.25 21.3396 190.673 22.4994 188.611C24.8143 184.497 28.0393 178.474 31.5998 170.8C33.3798 166.975 35.2504 162.734 37.1389 158.132C39.2234 153.273 41.0459 148.3 42.5981 143.236C45.7637 132.502 47.2997 120.171 47.669 107.25C47.8269 100.787 47.7668 94.4602 47.4998 88.3575C47.2329 82.2548 46.7051 76.3931 46.0805 70.827C44.929 60.947 43.204 51.1461 40.9149 41.4765C38.96 33.2342 37.0319 26.644 35.5805 22.1483C34.8935 19.8694 34.2602 18.1422 33.8864 16.963L33.4729 15.5764L33.3213 15.1918Z" fill="#263238"/>
<path d="M55.3452 50.1217C55.4688 50.189 53.6961 55.1798 51.3501 61.298C49.0041 67.4161 47.0372 72.301 46.9136 72.2336C46.79 72.1662 48.5674 67.1664 50.9045 61.0434C53.2417 54.9204 55.2127 50.0495 55.3452 50.1217Z" fill="#263238"/>
<path d="M61.9803 71.1576C62.1039 71.225 59.0994 77.5648 55.2507 85.3139C51.402 93.0631 48.1897 99.3012 48.0349 99.2284C47.8801 99.1556 50.9247 92.826 54.7692 85.063C58.6138 77.3 61.8567 71.0902 61.9803 71.1576Z" fill="#263238"/>
<path d="M47.6757 90.4628C47.3925 90.2608 47.1353 90.023 46.9101 89.7551L44.9964 87.7016L38.7962 80.919L32.5638 74.1769L30.6859 72.1196C30.4401 71.8782 30.223 71.6078 30.0391 71.3141C30.3347 71.4889 30.6024 71.7092 30.8328 71.9675C31.314 72.4156 31.9865 73.0841 32.8252 73.913C34.489 75.5748 36.7402 77.9169 39.1764 80.5572C41.6126 83.1976 43.8032 85.6344 45.3019 87.4617C46.0672 88.3666 46.7063 89.1215 47.0928 89.5993C47.3206 89.8617 47.5164 90.1517 47.6757 90.4628Z" fill="#263238"/>
<path d="M69.597 103.273C69.3415 103.649 69.0529 104.001 68.7348 104.324C68.0774 105.045 67.245 105.974 66.2476 107.067C64.124 109.393 61.1672 112.496 57.9238 115.976L49.5582 124.77C48.4926 125.908 47.6773 126.868 47.124 127.542C46.8645 127.913 46.5747 128.26 46.2576 128.579C46.4474 128.162 46.6853 127.769 46.9662 127.41C47.6644 126.427 48.4116 125.481 49.205 124.578C51.2933 122.232 54.2948 119.131 57.5293 115.645C60.7638 112.16 63.7871 109.082 65.962 106.853L68.5717 104.223C68.8784 103.869 69.2222 103.55 69.597 103.273Z" fill="#263238"/>
<path d="M24.127 87.193C24.3964 87.6329 24.6305 88.0945 24.8269 88.5733C25.4499 89.8233 26.1702 91.0199 26.9807 92.1512C28.1885 93.8245 29.5086 95.4094 30.9313 96.8945C32.5181 98.5957 34.3532 100.386 36.211 102.351C39.3967 105.701 42.2039 109.409 44.5793 113.404C45.4812 114.941 46.1434 116.22 46.5733 117.116C46.8267 117.569 47.0339 118.048 47.1915 118.544C46.8963 118.122 46.6306 117.678 46.3964 117.217C45.9165 116.351 45.222 115.113 44.2613 113.603C41.8113 109.698 38.9903 106.052 35.8396 102.717C33.9861 100.766 32.1338 98.9436 30.5829 97.2388C29.1749 95.7239 27.8806 94.1022 26.711 92.3874C25.915 91.221 25.2322 89.9775 24.6723 88.6748C24.4776 88.2203 24.366 87.8459 24.2692 87.5957C24.2039 87.4688 24.1561 87.3333 24.127 87.193Z" fill="#263238"/>
<path d="M24.6289 111.69C24.9481 112.027 25.2357 112.394 25.4879 112.786C26.007 113.51 26.746 114.575 27.6441 115.9C29.4403 118.552 31.8684 122.256 34.4553 126.418C37.0422 130.581 39.2934 134.386 40.8804 137.179C41.6785 138.566 42.2994 139.706 42.7227 140.506C42.9619 140.905 43.1643 141.327 43.3272 141.764C43.0284 141.409 42.7651 141.025 42.5411 140.616L40.5624 137.377L34.031 126.756L27.365 116.155L25.341 112.938C25.0616 112.549 24.8229 112.131 24.6289 111.69Z" fill="#263238"/>
<path d="M69.735 128.733C69.3744 129.073 68.9819 129.377 68.5632 129.638C67.7933 130.206 66.7038 131.04 65.3933 132.126C62.7637 134.292 59.4343 137.633 55.6075 141.19C53.8046 142.861 51.9114 144.426 49.9368 145.879C48.3168 147.051 46.6279 148.12 44.8795 149.079C43.3876 149.903 42.156 150.509 41.2959 150.923C40.8651 151.166 40.4123 151.367 39.9437 151.521C40.3391 151.221 40.762 150.962 41.2063 150.746C42.1139 150.219 43.2842 149.556 44.6997 148.749C46.4183 147.758 48.0805 146.667 49.678 145.482C51.6221 144.016 53.4883 142.444 55.2687 140.773C59.0726 137.238 62.4685 133.922 65.1683 131.817C66.224 130.972 67.3213 130.182 68.4559 129.452C68.8622 129.177 69.29 128.936 69.735 128.733Z" fill="#263238"/>
<path d="M70.8049 155.084C70.3274 155.282 69.8324 155.432 69.3267 155.532C68.3634 155.773 66.9798 156.192 65.2976 156.75C61.9113 157.841 57.3736 159.734 52.3521 161.839C49.8304 162.879 47.4104 163.79 45.159 164.571C43.173 165.243 41.1522 165.8 39.1058 166.241C38.2372 166.453 37.4385 166.552 36.738 166.657C36.1469 166.755 35.551 166.817 34.953 166.845C34.4379 166.915 33.9179 166.939 33.3989 166.916C33.9042 166.763 34.4218 166.656 34.9456 166.598C35.4437 166.532 36.0407 166.451 36.7335 166.295C37.4262 166.138 38.2072 166.03 39.0717 165.805C40.7947 165.409 42.8275 164.786 45.0424 164.031C47.2574 163.277 49.6744 162.307 52.1472 161.251C57.1688 159.146 61.75 157.301 65.1835 156.293C66.5294 155.87 67.8952 155.518 69.2757 155.237C69.7799 155.139 70.2917 155.088 70.8049 155.084Z" fill="#263238"/>
<path d="M19.293 132.9C19.5508 133.315 19.7664 133.755 19.9363 134.215L21.5114 137.86C22.8417 140.908 24.6017 145.224 26.5523 149.98C28.5029 154.736 30.2693 158.974 31.4943 162.115L32.9648 165.831C33.1429 166.28 33.2813 166.744 33.3783 167.218C33.1189 166.804 32.8989 166.365 32.7214 165.908L31.128 162.275C29.789 159.223 27.9925 154.934 26.0543 150.219C24.1162 145.505 22.4055 141.181 21.1846 138.054L19.7235 134.319C19.5389 133.86 19.3948 133.385 19.293 132.9Z" fill="#263238"/>
<path d="M29.6436 48.5121C30.4245 49.2317 31.1603 50.0013 31.8464 50.8162C33.1929 52.2819 35.0813 54.2752 37.2574 56.3905C39.4335 58.5059 41.4828 60.3198 42.9809 61.6243C43.8247 62.2882 44.6232 63.0106 45.3706 63.7864C44.4419 63.2488 43.5645 62.6227 42.7501 61.9165C41.1391 60.655 39.084 58.896 36.899 56.7758C35.0395 54.9782 33.2687 53.0865 31.5932 51.1078C30.8635 50.3088 30.2106 49.4395 29.6436 48.5121Z" fill="#263238"/>
<path d="M42.0585 45.9091C40.8696 45.0023 39.7286 44.0314 38.6402 43.0004C37.432 42.1129 36.2696 41.1614 35.1579 40.1498C36.561 40.7197 37.8518 41.5453 38.968 42.5869C40.1867 43.4923 41.234 44.6181 42.0585 45.9091Z" fill="#263238"/>
<path d="M47.2616 37.4702C46.8423 39.3775 46.1962 41.2249 45.3377 42.9708C44.6298 44.7841 43.6963 46.4961 42.5605 48.0642C43.2344 46.2507 44.0035 44.4759 44.8645 42.7476C45.5615 40.9416 46.3619 39.1794 47.2616 37.4702Z" fill="#263238"/>
<path d="M13.9453 150.725C14.1973 151.234 14.4029 151.766 14.5596 152.314C14.9191 153.346 15.401 154.863 15.9233 156.738C17.3087 161.662 18.2088 166.716 18.6102 171.825C18.801 174.644 18.7946 177.473 18.5912 180.291C18.4299 181.585 18.3991 182.846 18.1169 183.958L17.8172 185.606C17.6837 186.125 17.5596 186.627 17.4408 187.096C17.2367 187.959 16.9814 188.809 16.6763 189.641C16.5556 190.004 16.4354 190.345 16.3246 190.668C16.2138 190.991 16.0382 191.22 15.9686 191.508C15.7542 192.032 15.4933 192.535 15.1893 193.01C15.0833 192.953 16.143 190.778 17.0454 186.985C17.1465 186.506 17.2659 186.014 17.377 185.494C17.4882 184.974 17.5463 184.425 17.645 183.863C17.856 182.736 17.9262 181.508 18.0694 180.228C18.2465 177.435 18.2388 174.634 18.0461 171.842C17.6428 166.77 16.8 161.744 15.5276 156.825C15.0505 154.927 14.6316 153.398 14.3215 152.358C14.156 151.824 14.0303 151.278 13.9453 150.725Z" fill="#263238"/>
<path d="M47.8838 177.181C47.4931 177.391 47.081 177.556 46.655 177.673C45.8477 177.941 44.6918 178.379 43.2949 178.976C41.6562 179.675 40.0542 180.46 38.4954 181.33C34.6771 183.468 31.1562 186.122 28.0269 189.221C26.7482 190.484 25.5359 191.815 24.3953 193.21C23.4221 194.41 22.6598 195.399 22.1683 196.107C21.9285 196.487 21.6531 196.842 21.3461 197.168C21.5092 196.747 21.717 196.347 21.9658 195.973C22.6136 194.927 23.3178 193.919 24.075 192.954C25.1822 191.516 26.375 190.15 27.6464 188.863C29.2196 187.289 30.8918 185.822 32.6522 184.473C34.4287 183.152 36.2903 181.955 38.2243 180.892C39.8086 180.029 41.4438 179.268 43.1203 178.614C44.2434 178.165 45.3893 177.778 46.553 177.455C46.9861 177.316 47.4321 177.225 47.8838 177.181Z" fill="#263238"/>
<path d="M11.496 191.81C11.39 191.752 11.9492 190.106 12.1204 187.308C12.1424 186.96 12.1513 186.593 12.1838 186.181C12.2162 185.769 12.1669 185.406 12.1499 185.002C12.1209 184.127 12.0482 183.254 11.932 182.386C11.6333 180.399 11.1754 178.44 10.563 176.53C9.91783 174.627 9.16262 172.765 8.30142 170.954C7.46413 169.337 6.72397 167.772 6.00434 166.648C5.28472 165.524 4.67463 164.495 4.24793 163.832C4.00932 163.514 3.80903 163.167 3.65137 162.799C3.94714 163.077 4.21116 163.388 4.43838 163.727C4.91974 164.35 5.58618 165.27 6.34 166.459C7.20661 167.847 8.00183 169.281 8.72236 170.754C9.61962 172.573 10.3972 174.452 11.0499 176.378C11.6704 178.32 12.1217 180.315 12.3984 182.338C12.5043 183.226 12.5632 184.119 12.5747 185.013C12.5734 185.43 12.5904 185.834 12.5908 186.183L12.5098 187.3C12.4651 187.942 12.3763 188.581 12.2439 189.21C12.1744 189.686 12.0641 190.154 11.9145 190.61C11.817 191.024 11.6767 191.426 11.496 191.81Z" fill="#263238"/>
<path d="M53.6102 194.552C53.5585 194.652 52.1494 193.918 49.745 193.269C48.3177 192.891 46.8619 192.638 45.3929 192.511C41.7972 192.194 38.1769 192.662 34.7705 193.885C33.3801 194.375 32.0343 194.99 30.7486 195.722C28.5526 196.986 27.3591 198.043 27.3161 197.973C27.5455 197.674 27.8156 197.411 28.1181 197.191C28.4413 196.897 28.7826 196.626 29.14 196.377C29.6044 196.03 30.0856 195.707 30.5818 195.41C31.8631 194.614 33.2173 193.948 34.6252 193.422C36.3571 192.801 38.1453 192.36 39.963 192.105C41.7888 191.885 43.6319 191.858 45.4629 192.026C46.9524 192.183 48.4247 192.481 49.8611 192.915C50.4133 193.076 50.9567 193.267 51.4888 193.488C51.8937 193.642 52.2897 193.819 52.6748 194.019C53.0065 194.157 53.3206 194.336 53.6102 194.552Z" fill="#263238"/>
<path d="M86.3662 75.3522C86.3662 75.3522 77.8618 94.2194 77.6736 105.218C77.4855 116.217 80.9752 127.921 82.009 133.396C83.0428 138.872 84.3518 149.015 83.0279 157.246C81.7039 165.478 80.5691 179.7 80.5691 179.7L81.1188 179.906C81.1188 179.906 87.2286 146.438 88.1048 138.043C88.9809 129.649 88.2111 118.859 87.1424 108.035C86.0738 97.2099 86.3662 75.3522 86.3662 75.3522Z" fill="#455A64"/>
<path d="M126.737 45.0706C126.737 45.0706 111.101 56.6589 101.422 87.706C91.7431 118.753 88.0943 135.901 88.5123 142.411C88.9304 148.922 81.1098 179.902 81.1098 179.902C81.1098 179.902 86.0614 170.222 93.738 146.967C101.415 123.712 108.56 100.388 108.56 100.388L126.737 45.0706Z" fill="#455A64"/>
<path d="M147.886 100.646C147.886 100.646 117.08 137.118 106.909 149.328C96.7371 161.538 81.1098 179.901 81.1098 179.901C81.1098 179.901 94.9422 170.918 101.986 166.966C109.03 163.014 118.158 154.717 122.763 146.557C127.369 138.396 141.033 124.211 144.959 114.414C148.885 104.616 147.886 100.646 147.886 100.646Z" fill="#455A64"/>
<path d="M147.615 65.1971C135.579 72.9835 125.71 83.8283 118.967 96.6789C108.337 117.592 94.5498 141.755 93.7254 151.512C92.9009 161.27 81.1252 180.003 81.1252 180.003C81.1252 180.003 100.488 152.493 105.405 145.304C110.323 138.114 133.237 95.6097 133.237 95.6097L147.615 65.1971Z" fill="#455A64"/>
<path d="M81.1104 179.902C82.935 165.463 76.7737 147.751 72.4019 133.883C68.7511 122.282 66.046 110.39 64.3145 98.3298C59.5268 111.72 59.8649 126.472 65.2607 139.617C70.344 151.829 78.1646 166.625 80.5608 179.695" fill="#455A64"/>
<path d="M775.575 136.278C775.283 130.453 776.719 124.674 779.695 119.703C781.063 125.176 782.087 130.734 782.761 136.342C783.437 141.969 783.041 147.677 781.594 153.149C778.046 148.236 775.956 142.378 775.575 136.278Z" fill="#455A64"/>
<path d="M769.495 143.347C765.956 138.135 764.052 131.94 764.036 125.589C764.033 119.262 765.252 112.997 767.621 107.154C770.795 112.598 772.651 118.742 773.035 125.072C773.418 131.403 772.318 137.735 769.825 143.54L769.495 143.347Z" fill="#455A64"/>
<path d="M756.631 100.705C759.377 104.907 760.925 109.812 761.101 114.868C761.245 120.052 760.012 125.179 757.532 129.7L757.163 129.258C753.927 120.06 753.74 110.023 756.631 100.705Z" fill="#455A64"/>
<path d="M748.104 92.8279C750.124 96.0979 751.111 99.9277 750.928 103.794C750.735 107.635 749.545 112.086 747.213 115.094C745.264 107.755 745.575 99.9782 748.104 92.8279Z" fill="#455A64"/>
<path d="M741.081 104.588C740.582 102.21 740.575 99.7507 741.061 97.3694C741.547 94.9881 742.515 92.7379 743.902 90.7639C744.685 95.6017 743.697 100.566 741.126 104.701L741.081 104.588Z" fill="#455A64"/>
<path d="M729.601 100.757C734.011 101.486 738.192 103.27 741.805 105.963C739.522 106.079 737.241 105.672 735.131 104.771C733.02 103.87 731.131 102.499 729.601 100.757Z" fill="#455A64"/>
<path d="M732.081 84.9093C734.376 86.8527 736.216 89.2999 737.465 92.0702C738.714 94.8405 739.341 97.8631 739.298 100.915L739.075 101.136C734.929 96.7569 732.448 91.0009 732.081 84.9093Z" fill="#455A64"/>
<path d="M744.602 132.197C739.491 129.844 735.226 125.908 732.408 120.942C742.683 122.29 752.541 127.943 761.141 133.865L760.916 133.972C755.431 135.141 749.726 134.52 744.602 132.197Z" fill="#455A64"/>
<path d="M736.698 116.004C732.78 113.377 729.551 109.859 726.267 106.399C734.82 109.114 742.808 113.43 749.827 119.13L750.322 119.932C745.67 120.448 740.623 118.634 736.698 116.004Z" fill="#455A64"/>
<path d="M739.035 143.057C745.11 142.498 751.221 142.031 757.305 142.545C763.39 143.06 769.462 144.613 774.688 147.832L774.425 147.952C768.514 149.666 762.322 150.116 756.234 149.274C750.146 148.432 744.292 146.316 739.035 143.057Z" fill="#455A64"/>
<path d="M787.668 156.607C773.891 153.911 759.723 154.117 746.026 157.213C759.23 163.663 774.477 163.066 787.653 156.601" fill="#455A64"/>
<path d="M787.122 143.43C785.663 136.645 786.017 129.583 788.146 122.987C794.36 134.436 797.503 148.373 797.807 161.469C792.391 157.352 788.68 150.15 787.122 143.43Z" fill="#455A64"/>
<path d="M758.561 175.534C767.113 176.674 775.808 175.693 783.914 172.675C786.535 171.776 789.003 170.464 791.23 168.788C793.715 166.773 795.765 164.252 797.251 161.383C784.314 164.381 770.665 170.008 758.583 175.542" fill="#455A64"/>
<path d="M732.187 85.0364C732.187 85.0364 732.238 85.1334 732.321 85.3296L732.679 86.1849C733.001 86.9486 733.422 88.0796 734.042 89.5109C735.233 92.3901 737.075 96.5204 739.602 101.489C746.215 114.422 754.449 126.413 764.093 137.158C769.734 143.437 775.673 148.922 781.74 152.926C784.627 154.802 787.621 156.5 790.705 158.01C793.581 159.466 796.289 160.772 798.79 161.897C803.784 164.169 807.939 165.746 810.829 166.755C812.259 167.289 813.4 167.636 814.167 167.887C814.526 168.022 814.811 168.128 815.028 168.209C815.129 168.235 815.227 168.271 815.32 168.318C815.219 168.293 815.121 168.257 815.028 168.209C814.818 168.131 814.518 168.07 814.15 167.959C813.379 167.741 812.232 167.391 810.775 166.908C807.868 165.946 803.692 164.404 798.677 162.168C796.166 161.048 793.445 159.754 790.57 158.273C787.465 156.782 784.452 155.1 781.546 153.236C775.433 149.216 769.457 143.716 763.803 137.424C754.129 126.657 745.904 114.61 739.349 101.604C736.878 96.6209 735.048 92.4598 733.9 89.5534C733.3 88.1124 732.895 86.9612 732.6 86.1904L732.283 85.3156C732.24 85.2269 732.208 85.1331 732.187 85.0364Z" fill="#263238"/>
<path d="M1177.39 162.121C1181.95 159.756 1186.01 156.47 1189.3 152.46C1192.6 148.45 1195.08 143.799 1196.58 138.786C1196.68 138.573 1196.72 138.338 1196.72 138.103C1196.71 137.867 1196.65 137.637 1196.53 137.431C1196.19 136.998 1195.5 137.091 1195.01 137.238C1184.44 140.245 1178.11 150.91 1177.39 162.151" fill="#455A64"/>
<path d="M1142.46 104.602C1134.38 101.819 1125.67 101.606 1117.48 103.991C1124.7 108.089 1131.95 112.193 1139.63 115.291C1147.32 118.39 1155.48 120.478 1163.73 120.334C1158.26 113.103 1150.88 107.641 1142.46 104.602Z" fill="#455A64"/>
<path d="M1154.87 98.4858C1149.17 91.062 1140.94 85.8925 1132.08 83.1567C1123.18 80.5754 1113.87 79.8331 1104.68 80.9727C1111.04 87.883 1118.92 93.131 1127.66 96.2774C1136.41 99.4237 1145.76 100.377 1154.93 99.0569L1154.87 98.4858Z" fill="#455A64"/>
<path d="M1100.12 62.1357C1104.91 67.9092 1111.19 72.1942 1118.24 74.5078C1125.48 76.8073 1133.19 77.051 1140.55 75.213L1140.08 74.4938C1128.45 65.9721 1114.4 61.6277 1100.12 62.1357Z" fill="#455A64"/>
<path d="M1092.54 46.3268C1096.32 50.6455 1101.31 53.6603 1106.82 54.9575C1112.3 56.2363 1119.05 56.2792 1124.23 54.0545C1114.7 48.1903 1103.63 45.4912 1092.54 46.3268Z" fill="#455A64"/>
<path d="M1111.9 40.7205C1108.76 39.0133 1105.3 38.0024 1101.75 37.7534C1098.2 37.5043 1094.64 38.0228 1091.3 39.275C1097.78 42.4173 1105.17 42.9867 1112.03 40.8732L1111.9 40.7205Z" fill="#455A64"/>
<path d="M1111.17 22.1876C1110.4 29.004 1111.22 35.9104 1113.54 42.3433C1114.63 39.0131 1114.98 35.4776 1114.57 31.992C1114.16 28.5064 1113 25.1577 1111.17 22.1876Z" fill="#455A64"/>
<path d="M1087.86 19.3689C1089.66 23.556 1092.36 27.2745 1095.75 30.2488C1099.14 33.223 1103.14 35.3766 1107.45 36.5499L1107.85 36.3081C1103.37 28.3999 1096.28 22.3925 1087.86 19.3689Z" fill="#455A64"/>
<path d="M1149.3 57.1474C1148.06 48.6334 1144.26 40.729 1138.43 34.543C1136.15 50.289 1140.09 67.1538 1144.93 82.272L1145.16 81.9934C1149.04 74.3573 1150.49 65.6688 1149.3 57.1474Z" fill="#455A64"/>
<path d="M1129.74 38.8832C1127.63 32.0121 1124.03 25.7476 1120.46 19.5528C1120.8 33.3033 1123.63 46.8698 1128.8 59.563L1129.72 60.6226C1132.34 53.9444 1131.84 45.7449 1129.74 38.8832Z" fill="#455A64"/>
<path d="M1166.84 53.3301C1163.57 62.0836 1160.44 70.9276 1158.7 80.1311C1156.95 89.3345 1156.66 98.9533 1159.07 107.99L1159.35 107.646C1164.16 99.6017 1167.31 90.6294 1168.6 81.2858C1169.89 71.9423 1169.29 62.4268 1166.84 53.3301Z" fill="#455A64"/>
<path d="M1166.14 130.709C1167.95 109.255 1174 88.402 1183.91 69.4191C1187.62 91.5651 1180.59 113.82 1166.14 130.709Z" fill="#455A64"/>
<path d="M1147.83 124.591C1138.88 119.674 1128.8 117.328 1118.66 117.801C1132.21 131.694 1150.56 141.915 1168.86 147.715C1165.27 137.992 1156.65 129.626 1147.83 124.591Z" fill="#455A64"/>
<path d="M1204.6 95.4041C1202.71 108.498 1197.8 120.937 1190.26 131.684C1187.93 135.193 1185.09 138.309 1181.82 140.922C1178.5 143.433 1172.82 146.187 1168.96 146.79C1178.41 128.908 1191.89 110.975 1204.6 95.3633" fill="#455A64"/>
<path d="M1088.01 19.6238C1088.14 19.708 1088.27 19.7993 1088.4 19.8971L1089.48 20.7475C1090.45 21.5046 1091.91 22.5874 1093.72 24.0725C1097.37 26.987 1102.52 31.4031 1108.59 37.1991C1115.67 44.006 1122.35 51.2472 1128.58 58.8828C1132.08 63.2106 1135.64 67.8523 1139.13 72.8085C1142.63 77.7647 1146.03 83.0584 1149.33 88.5876C1155.93 99.6572 1161.2 110.907 1164.21 121.743C1165.58 126.88 1166.67 132.09 1167.49 137.35C1168.33 142.267 1168.99 146.88 1169.51 151.094C1170.55 159.523 1171 166.399 1171.22 171.134C1171.31 173.514 1171.35 175.353 1171.35 176.609C1171.35 177.213 1171.35 177.686 1171.35 178.029C1171.38 178.346 1171.33 178.515 1171.33 178.515C1171.31 178.355 1171.29 178.195 1171.29 178.035L1171.27 176.564C1171.24 175.322 1171.17 173.486 1171.05 171.109C1170.8 166.365 1170.31 159.514 1169.22 151.089C1168.68 146.887 1168 142.286 1167.14 137.371C1166.3 132.132 1165.19 126.944 1163.8 121.831C1160.76 111.06 1155.49 99.8608 1148.94 88.8183C1145.64 83.3096 1142.23 78.0371 1138.76 73.068C1135.3 68.0989 1131.74 63.4776 1128.26 59.1583C1122.05 51.5153 1115.39 44.2588 1108.34 37.4275C1102.32 31.6066 1097.2 27.1563 1093.6 24.1965C1091.81 22.6688 1090.36 21.5739 1089.42 20.7937L1088.34 19.8616L1088.01 19.6238Z" fill="#263238"/>
<path d="M1125.03 36.6194C1125.17 36.6069 1126.33 41.7824 1127.62 48.2236C1128.9 54.6648 1129.84 59.8599 1129.71 59.8725C1129.57 59.885 1128.4 54.6992 1127.11 48.2589C1125.82 41.8187 1124.88 36.6328 1125.03 36.6194Z" fill="#263238"/>
<path d="M1141.77 50.5565C1141.91 50.544 1142.76 57.5387 1143.65 66.1869C1144.53 74.8351 1145.15 81.8607 1144.98 81.8861C1144.82 81.9115 1144.01 74.9029 1143.11 66.2454C1142.21 57.5879 1141.63 50.569 1141.77 50.5565Z" fill="#263238"/>
<path d="M1140.03 74.7349C1139.68 74.7236 1139.34 74.6678 1139.01 74.5689L1136.31 73.9153L1127.51 71.6893L1118.7 69.5152L1116.04 68.8385C1115.7 68.7733 1115.38 68.6678 1115.07 68.5242C1115.41 68.5057 1115.75 68.541 1116.08 68.6289C1116.72 68.736 1117.64 68.9211 1118.78 69.1479C1121.06 69.6125 1124.19 70.3196 1127.64 71.1736C1131.08 72.0275 1134.22 72.8479 1136.44 73.5435C1137.57 73.8751 1138.5 74.1513 1139.08 74.3362C1139.41 74.429 1139.73 74.5629 1140.03 74.7349Z" fill="#263238"/>
<path d="M1165.22 73.2371C1165.2 73.6956 1165.15 74.1519 1165.05 74.6002C1164.88 75.5724 1164.68 76.8156 1164.42 78.2898C1163.88 81.4264 1163.05 85.6797 1162.18 90.41L1159.83 102.456C1159.54 104.006 1159.37 105.267 1159.26 106.141C1159.24 106.596 1159.18 107.049 1159.09 107.494C1159.02 107.038 1159.01 106.576 1159.06 106.118C1159.12 104.903 1159.25 103.693 1159.43 102.492C1159.94 99.3592 1160.81 95.0819 1161.67 90.3525C1162.53 85.6231 1163.43 81.3534 1164.07 78.27L1164.86 74.6069C1164.93 74.1383 1165.05 73.6789 1165.22 73.2371Z" fill="#263238"/>
<path d="M1118.54 85.1432C1119 85.3616 1119.44 85.6181 1119.86 85.9099C1121.05 86.6104 1122.29 87.2117 1123.57 87.7079C1125.47 88.4367 1127.42 89.0288 1129.4 89.4799C1131.64 90.0205 1134.13 90.497 1136.73 91.1076C1141.18 92.1384 1145.5 93.6805 1149.62 95.7047C1151.19 96.4899 1152.42 97.1923 1153.26 97.7039C1153.71 97.9424 1154.14 98.2283 1154.54 98.5568C1154.07 98.3671 1153.61 98.1434 1153.17 97.8874C1152.3 97.4295 1151.06 96.7791 1149.46 96.0485C1145.33 94.1422 1141.02 92.6596 1136.61 91.6224C1134.02 91.0211 1131.5 90.5269 1129.29 89.9631C1127.31 89.4789 1125.36 88.8416 1123.47 88.0566C1122.18 87.5229 1120.95 86.8613 1119.79 86.0814C1119.38 85.8089 1119.09 85.5572 1118.87 85.4015C1118.75 85.3315 1118.64 85.2446 1118.54 85.1432Z" fill="#263238"/>
<path d="M1131.97 105.408C1132.42 105.512 1132.86 105.659 1133.28 105.847C1134.1 106.164 1135.28 106.645 1136.74 107.255C1139.65 108.476 1143.66 110.226 1148.04 112.273C1152.42 114.319 1156.33 116.253 1159.14 117.709C1160.55 118.427 1161.68 119.036 1162.46 119.471C1162.87 119.672 1163.26 119.912 1163.63 120.189C1163.19 120.058 1162.77 119.882 1162.36 119.664L1158.98 118.053L1147.86 112.793L1136.64 107.624L1133.23 106.057C1132.79 105.886 1132.37 105.669 1131.97 105.408Z" fill="#263238"/>
<path d="M1178.86 94.5125C1178.74 94.9995 1178.57 95.4731 1178.36 95.9264C1178.01 96.8321 1177.54 98.1403 1177.02 99.7824C1175.96 103.068 1174.95 107.729 1173.63 112.849C1173 115.257 1172.25 117.627 1171.36 119.948C1170.63 121.836 1169.78 123.676 1168.82 125.456C1168.01 126.98 1167.3 128.176 1166.79 129.004C1166.56 129.449 1166.29 129.869 1165.98 130.26C1166.15 129.788 1166.37 129.335 1166.62 128.906C1167.11 127.957 1167.74 126.747 1168.49 125.28C1169.41 123.489 1170.22 121.646 1170.93 119.76C1171.78 117.445 1172.52 115.084 1173.12 112.689C1174.43 107.6 1175.52 102.922 1176.67 99.6494C1177.1 98.3508 1177.6 97.076 1178.17 95.8301C1178.36 95.3721 1178.59 94.9314 1178.86 94.5125Z" fill="#263238"/>
<path d="M1193.75 116.015C1193.46 116.448 1193.12 116.85 1192.75 117.216C1192.07 117.957 1191.13 119.08 1190.02 120.487C1187.76 123.294 1184.96 127.415 1181.86 131.985C1180.3 134.266 1178.76 136.38 1177.28 138.293C1175.97 139.965 1174.58 141.561 1173.09 143.074C1172.48 143.737 1171.86 144.265 1171.33 144.745C1170.88 145.157 1170.42 145.542 1169.93 145.9C1169.54 146.246 1169.11 146.556 1168.67 146.827C1169.01 146.416 1169.39 146.038 1169.79 145.696C1170.18 145.363 1170.63 144.962 1171.13 144.444C1171.63 143.926 1172.23 143.399 1172.83 142.727C1174.07 141.433 1175.44 139.776 1176.9 137.906C1178.36 136.036 1179.87 133.872 1181.38 131.606C1184.47 127.037 1187.34 122.931 1189.68 120.168C1190.58 119.062 1191.54 118.004 1192.55 116.998C1192.92 116.634 1193.32 116.305 1193.75 116.015Z" fill="#263238"/>
<path d="M1138.77 126.176C1139.2 126.38 1139.62 126.629 1140 126.919L1143.26 129.097C1146 130.91 1149.77 133.547 1153.93 136.446C1158.09 139.346 1161.82 141.914 1164.52 143.864L1167.73 146.16C1168.11 146.436 1168.48 146.748 1168.81 147.092C1168.37 146.889 1167.95 146.644 1167.56 146.36L1164.3 144.203C1161.55 142.391 1157.77 139.797 1153.64 136.925C1149.51 134.054 1145.78 131.383 1143.09 129.442L1139.88 127.126C1139.48 126.844 1139.11 126.526 1138.77 126.176Z" fill="#263238"/>
<path d="M1102.62 49.6218C1103.66 49.7892 1104.68 50.0238 1105.69 50.3241C1107.6 50.8014 1110.24 51.4186 1113.19 51.9775C1116.14 52.5364 1118.82 52.9133 1120.77 53.1707C1121.83 53.2563 1122.89 53.4163 1123.92 53.6495C1122.86 53.7173 1121.79 53.6822 1120.73 53.5447C1118.71 53.3863 1116.05 53.0587 1113.1 52.5007C1110.58 52.0316 1108.09 51.4339 1105.64 50.7101C1104.6 50.4474 1103.59 50.083 1102.62 49.6218Z" fill="#263238"/>
<path d="M1111.65 40.5059C1110.17 40.4094 1108.7 40.2323 1107.24 39.9754C1105.75 39.9058 1104.27 39.7569 1102.8 39.5293C1104.28 39.2237 1105.8 39.1953 1107.29 39.4456C1108.8 39.5243 1110.27 39.8837 1111.65 40.5059Z" fill="#263238"/>
<path d="M1111.53 30.5227C1112.19 32.3565 1112.63 34.2667 1112.84 36.2103C1113.21 38.1264 1113.34 40.0835 1113.22 42.0328C1112.82 40.1356 1112.52 38.2176 1112.33 36.2874C1111.95 34.3835 1111.69 32.4586 1111.53 30.5227Z" fill="#263238"/>
<path d="M1143.75 144.111C1144.23 144.398 1144.69 144.729 1145.11 145.101C1145.96 145.766 1147.17 146.769 1148.6 148.05C1152.38 151.406 1155.82 155.142 1158.87 159.202C1160.53 161.46 1162.03 163.836 1163.35 166.313C1163.9 167.489 1164.55 168.563 1164.9 169.653L1165.53 171.203C1165.69 171.713 1165.85 172.203 1166 172.663C1166.29 173.501 1166.53 174.356 1166.71 175.224C1166.8 175.596 1166.88 175.949 1166.96 176.282C1167.04 176.614 1167.02 176.905 1167.11 177.185C1167.21 177.744 1167.26 178.312 1167.25 178.88C1167.14 178.891 1166.87 176.475 1165.61 172.79C1165.44 172.332 1165.28 171.853 1165.1 171.354C1164.91 170.856 1164.67 170.363 1164.46 169.837C1164.03 168.774 1163.44 167.705 1162.88 166.551C1161.55 164.11 1160.05 161.765 1158.41 159.532C1155.37 155.503 1152 151.758 1148.32 148.343C1146.91 147.018 1145.75 145.97 1144.93 145.271C1144.51 144.916 1144.12 144.528 1143.75 144.111Z" fill="#263238"/>
<path d="M1186.27 147.347C1186.05 147.741 1185.79 148.11 1185.5 148.446C1184.96 149.121 1184.23 150.134 1183.37 151.415C1182.37 152.916 1181.44 154.469 1180.6 156.069C1178.53 159.995 1176.99 164.187 1176.01 168.533C1175.61 170.306 1175.3 172.1 1175.08 173.907C1174.9 175.456 1174.79 176.712 1174.75 177.58C1174.75 178.032 1174.71 178.484 1174.63 178.929C1174.54 178.485 1174.5 178.033 1174.51 177.581C1174.5 176.342 1174.56 175.103 1174.68 173.871C1174.84 172.047 1175.12 170.235 1175.5 168.445C1175.98 166.247 1176.61 164.083 1177.37 161.968C1178.15 159.868 1179.08 157.825 1180.14 155.853C1181.01 154.245 1181.97 152.694 1183.03 151.209C1183.74 150.205 1184.49 149.24 1185.3 148.32C1185.59 147.962 1185.91 147.636 1186.27 147.347Z" fill="#263238"/>
<path d="M1163.52 179.935C1163.4 179.946 1162.99 178.253 1161.65 175.811C1161.49 175.507 1161.3 175.194 1161.11 174.831C1160.92 174.467 1160.68 174.19 1160.45 173.86C1159.96 173.143 1159.44 172.451 1158.88 171.789C1157.57 170.289 1156.15 168.902 1154.62 167.642C1153.07 166.406 1151.45 165.266 1149.76 164.228C1148.2 163.339 1146.75 162.44 1145.55 161.9C1144.35 161.359 1143.29 160.836 1142.58 160.519C1142.21 160.385 1141.86 160.206 1141.53 159.985C1141.93 160.053 1142.31 160.167 1142.68 160.324C1143.42 160.578 1144.47 160.978 1145.73 161.554C1147.19 162.234 1148.62 162.992 1150.01 163.825C1151.73 164.85 1153.38 165.992 1154.95 167.242C1156.5 168.524 1157.94 169.945 1159.25 171.488C1159.81 172.173 1160.33 172.889 1160.81 173.632C1161.03 173.983 1161.26 174.312 1161.45 174.605L1161.97 175.587C1162.28 176.15 1162.54 176.735 1162.77 177.337C1162.96 177.775 1163.12 178.229 1163.23 178.695C1163.37 179.097 1163.47 179.513 1163.52 179.935Z" fill="#263238"/>
<path d="M1200.3 158.718C1200.31 158.83 1198.74 159.002 1196.37 159.8C1194.98 160.28 1193.62 160.88 1192.32 161.594C1189.14 163.337 1186.35 165.751 1184.14 168.678C1183.24 169.866 1182.43 171.133 1181.74 172.465C1180.57 174.752 1180.14 176.304 1180.06 176.27C1180.1 175.891 1180.18 175.519 1180.32 175.166C1180.43 174.739 1180.58 174.321 1180.74 173.913C1180.95 173.363 1181.18 172.823 1181.44 172.297C1182.09 170.913 1182.87 169.599 1183.77 168.372C1184.9 166.884 1186.16 165.515 1187.55 164.287C1188.97 163.082 1190.5 162.03 1192.12 161.149C1193.46 160.449 1194.85 159.876 1196.28 159.438C1196.83 159.265 1197.39 159.122 1197.95 159.01C1198.37 158.913 1198.8 158.84 1199.23 158.793C1199.58 158.723 1199.94 158.698 1200.3 158.718Z" fill="#263238"/>
<path d="M599.556 143.972C600.392 144.879 601.039 145.951 601.46 147.122C601.88 148.293 602.065 149.54 602.002 150.786C601.868 153.283 601.176 155.715 599.98 157.894C597.774 162.149 593.617 165.689 589.601 168.191C587.204 163.401 588.509 157.389 589.366 154.361C590.718 149.57 596.036 141.739 599.556 143.972Z" fill="#FF725E"/>
<path d="M591.067 177.246C591.302 175.872 591.888 174.586 592.764 173.518C593.64 172.45 594.775 171.638 596.056 171.164C597.343 170.715 598.705 170.532 600.061 170.626C601.418 170.72 602.743 171.089 603.96 171.711C604.548 171.938 605.081 172.293 605.522 172.752C605.962 173.21 606.3 173.762 606.512 174.368C606.613 174.963 606.558 175.574 606.352 176.139C606.146 176.705 605.798 177.204 605.342 177.586C604.42 178.336 603.32 178.822 602.154 178.994C598.203 179.778 594.239 179.777 591.067 177.246Z" fill="#FF725E"/>
<path d="M581.182 189.056C581.313 188.741 581.471 188.438 581.652 188.151C581.971 187.535 582.477 186.777 583.036 185.852C584.488 183.253 586.343 180.915 588.529 178.929C590.76 176.948 593.468 175.617 596.371 175.076C597.246 174.926 598.134 174.884 599.018 174.951C599.258 174.966 599.496 174.995 599.732 175.038L599.972 175.099C598.793 175.057 597.613 175.138 596.45 175.339C593.621 175.939 590.987 177.263 588.791 179.188C586.617 181.167 584.747 183.471 583.242 186.022C582.624 186.974 582.127 187.736 581.765 188.259C581.593 188.541 581.398 188.808 581.182 189.056Z" fill="#263238"/>
<path d="M596.028 150.316C596.004 150.458 595.966 150.597 595.915 150.731C595.827 151.031 595.701 151.427 595.555 151.905C595.236 152.892 594.73 154.393 594.108 156.202C592.866 159.822 591.089 164.798 588.996 170.253C586.904 175.708 584.933 180.579 583.411 184.081C582.661 185.833 582.045 187.262 581.61 188.232C581.378 188.679 581.208 189.05 581.099 189.347C581.043 189.483 580.976 189.613 580.897 189.737C580.921 189.592 580.967 189.453 581.033 189.323L581.49 188.178C581.9 187.148 582.481 185.722 583.19 183.984C584.632 180.439 586.595 175.54 588.691 170.099C590.788 164.658 592.596 159.686 593.882 156.114C594.525 154.351 595.048 152.906 595.422 151.856C595.6 151.383 595.738 151.006 595.849 150.706C595.959 150.406 596.011 150.307 596.028 150.316Z" fill="#263238"/>
<path d="M583.698 177.433C584.291 174.55 584.202 171.564 583.439 168.723C582.675 165.883 581.26 163.271 579.31 161.106C578.321 160.021 576.866 158.984 575.511 159.523C574.156 160.061 573.737 161.83 573.736 163.316C573.791 166.44 574.747 169.478 576.482 172.046C578.218 174.614 580.656 176.599 583.489 177.749" fill="#FF725E"/>
<path d="M578.292 165.603C578.529 165.8 578.744 166.022 578.934 166.266C579.187 166.524 579.422 166.8 579.638 167.091C579.881 167.432 580.203 167.794 580.482 168.26C580.809 168.74 581.111 169.237 581.385 169.751C581.71 170.34 582.004 170.946 582.267 171.567C583.486 174.419 584.002 177.536 583.767 180.641C583.718 181.314 583.628 181.982 583.499 182.643C583.402 183.222 583.271 183.795 583.109 184.358C582.984 184.882 582.78 185.34 582.654 185.736C582.537 186.083 582.396 186.421 582.231 186.748C582.114 187.036 581.971 187.311 581.804 187.572C581.734 187.533 582.326 186.347 582.86 184.292C583.014 183.734 583.134 183.168 583.219 182.595C583.327 181.936 583.403 181.272 583.446 180.605C583.534 179.086 583.459 177.561 583.222 176.059C582.953 174.562 582.536 173.098 581.978 171.688C581.698 171.048 581.48 170.464 581.14 169.896C580.878 169.379 580.59 168.877 580.278 168.392C579.121 166.647 578.233 165.652 578.292 165.603Z" fill="#263238"/>
<path d="M780.741 75.3783C780.741 75.3783 778.691 96.0564 782.006 106.519C785.32 116.981 792.336 126.882 795.052 131.714C797.768 136.547 802.227 145.7 803.588 153.925C804.95 162.15 808.393 175.976 808.393 175.976L808.979 175.988C808.979 175.988 804.128 142.303 802.291 134.074C800.454 125.844 796.3 115.899 791.853 106.021C787.405 96.1428 780.741 75.3783 780.741 75.3783Z" fill="#455A64"/>
<path d="M809.297 33.2703C809.297 33.2703 798.192 49.4468 798.899 82.0333C799.606 114.62 801.601 132.052 804.064 138.068C806.526 144.084 808.969 175.986 808.969 175.986C808.969 175.986 810.577 165.182 810.451 140.631C810.325 116.08 809.676 91.6418 809.676 91.6418L809.297 33.2703Z" fill="#455A64"/>
<path d="M846.94 78.7582C846.94 78.7582 829.393 123.526 823.653 138.467C817.913 153.407 808.968 175.986 808.968 175.986C808.968 175.986 819.194 162.875 824.6 156.787C830.005 150.699 836.001 139.807 837.764 130.554C839.528 121.3 847.944 103.327 848.544 92.7528C849.145 82.1787 846.94 78.7582 846.94 78.7582Z" fill="#455A64"/>
<path d="M835.428 45.3309C826.52 56.711 820.633 70.2593 818.337 84.6606C814.927 107.983 809.563 135.431 811.882 144.933C814.201 154.434 809.015 176.077 809.015 176.077C809.015 176.077 818.588 143.603 820.954 135.163C823.321 126.724 831.49 78.8862 831.49 78.8862L835.428 45.3309Z" fill="#455A64"/>
<path d="M808.968 175.986C806.108 161.726 794.659 147.036 786.122 135.382C778.986 125.632 772.652 115.291 767.186 104.465C766.91 118.724 771.914 132.56 781.19 143.187C789.874 153.037 801.967 164.417 808.383 175.974" fill="#455A64"/>
<path d="M963.564 94.7634C964.398 95.6723 965.044 96.7443 965.465 97.9152C965.885 99.086 966.07 100.332 966.01 101.578C965.87 104.073 965.176 106.503 963.98 108.681C961.774 112.936 957.621 116.467 953.605 118.969C951.18 114.233 952.509 108.176 953.366 105.147C954.718 100.357 960.036 92.5261 963.564 94.7634Z" fill="#FF725E"/>
<path d="M955.08 128.029C955.312 126.654 955.895 125.367 956.77 124.297C957.644 123.228 958.779 122.416 960.06 121.942C961.347 121.492 962.708 121.31 964.064 121.405C965.421 121.501 966.745 121.872 967.96 122.498C968.548 122.724 969.081 123.079 969.522 123.538C969.963 123.997 970.301 124.549 970.512 125.155C970.616 125.748 970.562 126.358 970.357 126.923C970.152 127.487 969.803 127.985 969.346 128.363C968.425 129.121 967.323 129.611 966.154 129.781C962.207 130.556 958.247 130.569 955.08 128.029Z" fill="#FF725E"/>
<path d="M945.215 139.802C945.335 139.482 945.493 139.178 945.684 138.897C946.052 138.296 946.51 137.524 947.069 136.598C948.52 133.999 950.375 131.66 952.562 129.675C954.795 127.699 957.502 126.369 960.404 125.822C961.279 125.677 962.167 125.635 963.051 125.697C963.359 125.714 963.604 125.767 963.764 125.784C963.851 125.792 963.935 125.814 964.013 125.85C962.821 125.791 961.625 125.864 960.447 126.066C957.618 126.665 954.983 127.989 952.788 129.915C950.631 131.886 948.772 134.176 947.272 136.709C946.659 137.651 946.157 138.423 945.795 138.946C945.632 139.251 945.437 139.539 945.215 139.802Z" fill="#263238"/>
<path d="M960.047 101.067C960.022 101.209 959.987 101.349 959.942 101.486C959.841 101.791 959.72 102.178 959.569 102.665C959.259 103.657 958.757 105.148 958.136 106.958C956.888 110.586 955.103 115.558 953.015 121.004C950.927 126.45 948.919 131.348 947.415 134.859C946.67 136.624 946.049 138.04 945.614 139.01C945.379 139.463 945.236 139.849 945.099 140.134C945.045 140.267 944.979 140.394 944.902 140.514C944.93 140.371 944.976 140.232 945.037 140.101C945.183 139.82 945.304 139.433 945.494 138.956C945.913 137.931 946.494 136.505 947.194 134.762C948.631 131.226 950.608 126.323 952.696 120.877C954.784 115.431 956.605 110.478 957.905 106.879C958.539 105.111 959.061 103.665 959.445 102.62L959.876 101.462C959.92 101.325 959.977 101.193 960.047 101.067Z" fill="#263238"/>
<path d="M947.707 128.225C948.292 125.342 948.199 122.357 947.436 119.518C946.673 116.679 945.262 114.067 943.319 111.898C942.321 110.808 940.87 109.785 939.51 110.309C938.151 110.834 937.736 112.617 937.731 114.112C937.787 117.235 938.743 120.272 940.48 122.839C942.216 125.406 944.655 127.388 947.489 128.536" fill="#FF725E"/>
<path d="M942.292 116.39C942.532 116.58 942.749 116.8 942.938 117.044C943.19 117.306 943.423 117.584 943.638 117.878C943.94 118.25 944.223 118.637 944.487 119.038C944.812 119.521 945.112 120.022 945.385 120.538C945.712 121.123 946.007 121.726 946.271 122.345C946.864 123.772 947.299 125.263 947.567 126.79C947.809 128.32 947.878 129.873 947.772 131.419C947.722 132.092 947.635 132.762 947.513 133.426C947.411 134.007 947.276 134.581 947.108 135.145C946.988 135.614 946.836 136.075 946.654 136.523C946.54 136.868 946.404 137.205 946.245 137.531C946.132 137.82 945.989 138.097 945.818 138.355C945.756 138.321 946.348 137.134 946.882 135.079C947.027 134.519 947.144 133.951 947.232 133.378C947.345 132.766 947.398 132.097 947.464 131.402C947.544 129.881 947.466 128.355 947.231 126.85C946.969 125.349 946.549 123.882 945.977 122.475C945.734 121.858 945.456 121.257 945.145 120.674C944.867 120.116 944.553 119.631 944.277 119.179C943.145 117.388 942.215 116.429 942.292 116.39Z" fill="#263238"/>
<path d="M1376.61 123.473C1383.72 124.118 1390.47 126.957 1395.98 131.617C1389.11 132.404 1382.19 132.738 1375.28 132.617C1368.34 132.497 1361.49 130.995 1355.11 128.196C1361.69 124.533 1369.15 122.893 1376.61 123.473Z" fill="#455A64"/>
<path d="M1369.1 114.492C1376.04 110.893 1383.88 109.549 1391.58 110.638C1399.25 111.74 1406.63 114.386 1413.3 118.425C1406.14 121.518 1398.37 122.811 1390.63 122.194C1382.9 121.577 1375.41 119.069 1368.81 114.879L1369.1 114.492Z" fill="#455A64"/>
<path d="M1423.03 105.548C1417.46 108.313 1411.24 109.429 1405.09 108.77C1398.78 108.048 1392.78 105.581 1387.73 101.632L1388.33 101.239C1400.05 98.7219 1412.24 100.236 1423.03 105.548Z" fill="#455A64"/>
<path d="M1434.07 96.061C1429.75 98.064 1424.94 98.6516 1420.28 97.7435C1415.66 96.8267 1410.48 94.5331 1407.24 91.0374C1416.47 89.8353 1425.84 91.59 1434.07 96.061Z" fill="#455A64"/>
<path d="M1421.04 85.0576C1424.01 84.8375 1426.99 85.2586 1429.79 86.2937C1432.6 87.3287 1435.15 88.9547 1437.3 91.0665C1431.3 91.2199 1425.46 89.0931 1420.9 85.0951L1421.04 85.0576Z" fill="#455A64"/>
<path d="M1427.69 71.1013C1426.04 76.5927 1423.14 81.6079 1419.25 85.7411C1419.51 82.8113 1420.4 79.9774 1421.86 77.4451C1423.32 74.9128 1425.31 72.7457 1427.69 71.1013Z" fill="#455A64"/>
<path d="M1446.46 77.0278C1443.71 79.6127 1440.42 81.5298 1436.84 82.6375C1433.27 83.7453 1429.5 84.0154 1425.81 83.4278L1425.58 83.1055C1431.61 78.5874 1439.02 76.4316 1446.46 77.0278Z" fill="#455A64"/>
<path d="M1386.97 84.7238C1390.71 78.6219 1396.22 73.8761 1402.74 71.1528C1399.31 84.0087 1390.74 95.5812 1382.06 105.504L1381.96 105.199C1381.51 98.0062 1383.26 90.8465 1386.97 84.7238Z" fill="#455A64"/>
<path d="M1407.97 77.4795C1411.84 72.9462 1416.67 69.4466 1421.43 65.8675C1416.65 76.2907 1410.02 85.7145 1401.89 93.6615L1400.83 94.1526C1401.02 88.1349 1404.1 82.0219 1407.97 77.4795Z" fill="#455A64"/>
<path d="M1374.78 75.7326C1374.39 83.5708 1373.89 91.438 1372.21 99.1005C1370.52 106.763 1367.58 114.228 1362.76 120.324L1362.66 119.968C1361.62 112.138 1362.15 104.17 1364.24 96.5602C1366.32 88.9505 1369.91 81.8612 1374.78 75.7326Z" fill="#455A64"/>
<path d="M1349.86 135.331C1355.53 118.248 1357.76 100.16 1356.4 82.1682C1346.27 97.8657 1344.33 117.397 1349.87 135.313" fill="#455A64"/>
<path d="M1365.93 136.936C1374.4 136.261 1382.9 137.946 1390.52 141.811C1375.56 147.729 1358.12 149.299 1342.2 147.399C1348.13 141.217 1357.51 137.747 1365.93 136.936Z" fill="#455A64"/>
<path d="M1332 94.9397C1329.13 105.638 1328.8 116.887 1331.04 127.743C1331.67 131.238 1332.83 134.612 1334.48 137.743C1336.48 141.261 1339.18 144.313 1342.4 146.707C1341.02 129.701 1336.59 111.327 1331.99 94.9669" fill="#455A64"/>
<path d="M1446.29 77.1428C1446.29 77.1428 1446.17 77.19 1445.91 77.2615L1444.81 77.5681C1443.83 77.8456 1442.39 78.1846 1440.54 78.7244C1436.85 79.7394 1431.52 81.3639 1425.06 83.716C1408.23 89.8837 1392.26 98.2798 1377.55 108.691C1368.95 114.782 1361.27 121.391 1355.36 128.422C1352.58 131.773 1350 135.29 1347.63 138.957C1345.36 142.366 1343.31 145.588 1341.51 148.579C1337.88 154.545 1335.24 159.564 1333.52 163.069C1332.62 164.799 1332 166.191 1331.56 167.124C1331.34 167.559 1331.16 167.903 1331.02 168.166C1330.97 168.289 1330.91 168.408 1330.84 168.519C1330.89 168.394 1330.95 168.276 1331.02 168.166C1331.15 167.912 1331.28 167.539 1331.48 167.09C1331.88 166.146 1332.5 164.745 1333.34 162.973C1335.01 159.439 1337.61 154.386 1341.2 148.387C1342.99 145.383 1345.04 142.142 1347.34 138.738C1349.68 135.043 1352.25 131.497 1355.02 128.12C1360.96 121.034 1368.67 114.38 1377.28 108.276C1392.02 97.8295 1408.05 89.4545 1424.96 83.3742C1431.43 81.0956 1436.8 79.4904 1440.52 78.5356C1442.37 78.0236 1443.84 77.7081 1444.82 77.4673L1445.94 77.2162C1446.05 77.177 1446.17 77.1523 1446.29 77.1428Z" fill="#263238"/>
<path d="M1216.37 60.308C1216.37 60.308 1221.68 80.366 1228.43 88.9157C1235.18 97.4653 1245.19 104.131 1249.42 107.644C1253.64 111.157 1261.01 118.064 1265.15 125.243C1269.3 132.421 1277.34 144.063 1277.34 144.063L1277.9 143.86C1277.9 143.86 1261.59 114.194 1257 107.186C1252.41 100.179 1245.06 92.4206 1237.45 84.8326C1229.85 77.2447 1216.37 60.308 1216.37 60.308Z" fill="#455A64"/>
<path d="M1228.31 10.5041C1228.31 10.5041 1223.6 29.6865 1235.65 59.8489C1247.7 90.0112 1255.65 105.552 1260.05 110.264C1264.45 114.975 1277.89 143.862 1277.89 143.862C1277.89 143.862 1275.61 133.184 1266.91 110.31C1258.21 87.436 1249.07 64.8594 1249.07 64.8594L1228.31 10.5041Z" fill="#455A64"/>
<path d="M1279.35 39.1391C1279.35 39.1391 1278.62 87.381 1278.48 103.438C1278.34 119.495 1277.89 143.862 1277.89 143.862C1277.89 143.862 1282.85 127.864 1285.77 120.194C1288.69 112.524 1290.48 100.153 1288.89 90.8658C1287.3 81.5787 1288.88 61.7071 1285.74 51.6146C1282.61 41.5221 1279.35 39.1391 1279.35 39.1391Z" fill="#455A64"/>
<path d="M1256.92 12.1618C1252.58 26.0594 1251.82 40.8711 1254.71 55.1592C1259.68 78.1857 1264.27 105.782 1269.75 113.8C1275.24 121.818 1277.96 143.929 1277.96 143.929C1277.96 143.929 1275.55 110.095 1274.81 101.346C1274.07 92.5975 1264.97 44.9355 1264.97 44.9355L1256.92 12.1618Z" fill="#455A64"/>
<path d="M1277.89 143.862C1270.23 131.599 1254.41 122.091 1242.37 114.349C1232.3 107.868 1222.77 100.541 1213.88 92.4437C1218.61 105.856 1228.12 116.935 1240.49 123.448C1252.04 129.453 1267.31 135.633 1277.34 144.066" fill="#455A64"/>
<path d="M1601.59 269.98C1606.68 270.546 1611.82 270.054 1616.72 268.532C1621.61 267.011 1626.16 264.491 1630.08 261.125C1630.28 261.002 1630.44 260.832 1630.56 260.63C1630.68 260.428 1630.75 260.199 1630.76 259.964C1630.71 259.412 1630.08 259.102 1629.59 258.952C1619.12 255.569 1608.15 260.979 1601.58 270.007" fill="#455A64"/>
<path d="M1602.85 202.233C1597.55 195.39 1590.36 190.35 1582.22 187.773C1586.1 195.239 1590 202.733 1594.8 209.622C1599.6 216.511 1605.33 222.818 1612.34 227.31C1611.59 218.19 1608.29 209.484 1602.85 202.233Z" fill="#455A64"/>
<path d="M1616.51 204.038C1615.67 194.627 1611.51 185.696 1605.54 178.456C1599.44 171.32 1592.03 165.496 1583.72 161.323C1585.38 170.669 1589.2 179.471 1594.86 186.991C1600.52 194.512 1607.86 200.533 1616.26 204.55L1616.51 204.038Z" fill="#455A64"/>
<path d="M1589.89 142.974C1590.85 150.496 1593.84 157.594 1598.52 163.469C1603.37 169.44 1609.71 173.951 1616.86 176.522L1616.85 175.654C1611.62 162.014 1602.14 150.525 1589.89 142.974Z" fill="#455A64"/>
<path d="M1591.94 125.487C1592.81 131.218 1595.4 136.531 1599.33 140.698C1603.25 144.831 1608.89 148.636 1614.41 149.663C1609.53 139.421 1601.68 130.977 1591.94 125.487Z" fill="#455A64"/>
<path d="M1611.15 131.594C1609.42 128.407 1607.06 125.628 1604.22 123.437C1601.37 121.247 1598.11 119.693 1594.64 118.878C1598.41 125.132 1604.3 129.735 1611.18 131.797L1611.15 131.594Z" fill="#455A64"/>
<path d="M1620.39 115.645C1616.12 120.931 1613.13 127.178 1611.67 133.873C1614.35 131.686 1616.52 128.916 1618.03 125.764C1619.53 122.611 1620.34 119.155 1620.39 115.645Z" fill="#455A64"/>
<path d="M1602.34 100.265C1601.62 104.78 1601.9 109.403 1603.17 113.791C1604.43 118.179 1606.64 122.218 1609.64 125.611L1610.1 125.632C1610.54 116.498 1607.79 107.502 1602.34 100.265Z" fill="#455A64"/>
<path d="M1633.79 166.256C1637.28 158.426 1638.29 149.674 1636.68 141.226C1626.41 153.159 1620.76 169.508 1616.78 184.886L1617.13 184.785C1624.43 180.545 1630.26 174.065 1633.79 166.256Z" fill="#455A64"/>
<path d="M1627.09 140.017C1628.97 133.075 1629.28 125.813 1629.58 118.624C1622.56 130.345 1617.72 143.301 1615.31 156.832L1615.53 158.237C1621.27 154.1 1625.21 146.945 1627.09 140.017Z" fill="#455A64"/>
<path d="M1650.53 172.85C1643.14 178.366 1635.82 184.036 1629.47 190.78C1623.12 197.525 1617.76 205.428 1614.98 214.351L1615.4 214.22C1623.71 210.16 1631.11 204.394 1637.16 197.277C1643.2 190.16 1647.75 181.846 1650.53 172.85Z" fill="#455A64"/>
<path d="M1608.84 237.352C1621.75 220.37 1637.9 206.26 1656.3 195.877C1647.65 216.52 1629.93 231.257 1608.84 237.352Z" fill="#455A64"/>
<path d="M1596.73 221.997C1591.84 212.876 1584.63 205.28 1575.88 200.013C1579.86 219.233 1589.82 238.052 1602.09 253.136C1604.25 242.977 1601.46 231.145 1596.73 221.997Z" fill="#455A64"/>
<path d="M1659.85 229.223C1651.31 239.149 1640.58 246.837 1628.55 251.642C1624.74 253.283 1620.69 254.308 1616.57 254.678C1612.45 254.93 1606.22 254.063 1602.67 252.417C1620.09 242.696 1640.92 235.181 1659.87 229.187" fill="#455A64"/>
<path d="M1602.32 100.558C1602.39 100.704 1602.45 100.855 1602.51 101.008L1602.96 102.322C1603.37 103.497 1604.02 105.225 1604.75 107.477C1606.26 111.961 1608.24 118.543 1610.25 126.791C1612.57 136.456 1614.32 146.257 1615.49 156.14C1616.13 161.724 1616.65 167.604 1616.95 173.712C1617.24 179.82 1617.29 186.16 1617.12 192.642C1616.77 205.609 1615.22 217.99 1611.98 228.755C1610.4 233.828 1608.55 238.809 1606.44 243.675C1604.54 248.268 1602.64 252.508 1600.84 256.333C1597.24 263.983 1593.96 269.999 1591.63 274.095C1590.44 276.143 1589.5 277.705 1588.83 278.757C1588.5 279.262 1588.25 279.659 1588.07 279.948C1587.93 280.229 1587.8 280.345 1587.8 280.345C1587.87 280.199 1587.94 280.057 1588.02 279.919L1588.79 278.678C1589.42 277.616 1590.34 276.039 1591.5 273.977C1593.81 269.863 1597.04 263.84 1600.6 256.166C1602.38 252.341 1604.25 248.1 1606.14 243.498C1608.22 238.639 1610.04 233.666 1611.6 228.603C1614.76 217.868 1616.3 205.537 1616.67 192.616C1616.83 186.153 1616.77 179.826 1616.5 173.724C1616.23 167.621 1615.7 161.759 1615.08 156.193C1613.93 146.313 1612.2 136.512 1609.91 126.843C1607.96 118.6 1606.03 112.01 1604.58 107.514C1603.89 105.235 1603.26 103.508 1602.89 102.329L1602.47 100.942L1602.32 100.558Z" fill="#263238"/>
<path d="M1624.35 135.488C1624.47 135.555 1622.7 140.546 1620.35 146.664C1618 152.782 1616.04 157.667 1615.91 157.6C1615.79 157.532 1617.57 152.532 1619.9 146.41C1622.24 140.287 1624.21 135.416 1624.35 135.488Z" fill="#263238"/>
<path d="M1630.98 156.524C1631.1 156.591 1628.1 162.931 1624.25 170.68C1620.4 178.429 1617.19 184.667 1617.03 184.594C1616.88 184.522 1619.92 178.192 1623.77 170.429C1627.61 162.666 1630.86 156.456 1630.98 156.524Z" fill="#263238"/>
<path d="M1616.68 175.829C1616.39 175.627 1616.14 175.389 1615.91 175.121L1614 173.068L1607.8 166.285L1601.56 159.543L1599.69 157.486C1599.44 157.244 1599.22 156.974 1599.04 156.68C1599.33 156.855 1599.6 157.075 1599.83 157.334C1600.31 157.782 1600.99 158.45 1601.83 159.279C1603.49 160.941 1605.74 163.283 1608.18 165.923C1610.61 168.564 1612.8 171 1614.3 172.828C1615.07 173.733 1615.71 174.488 1616.09 174.965C1616.32 175.228 1616.52 175.518 1616.68 175.829Z" fill="#263238"/>
<path d="M1638.6 188.639C1638.34 189.015 1638.05 189.367 1637.73 189.69C1637.08 190.412 1636.25 191.34 1635.25 192.433C1633.12 194.759 1630.17 197.862 1626.92 201.343L1618.56 210.136C1617.49 211.274 1616.68 212.234 1616.12 212.908C1615.86 213.279 1615.57 213.626 1615.26 213.946C1615.45 213.528 1615.69 213.135 1615.97 212.776C1616.66 211.793 1617.41 210.847 1618.21 209.944C1620.29 207.598 1623.29 204.497 1626.53 201.011C1629.76 197.526 1632.79 194.448 1634.96 192.219L1637.57 189.589C1637.88 189.235 1638.22 188.916 1638.6 188.639Z" fill="#263238"/>
<path d="M1593.13 172.559C1593.4 172.999 1593.63 173.461 1593.83 173.939C1594.45 175.189 1595.17 176.386 1595.98 177.517C1597.19 179.191 1598.51 180.776 1599.93 182.261C1601.52 183.962 1603.35 185.752 1605.21 187.717C1608.4 191.067 1611.2 194.775 1613.58 198.77C1614.48 200.307 1615.14 201.586 1615.57 202.482C1615.83 202.935 1616.03 203.414 1616.19 203.911C1615.9 203.488 1615.63 203.044 1615.4 202.583C1614.92 201.717 1614.22 200.479 1613.26 198.969C1610.81 195.064 1607.99 191.418 1604.84 188.084C1602.99 186.132 1601.13 184.31 1599.58 182.605C1598.17 181.09 1596.88 179.468 1595.71 177.753C1594.91 176.587 1594.23 175.344 1593.67 174.041C1593.48 173.586 1593.37 173.212 1593.27 172.962C1593.2 172.835 1593.16 172.699 1593.13 172.559Z" fill="#263238"/>
<path d="M1593.63 197.056C1593.95 197.393 1594.24 197.76 1594.49 198.152C1595.01 198.876 1595.75 199.941 1596.64 201.266C1598.44 203.918 1600.87 207.622 1603.46 211.785C1606.04 215.947 1608.29 219.752 1609.88 222.545C1610.68 223.932 1611.3 225.072 1611.72 225.872C1611.96 226.271 1612.16 226.693 1612.33 227.131C1612.03 226.776 1611.77 226.391 1611.54 225.982L1609.56 222.743L1603.03 212.122L1596.37 201.521L1594.34 198.304C1594.06 197.915 1593.82 197.497 1593.63 197.056Z" fill="#263238"/>
<path d="M1638.74 214.099C1638.37 214.44 1637.98 214.743 1637.56 215.005C1636.79 215.572 1635.7 216.406 1634.39 217.492C1631.76 219.658 1628.43 222.999 1624.61 226.556C1622.8 228.227 1620.91 229.793 1618.94 231.245C1617.32 232.417 1615.63 233.486 1613.88 234.445C1612.39 235.269 1611.16 235.875 1610.3 236.289C1609.87 236.533 1609.41 236.733 1608.94 236.887C1609.34 236.587 1609.76 236.328 1610.21 236.112C1611.11 235.585 1612.28 234.922 1613.7 234.115C1615.42 233.124 1617.08 232.033 1618.68 230.849C1620.62 229.382 1622.49 227.81 1624.27 226.139C1628.07 222.604 1631.47 219.288 1634.17 217.183C1635.22 216.338 1636.32 215.548 1637.46 214.818C1637.86 214.543 1638.29 214.302 1638.74 214.099Z" fill="#263238"/>
<path d="M1639.8 240.45C1639.33 240.648 1638.83 240.798 1638.33 240.898C1637.36 241.139 1635.98 241.558 1634.3 242.116C1630.91 243.208 1626.37 245.1 1621.35 247.205C1618.83 248.245 1616.41 249.156 1614.16 249.937C1612.17 250.609 1610.15 251.166 1608.11 251.607C1607.24 251.819 1606.44 251.918 1605.74 252.024C1605.15 252.121 1604.55 252.183 1603.95 252.212C1603.44 252.281 1602.92 252.305 1602.4 252.282C1602.9 252.129 1603.42 252.022 1603.95 251.964C1604.44 251.899 1605.04 251.818 1605.73 251.661C1606.43 251.505 1607.21 251.396 1608.07 251.171C1609.79 250.775 1611.83 250.153 1614.04 249.398C1616.26 248.643 1618.67 247.673 1621.15 246.617C1626.17 244.512 1630.75 242.667 1634.18 241.659C1635.53 241.236 1636.9 240.884 1638.28 240.603C1638.78 240.505 1639.29 240.454 1639.8 240.45Z" fill="#263238"/>
<path d="M1588.29 218.266C1588.55 218.681 1588.77 219.121 1588.94 219.581L1590.51 223.227C1591.84 226.274 1593.6 230.59 1595.55 235.346C1597.5 240.102 1599.27 244.34 1600.49 247.481L1601.96 251.197C1602.14 251.646 1602.28 252.11 1602.38 252.584C1602.12 252.17 1601.9 251.731 1601.72 251.274L1600.13 247.641C1598.79 244.589 1596.99 240.3 1595.05 235.585C1593.12 230.871 1591.41 226.547 1590.18 223.42L1588.72 219.685C1588.54 219.227 1588.39 218.752 1588.29 218.266Z" fill="#263238"/>
<path d="M1598.64 133.878C1599.42 134.598 1600.16 135.367 1600.85 136.182C1602.19 137.648 1604.08 139.641 1606.26 141.757C1608.43 143.872 1610.48 145.686 1611.98 146.99C1612.82 147.654 1613.62 148.377 1614.37 149.153C1613.44 148.615 1612.56 147.989 1611.75 147.283C1610.14 146.021 1608.08 144.262 1605.9 142.142C1604.04 140.344 1602.27 138.453 1600.59 136.474C1599.86 135.675 1599.21 134.806 1598.64 133.878Z" fill="#263238"/>
<path d="M1611.06 131.275C1609.87 130.368 1608.73 129.398 1607.64 128.367C1606.43 127.479 1605.27 126.527 1604.16 125.516C1605.56 126.086 1606.85 126.911 1607.97 127.953C1609.19 128.858 1610.23 129.984 1611.06 131.275Z" fill="#263238"/>
<path d="M1616.26 122.836C1615.84 124.744 1615.2 126.591 1614.34 128.337C1613.63 130.15 1612.7 131.862 1611.56 133.43C1612.23 131.617 1613 129.842 1613.86 128.114C1614.56 126.308 1615.36 124.546 1616.26 122.836Z" fill="#263238"/>
<path d="M1582.95 236.091C1583.2 236.6 1583.4 237.132 1583.56 237.68C1583.92 238.712 1584.4 240.229 1584.92 242.105C1586.31 247.029 1587.21 252.083 1587.61 257.191C1587.8 260.01 1587.79 262.839 1587.59 265.657C1587.43 266.951 1587.4 268.212 1587.12 269.324L1586.82 270.972C1586.68 271.492 1586.56 271.993 1586.44 272.462C1586.24 273.326 1585.98 274.175 1585.68 275.007C1585.56 275.37 1585.44 275.711 1585.32 276.034C1585.21 276.357 1585.04 276.586 1584.97 276.874C1584.75 277.398 1584.49 277.901 1584.19 278.376C1584.08 278.319 1585.14 276.144 1586.05 272.351C1586.15 271.872 1586.27 271.38 1586.38 270.86C1586.49 270.34 1586.55 269.791 1586.65 269.229C1586.86 268.102 1586.93 266.874 1587.07 265.594C1587.25 262.801 1587.24 260 1587.05 257.208C1586.64 252.136 1585.8 247.11 1584.53 242.191C1584.05 240.293 1583.63 238.764 1583.32 237.724C1583.16 237.19 1583.03 236.644 1582.95 236.091Z" fill="#263238"/>
<path d="M1616.88 262.548C1616.49 262.757 1616.08 262.922 1615.66 263.039C1614.85 263.307 1613.69 263.745 1612.29 264.342C1610.66 265.041 1609.05 265.826 1607.5 266.696C1603.68 268.834 1600.16 271.488 1597.03 274.587C1595.75 275.85 1594.54 277.181 1593.4 278.576C1592.42 279.776 1591.66 280.765 1591.17 281.473C1590.93 281.853 1590.65 282.209 1590.35 282.534C1590.51 282.114 1590.72 281.713 1590.97 281.339C1591.61 280.293 1592.32 279.286 1593.08 278.32C1594.18 276.882 1595.37 275.516 1596.65 274.229C1598.22 272.655 1599.89 271.189 1601.65 269.839C1603.43 268.518 1605.29 267.322 1607.22 266.258C1608.81 265.395 1610.44 264.635 1612.12 263.98C1613.24 263.531 1614.39 263.144 1615.55 262.821C1615.99 262.682 1616.43 262.591 1616.88 262.548Z" fill="#263238"/>
<path d="M1580.5 277.176C1580.39 277.118 1580.95 275.472 1581.12 272.674C1581.14 272.326 1581.15 271.959 1581.18 271.547C1581.22 271.135 1581.17 270.772 1581.15 270.368C1581.12 269.493 1581.05 268.62 1580.93 267.752C1580.63 265.765 1580.18 263.806 1579.56 261.896C1578.92 259.993 1578.16 258.131 1577.3 256.32C1576.46 254.703 1575.72 253.138 1575 252.014C1574.28 250.89 1573.67 249.861 1573.25 249.199C1573.01 248.88 1572.81 248.533 1572.65 248.165C1572.95 248.443 1573.21 248.754 1573.44 249.093C1573.92 249.716 1574.59 250.636 1575.34 251.825C1576.21 253.213 1577 254.647 1577.72 256.12C1578.62 257.939 1579.4 259.818 1580.05 261.744C1580.67 263.686 1581.12 265.681 1581.4 267.705C1581.5 268.592 1581.56 269.485 1581.57 270.379C1581.57 270.796 1581.59 271.2 1581.59 271.549L1581.51 272.666C1581.47 273.308 1581.38 273.947 1581.24 274.576C1581.17 275.052 1581.06 275.52 1580.91 275.976C1580.82 276.39 1580.68 276.792 1580.5 277.176Z" fill="#263238"/>
<path d="M1622.61 279.918C1622.56 280.018 1621.15 279.284 1618.75 278.635C1617.32 278.257 1615.86 278.004 1614.39 277.877C1610.8 277.56 1607.18 278.028 1603.77 279.251C1602.38 279.741 1601.03 280.356 1599.75 281.088C1597.55 282.352 1596.36 283.409 1596.32 283.339C1596.55 283.04 1596.82 282.777 1597.12 282.557C1597.44 282.263 1597.78 281.992 1598.14 281.744C1598.6 281.396 1599.09 281.073 1599.58 280.776C1600.86 279.98 1602.22 279.314 1603.63 278.788C1605.36 278.167 1607.15 277.726 1608.96 277.471C1610.79 277.251 1612.63 277.224 1614.46 277.392C1615.95 277.55 1617.42 277.847 1618.86 278.281C1619.41 278.442 1619.96 278.633 1620.49 278.854C1620.89 279.008 1621.29 279.185 1621.67 279.385C1622.01 279.523 1622.32 279.702 1622.61 279.918Z" fill="#263238"/>
<path d="M1655.37 160.718C1655.37 160.718 1646.86 179.585 1646.67 190.584C1646.49 201.583 1649.98 213.287 1651.01 218.762C1652.04 224.238 1653.35 234.381 1652.03 242.612C1650.7 250.844 1649.57 265.066 1649.57 265.066L1650.12 265.272C1650.12 265.272 1656.23 231.803 1657.1 223.409C1657.98 215.015 1657.21 204.225 1656.14 193.401C1655.07 182.576 1655.37 160.718 1655.37 160.718Z" fill="#455A64"/>
<path d="M1695.74 130.437C1695.74 130.437 1680.1 142.025 1670.42 173.072C1660.74 204.119 1657.09 221.267 1657.51 227.777C1657.93 234.288 1650.11 265.268 1650.11 265.268C1650.11 265.268 1655.06 255.588 1662.74 232.333C1670.41 209.078 1677.56 185.754 1677.56 185.754L1695.74 130.437Z" fill="#455A64"/>
<path d="M1716.89 186.012C1716.89 186.012 1686.08 222.484 1675.91 234.694C1665.74 246.904 1650.11 265.268 1650.11 265.268C1650.11 265.268 1663.94 256.284 1670.99 252.332C1678.03 248.381 1687.16 240.084 1691.76 231.923C1696.37 223.762 1710.03 209.577 1713.96 199.78C1717.88 189.982 1716.89 186.012 1716.89 186.012Z" fill="#455A64"/>
<path d="M1716.62 150.563C1704.58 158.349 1694.71 169.194 1687.97 182.045C1677.34 202.958 1663.55 227.121 1662.73 236.878C1661.9 246.636 1650.13 265.369 1650.13 265.369C1650.13 265.369 1669.49 237.859 1674.41 230.67C1679.32 223.48 1702.24 180.976 1702.24 180.976L1716.62 150.563Z" fill="#455A64"/>
<path d="M1650.11 265.268C1651.93 250.829 1645.77 233.117 1641.4 219.249C1637.75 207.648 1635.05 195.756 1633.31 183.696C1628.53 197.086 1628.86 211.838 1634.26 224.983C1639.34 237.195 1647.16 251.991 1649.56 265.061" fill="#455A64"/>
</svg>
