<svg width="1728" height="764" viewBox="0 0 1728 764" fill="none" xmlns="http://www.w3.org/2000/svg">
<path fill-rule="evenodd" clip-rule="evenodd" d="M-328.717 289.15C-316.707 243.382 -304.665 197.585 -292.697 151.805C-292.66 151.667 -292.589 151.575 -292.376 151.891C-258.025 201.359 -221.773 243.557 -183.847 279.426C-182.183 275.871 -181.294 270.239 -179.925 265.901C-180.2 265.642 -180.48 265.401 -180.695 265.176C-218.535 229.331 -254.744 187.144 -288.959 137.768C-276.792 92.1902 -265.062 45.0691 -252.634 0.487047C282.799 774.129 1292.9 -223.527 1828.97 547.806C1816.96 593.666 1804.9 639.532 1792.86 685.386C1792.71 685.179 1792.57 684.937 1792.43 684.788C1760.23 638.434 1726.34 598.48 1690.94 564.142C1689.78 562.755 1689.98 564.569 1689.83 564.955C1688.55 568.002 1687.84 573.83 1686.59 577.217C1722.33 611.797 1756.54 652.097 1789.01 698.893C1777.63 744.978 1764.99 790.798 1753.12 836.791C1217.58 62.7858 207.479 1060.89 -328.717 289.15ZM-103.747 344.393C-62.7839 372.611 -20.2875 394.851 23.5834 412.218C24.815 407.621 25.9989 403.031 27.183 398.44C-16.9619 380.981 -59.7687 358.529 -100.905 330.097C-102.108 334.59 -103.317 339.1 -104.456 343.61C-104.449 343.927 -104.122 344.163 -103.747 344.393ZM138.681 446.466C184.686 456.126 231.835 461.685 279.754 464.116C280.938 459.526 282.161 454.964 283.388 450.385C235.15 447.942 187.713 442.343 141.396 432.562C140.235 437.066 139.074 441.571 137.874 446.046C137.843 446.334 138.26 446.409 138.681 446.466ZM441.845 462.062C491.154 458.792 541.112 453.528 591.291 447.267C592.479 442.659 593.654 438.103 594.876 433.542C544.382 439.865 494.144 445.147 444.474 448.395C443.27 452.888 442.113 457.374 440.952 461.879C440.921 462.167 441.375 462.103 441.845 462.062ZM703.956 431.859C754.524 424.573 805.14 417.023 855.602 410.134C856.782 405.561 858.004 400.999 859.188 396.409C808.441 403.332 757.483 410.957 706.63 418.278C705.452 422.759 704.27 427.257 703.07 431.733C703.056 432.044 703.519 431.945 703.956 431.859ZM984.926 394.634C1034.77 389.727 1084.18 386.335 1132.88 385.495C1134.09 380.893 1135.3 376.365 1136.51 371.763C1087.46 372.604 1037.77 376.013 987.593 380.995C986.437 385.482 985.233 389.974 984.076 394.461C984.045 394.749 984.494 394.703 984.926 394.634ZM1258.49 389.686C1305.83 394.001 1352.27 401.72 1397.53 413.793C1398.73 409.226 1399.92 404.618 1401.15 400.039C1355.59 387.868 1308.85 380.178 1261.18 375.869C1260 380.367 1258.82 384.848 1257.63 389.364C1257.64 389.663 1258.06 389.663 1258.49 389.686ZM1475.8 439.746C1519.58 457.274 1562.07 479.79 1602.95 508.21C1604.16 503.608 1605.34 499.035 1606.58 494.438C1565.42 465.817 1522.68 443.214 1478.58 425.658C1477.4 430.139 1476.2 434.649 1475.04 439.136C1475 439.458 1475.41 439.567 1475.8 439.746Z" fill="black"/>
</svg>
